  0
SECTION
  2
HEADER
  9
$ACADVER
  1
AC1015
  9
$ACADMAINTVER
 70
     6
  9
$DWGCODEPAGE
  3
ANSI_1252
  9
$INSBASE
 10
0.0
 20
0.0
 30
0.0
  9
$EXTMIN
 10
0.0
 20
0.0
 30
0.0
  9
$EXTMAX
 10
640.01
 20
425.0
 30
0.2
  9
$LIMMIN
 10
0.0
 20
0.0
  9
$LIMMAX
 10
640.0
 20
425.0
  9
$ORTHOMODE
 70
     1
  9
$REGENMODE
 70
     1
  9
$FILLMODE
 70
     1
  9
$QTEXTMODE
 70
     0
  9
$MIRRTEXT
 70
     1
  9
$LTSCALE
 40
15.0
  9
$ATTMODE
 70
     1
  9
$TEXTSIZE
 40
3.0
  9
$TRACEWID
 40
10.0
  9
$TEXTSTYLE
  7
MONOTXT
  9
$CLAYER
  8
1
  9
$CELTYPE
  6
BYLAYER
  9
$CECOLOR
 62
     7
  9
$CELTSCALE
 40
1.0
  9
$DISPSILH
 70
     0
  9
$DIMSCALE
 40
1.0
  9
$DIMASZ
 40
3.0
  9
$DIMEXO
 40
2.5
  9
$DIMDLI
 40
10.0
  9
$DIMRND
 40
0.0
  9
$DIMDLE
 40
1.25
  9
$DIMEXE
 40
2.5
  9
$DIMTP
 40
0.0
  9
$DIMTM
 40
0.0
  9
$DIMTXT
 40
3.0
  9
$DIMCEN
 40
-3.0
  9
$DIMTSZ
 40
0.0
  9
$DIMTOL
 70
     0
  9
$DIMLIM
 70
     0
  9
$DIMTIH
 70
     0
  9
$DIMTOH
 70
     0
  9
$DIMSE1
 70
     0
  9
$DIMSE2
 70
     0
  9
$DIMTAD
 70
     0
  9
$DIMZIN
 70
     1
  9
$DIMBLK
  1

  9
$DIMASO
 70
     1
  9
$DIMSHO
 70
     0
  9
$DIMPOST
  1

  9
$DIMAPOST
  1

  9
$DIMALT
 70
     0
  9
$DIMALTD
 70
     2
  9
$DIMALTF
 40
0.04
  9
$DIMLFAC
 40
1.0
  9
$DIMTOFL
 70
     0
  9
$DIMTVP
 40
1.5
  9
$DIMTIX
 70
     0
  9
$DIMSOXD
 70
     0
  9
$DIMSAH
 70
     0
  9
$DIMBLK1
  1

  9
$DIMBLK2
  1

  9
$DIMSTYLE
  2
STANDARD
  9
$DIMCLRD
 70
     0
  9
$DIMCLRE
 70
     0
  9
$DIMCLRT
 70
     0
  9
$DIMTFAC
 40
1.0
  9
$DIMGAP
 40
0.09
  9
$DIMJUST
 70
     0
  9
$DIMSD1
 70
     0
  9
$DIMSD2
 70
     0
  9
$DIMTOLJ
 70
     1
  9
$DIMTZIN
 70
     1
  9
$DIMALTZ
 70
     1
  9
$DIMALTTZ
 70
     1
  9
$DIMUPT
 70
     0
  9
$DIMDEC
 70
     0
  9
$DIMTDEC
 70
     0
  9
$DIMALTU
 70
     2
  9
$DIMALTTD
 70
     2
  9
$DIMTXSTY
  7
STANDARD
  9
$DIMAUNIT
 70
     0
  9
$DIMADEC
 70
     0
  9
$DIMALTRND
 40
0.0
  9
$DIMAZIN
 70
     0
  9
$DIMDSEP
 70
    46
  9
$DIMATFIT
 70
     3
  9
$DIMFRAC
 70
     0
  9
$DIMLDRBLK
  1

  9
$DIMLUNIT
 70
     2
  9
$DIMLWD
 70
    -2
  9
$DIMLWE
 70
    -2
  9
$DIMTMOVE
 70
     2
  9
$LUNITS
 70
     2
  9
$LUPREC
 70
     8
  9
$SKETCHINC
 40
1.0
  9
$FILLETRAD
 40
0.0
  9
$AUNITS
 70
     0
  9
$AUPREC
 70
     4
  9
$MENU
  1
fbcad
  9
$ELEVATION
 40
0.0
  9
$PELEVATION
 40
0.0
  9
$THICKNESS
 40
0.0
  9
$LIMCHECK
 70
     0
  9
$CHAMFERA
 40
0.0
  9
$CHAMFERB
 40
0.0
  9
$CHAMFERC
 40
0.0
  9
$CHAMFERD
 40
0.0
  9
$SKPOLY
 70
     1
  9
$TDCREATE
 40
2450165.582369792
  9
$TDUCREATE
 40
2450165.457369792
  9
$TDUPDATE
 40
2458229.609488252
  9
$TDUUPDATE
 40
2458229.484488252
  9
$TDINDWG
 40
0.0268626042
  9
$TDUSRTIMER
 40
0.0268626042
  9
$USRTIMER
 70
     1
  9
$ANGBASE
 50
0.0
  9
$ANGDIR
 70
     0
  9
$PDMODE
 70
     3
  9
$PDSIZE
 40
0.0
  9
$PLINEWID
 40
0.0
  9
$SPLFRAME
 70
     0
  9
$SPLINETYPE
 70
     6
  9
$SPLINESEGS
 70
     6
  9
$HANDSEED
  5
E437
  9
$SURFTAB1
 70
    12
  9
$SURFTAB2
 70
    12
  9
$SURFTYPE
 70
     6
  9
$SURFU
 70
    12
  9
$SURFV
 70
    12
  9
$UCSBASE
  2

  9
$UCSNAME
  2

  9
$UCSORG
 10
0.0
 20
0.0
 30
0.0
  9
$UCSXDIR
 10
1.0
 20
0.0
 30
0.0
  9
$UCSYDIR
 10
0.0
 20
1.0
 30
0.0
  9
$UCSORTHOREF
  2

  9
$UCSORTHOVIEW
 70
     0
  9
$UCSORGTOP
 10
0.0
 20
0.0
 30
0.0
  9
$UCSORGBOTTOM
 10
0.0
 20
0.0
 30
0.0
  9
$UCSORGLEFT
 10
0.0
 20
0.0
 30
0.0
  9
$UCSORGRIGHT
 10
0.0
 20
0.0
 30
0.0
  9
$UCSORGFRONT
 10
0.0
 20
0.0
 30
0.0
  9
$UCSORGBACK
 10
0.0
 20
0.0
 30
0.0
  9
$PUCSBASE
  2

  9
$PUCSNAME
  2

  9
$PUCSORG
 10
0.0
 20
0.0
 30
0.0
  9
$PUCSXDIR
 10
1.0
 20
0.0
 30
0.0
  9
$PUCSYDIR
 10
0.0
 20
1.0
 30
0.0
  9
$PUCSORTHOREF
  2

  9
$PUCSORTHOVIEW
 70
     0
  9
$PUCSORGTOP
 10
0.0
 20
0.0
 30
0.0
  9
$PUCSORGBOTTOM
 10
0.0
 20
0.0
 30
0.0
  9
$PUCSORGLEFT
 10
0.0
 20
0.0
 30
0.0
  9
$PUCSORGRIGHT
 10
0.0
 20
0.0
 30
0.0
  9
$PUCSORGFRONT
 10
0.0
 20
0.0
 30
0.0
  9
$PUCSORGBACK
 10
0.0
 20
0.0
 30
0.0
  9
$USERI1
 70
     5
  9
$USERI2
 70
    99
  9
$USERI3
 70
     0
  9
$USERI4
 70
     0
  9
$USERI5
 70
     0
  9
$USERR1
 40
11.0
  9
$USERR2
 40
0.0
  9
$USERR3
 40
0.0
  9
$USERR4
 40
0.0
  9
$USERR5
 40
0.0
  9
$WORLDVIEW
 70
     0
  9
$SHADEDGE
 70
     3
  9
$SHADEDIF
 70
    70
  9
$TILEMODE
 70
     1
  9
$MAXACTVP
 70
    16
  9
$PINSBASE
 10
0.0
 20
0.0
 30
0.0
  9
$PLIMCHECK
 70
     0
  9
$PEXTMIN
 10
1.00E+20
 20
1.00E+20
 30
1.00E+20
  9
$PEXTMAX
 10
-1.00E+20
 20
-1.00E+20
 30
-1.00E+20
  9
$PLIMMIN
 10
0.0
 20
0.0
  9
$PLIMMAX
 10
12.0
 20
9.0
  9
$UNITMODE
 70
     0
  9
$VISRETAIN
 70
     0
  9
$PLINEGEN
 70
     0
  9
$PSLTSCALE
 70
     0
  9
$TREEDEPTH
 70
  3020
  9
$CMLSTYLE
  2
STANDARD
  9
$CMLJUST
 70
     0
  9
$CMLSCALE
 40
1.0
  9
$PROXYGRAPHICS
 70
     1
  9
$MEASUREMENT
 70
     0
  9
$CELWEIGHT
370
    -1
  9
$ENDCAPS
280
     0
  9
$JOINSTYLE
280
     0
  9
$LWDISPLAY
290
     0
  9
$INSUNITS
 70
     0
  9
$HYPERLINKBASE
  1

  9
$STYLESHEET
  1

  9
$XEDIT
290
     1
  9
$CEPSNTYPE
380
     0
  9
$PSTYLEMODE
290
     1
  9
$FINGERPRINTGUID
  2
{F2B6BB3D-FECE-49A2-BB8F-E162E3881828}
  9
$VERSIONGUID
  2
{A0F666B7-6674-4356-BF41-C1927768DC75}
  9
$EXTNAMES
290
     1
  9
$PSVPSCALE
 40
0.0
  9
$OLESTARTUP
290
     0
  0
ENDSEC
  0
SECTION
  2
CLASSES
  0
CLASS
  1
DICTIONARYVAR
  2
AcDbDictionaryVar
  3
ObjectDBX Classes
 90
        0
280
     0
281
     0
  0
CLASS
  1
IDBUFFER
  2
AcDbIdBuffer
  3
ObjectDBX Classes
 90
        0
280
     0
281
     0
  0
CLASS
  1
ACDBDICTIONARYWDFLT
  2
AcDbDictionaryWithDefault
  3
ObjectDBX Classes
 90
        0
280
     0
281
     0
  0
CLASS
  1
ACDBPLACEHOLDER
  2
AcDbPlaceHolder
  3
ObjectDBX Classes
 90
        0
280
     0
281
     0
  0
CLASS
  1
LAYOUT
  2
AcDbLayout
  3
ObjectDBX Classes
 90
        0
280
     0
281
     0
  0
CLASS
  1
SCALE
  2
AcDbScale
  3
ObjectDBX Classes
 90
     1153
280
     0
281
     0
  0
CLASS
  1
MATERIAL
  2
AcDbMaterial
  3
ObjectDBX Classes
 90
     1153
280
     0
281
     0
  0
ENDSEC
  0
SECTION
  2
TABLES
  0
TABLE
  2
VPORT
  5
DFBE
330
0
100
AcDbSymbolTable
 70
     1
  0
VPORT
  5
E0B4
330
DFBE
100
AcDbSymbolTableRecord
100
AcDbViewportTableRecord
  2
*Active
 70
     0
 10
0.0
 20
0.0
 11
1.0
 21
1.0
 12
320.0
 22
212.5
 13
0.0
 23
0.0
 14
5.0
 24
5.0
 15
0.0
 25
0.0
 16
0.0
 26
0.0
 36
1.0
 17
0.0
 27
0.0
 37
0.0
 40
463.53
 41
1.38
 42
1.0
 43
0.0
 44
0.0
 50
0.0
 51
0.0
 71
     0
 72
  2000
 73
     1
 74
     2
 75
     1
 76
     0
 77
     0
 78
     1
281
     0
 65
     1
110
0.0
120
0.0
130
0.0
111
1.0
121
0.0
131
0.0
112
0.0
122
1.0
132
0.0
 79
     0
146
0.0
  0
ENDTAB
  0
TABLE
  2
LTYPE
  5
DFBB
330
0
100
AcDbSymbolTable
 70
     1
  0
LTYPE
  5
DFC7
330
DFBB
100
AcDbSymbolTableRecord
100
AcDbLinetypeTableRecord
  2
BYBLOCK
 70
     0
  3

 72
    65
 73
     0
 40
0.0
  0
LTYPE
  5
DFC8
330
DFBB
100
AcDbSymbolTableRecord
100
AcDbLinetypeTableRecord
  2
BYLAYER
 70
     0
  3

 72
    65
 73
     0
 40
0.0
  0
LTYPE
  5
DFC9
330
DFBB
100
AcDbSymbolTableRecord
100
AcDbLinetypeTableRecord
  2
CONTINUOUS
 70
     0
  3
Solid line
 72
    65
 73
     0
 40
0.0
  0
ENDTAB
  0
TABLE
  2
LAYER
  5
DFB8
330
0
100
AcDbSymbolTable
 70
     4
  0
LAYER
  5
DFC4
330
DFB8
100
AcDbSymbolTableRecord
100
AcDbLayerTableRecord
  2
0
 70
     0
 62
     7
  6
CONTINUOUS
370
    -3
390
E0A8
  0
LAYER
  5
DFDB
330
DFB8
100
AcDbSymbolTableRecord
100
AcDbLayerTableRecord
  2
1
 70
     0
 62
     7
  6
CONTINUOUS
370
    -3
390
E0A8
  0
LAYER
  5
DFDC
330
DFB8
100
AcDbSymbolTableRecord
100
AcDbLayerTableRecord
  2
1_COM
 70
     0
 62
     7
  6
CONTINUOUS
370
    -3
390
E0A8
  0
ENDTAB
  0
TABLE
  2
STYLE
  5
DFB9
330
0
100
AcDbSymbolTable
 70
     4
  0
STYLE
  5
DFC5
330
DFB9
100
AcDbSymbolTableRecord
100
AcDbTextStyleTableRecord
  2
STANDARD
 70
     0
 40
0.0
 41
1.0
 50
0.0
 71
     0
 42
3.0
  3
Monotxt.shx
  4

  0
STYLE
  5
DFD5
330
DFB9
100
AcDbSymbolTableRecord
100
AcDbTextStyleTableRecord
  2
MONOTXT
 70
     0
 40
0.0
 41
1.0
 50
0.0
 71
     0
 42
0.2
  3
Monotxt.shx
  4

  0
STYLE
  5
DFD6
330
DFB9
100
AcDbSymbolTableRecord
100
AcDbTextStyleTableRecord
  2
SIMPLEX
 70
     0
 40
4.0
 41
1.0
 50
0.0
 71
     0
 42
4.0
  3
Monotxt.shx
  4

  0
STYLE
  5
DFD7
330
DFB9
100
AcDbSymbolTableRecord
100
AcDbTextStyleTableRecord
  2
TXT
 70
     0
 40
0.0
 41
1.0
 50
0.0
 71
     0
 42
4.0
  3
Monotxt.shx
  4

  0
ENDTAB
  0
TABLE
  2
VIEW
  5
DFBC
330
0
100
AcDbSymbolTable
 70
     1
  0
VIEW
  5
DFD8
330
DFBC
100
AcDbSymbolTableRecord
100
AcDbViewTableRecord
  2
1
 70
     0
 40
463.53
 10
320.0
 20
212.5
 41
640.0
 11
0.0
 21
0.0
 31
1.0
 12
0.0
 22
0.0
 32
0.0
 42
1.0
 43
0.0
 44
0.0
 50
0.0
 71
     0
281
     0
 72
     0
  0
ENDTAB
  0
TABLE
  2
UCS
  5
DFBD
330
0
100
AcDbSymbolTable
 70
     0
  0
ENDTAB
  0
TABLE
  2
APPID
  5
DFBF
330
0
100
AcDbSymbolTable
 70
     1
  0
APPID
  5
DFC6
330
DFBF
100
AcDbSymbolTableRecord
100
AcDbRegAppTableRecord
  2
ACAD
 70
     0
  0
ENDTAB
  0
TABLE
  2
DIMSTYLE
  5
DFC0
330
0
100
AcDbSymbolTable
 70
     2
100
AcDbDimStyleTable
  0
DIMSTYLE
105
DFE6
330
DFC0
100
AcDbSymbolTableRecord
100
AcDbDimStyleTableRecord
  2
STANDARD
 70
     0
340
DFC5
  0
DIMSTYLE
105
E171
330
DFC0
100
AcDbSymbolTableRecord
100
AcDbDimStyleTableRecord
  2
ISO-25
 70
     0
 41
2.5
 42
0.62
 43
3.75
 44
1.25
 73
     0
 74
     0
 77
     1
 78
     8
140
2.5
141
2.5
143
0.04
147
0.62
171
     3
172
     1
271
     2
272
     2
274
     3
278
    44
283
     0
284
     8
340
DFC5
  0
ENDTAB
  0
TABLE
  2
BLOCK_RECORD
  5
DFB7
330
0
100
AcDbSymbolTable
 70
    10
  0
BLOCK_RECORD
  5
DFCD
330
DFB7
100
AcDbSymbolTableRecord
100
AcDbBlockTableRecord
  2
*MODEL_SPACE
340
E0AB
  0
BLOCK_RECORD
  5
DFCA
330
DFB7
100
AcDbSymbolTableRecord
100
AcDbBlockTableRecord
  2
*PAPER_SPACE
340
E0AC
  0
BLOCK_RECORD
  5
DFD2
330
DFB7
100
AcDbSymbolTableRecord
100
AcDbBlockTableRecord
  2
-FADMIN
340
0
102
{BLKREFS
331
E09E
102
}
  0
BLOCK_RECORD
  5
DFD3
330
DFB7
100
AcDbSymbolTableRecord
100
AcDbBlockTableRecord
  2
-SADMIN
340
0
102
{BLKREFS
331
11
102
}
  0
BLOCK_RECORD
  5
DFD4
330
DFB7
100
AcDbSymbolTableRecord
100
AcDbBlockTableRecord
  2
-ADMIN
340
0
102
{BLKREFS
331
E06D
102
}
  0
BLOCK_RECORD
  5
E023
330
DFB7
100
AcDbSymbolTableRecord
100
AcDbBlockTableRecord
  2
COMPANY
340
0
102
{BLKREFS
331
E028
102
}
  0
BLOCK_RECORD
  5
E02B
330
DFB7
100
AcDbSymbolTableRecord
100
AcDbBlockTableRecord
  2
CUSTOMER
340
0
102
{BLKREFS
331
E02E
102
}
  0
BLOCK_RECORD
  5
E11D
330
DFB7
100
AcDbSymbolTableRecord
100
AcDbBlockTableRecord
  2
-IO_TI4
340
0
102
{BLKREFS
331
E17E
102
}
1001
ACAD
1000
DesignCenter Data
1002
{
1070
     1
1070
     4
1002
}
  0
BLOCK_RECORD
  5
E1A3
330
DFB7
100
AcDbSymbolTableRecord
100
AcDbBlockTableRecord
  2
AM_IN
340
0
102
{BLKREFS
331
E1D7
102
}
  0
BLOCK_RECORD
  5
E1F1
330
DFB7
100
AcDbSymbolTableRecord
100
AcDbBlockTableRecord
  2
-CE_AM
340
0
102
{BLKREFS
331
E263
102
}
  0
BLOCK_RECORD
  5
E282
330
DFB7
100
AcDbSymbolTableRecord
100
AcDbBlockTableRecord
  2
-OD_AM
340
0
102
{BLKREFS
331
E2D3
102
}
  0
BLOCK_RECORD
  5
E2DE
330
DFB7
100
AcDbSymbolTableRecord
100
AcDbBlockTableRecord
  2
-AL_AM
340
0
102
{BLKREFS
331
E3C7
102
}
  0
ENDTAB
  0
ENDSEC
  0
SECTION
  2
BLOCKS
  0
BLOCK
  5
DFDF
330
DFCD
100
AcDbEntity
  8
0
 62
     7
100
AcDbBlockBegin
  2
*MODEL_SPACE
 70
     0
 10
0.0
 20
0.0
 30
0.0
  3
*MODEL_SPACE
  1
*MODEL_SPACE
  0
ENDBLK
  5
DFE0
330
DFCD
100
AcDbEntity
  8
0
 62
     7
100
AcDbBlockEnd
  0
BLOCK
  5
DFDD
330
DFCA
100
AcDbEntity
 67
     1
  8
0
 62
     7
100
AcDbBlockBegin
  2
*PAPER_SPACE
 70
     0
 10
0.0
 20
0.0
 30
0.0
  3
*PAPER_SPACE
  1
*PAPER_SPACE
  0
ENDBLK
  5
DFDE
330
DFCA
100
AcDbEntity
 67
     1
  8
0
 62
     7
100
AcDbBlockEnd
  0
BLOCK
  5
1D
330
DFD2
100
AcDbEntity
  8
0
100
AcDbBlockBegin
  2
-FADMIN
 70
     2
 10
0.0
 20
0.0
 30
0.0
  3
-FADMIN
  1
-FADMIN
  0
ATTDEF
  5
E083
330
DFD2
100
AcDbEntity
  8
0
100
AcDbText
 10
107.28
 20
403.4
 30
0.0
 40
5.0
  1
pr:TAG_CODE.F
 11
0.0
 21
0.0
 31
0.0
100
AcDbAttributeDefinition
  3
FUNCTION MODULE NAME
  2
$NAME
 70
     0
  0
ATTDEF
  5
E084
330
DFD2
100
AcDbEntity
  8
0
100
AcDbText
 10
248.61
 20
411.08
 30
0.0
 40
5.0
  1
AP01
 11
0.0
 21
0.0
 31
0.0
100
AcDbAttributeDefinition
  3
PACKAGE IDENTIFIER
  2
$DESTINATION
 70
     0
  0
ATTDEF
  5
E085
330
DFD2
100
AcDbEntity
  8
0
100
AcDbText
 10
241.35
 20
398.89
 30
0.0
 40
5.0
  1
1000
 11
0.0
 21
0.0
 31
0.0
100
AcDbAttributeDefinition
  3
EXECUTION INTERVAL<ms>
  2
$EXECUTION
 70
     0
  0
ATTDEF
  5
E086
330
DFD2
100
AcDbEntity
  8
0
100
AcDbText
 10
241.35
 20
386.89
 30
0.0
 40
5.0
  1
20
 11
0.0
 21
0.0
 31
0.0
100
AcDbAttributeDefinition
  3
EXECUTION ORDER
  2
$ORDINAL
 70
     0
  0
LINE
  5
E087
330
DFD2
100
AcDbEntity
  8
0
100
AcDbLine
 10
202.95
 20
396.51
 30
0.0
 11
277.95
 21
396.51
 31
0.0
  0
TEXT
  5
E088
330
DFD2
100
AcDbEntity
  8
0
100
AcDbText
 10
207.95
 20
387.51
 30
0.0
 40
4.0
  1
Order
 11
0.0
 21
0.0
 31
0.0
100
AcDbText
  0
LINE
  5
E089
330
DFD2
100
AcDbEntity
  8
0
100
AcDbLine
 10
202.95
 20
408.51
 30
0.0
 11
277.95
 21
408.51
 31
0.0
  0
POLYLINE
  5
E08A
330
DFD2
100
AcDbEntity
  8
0
100
AcDb2dPolyline
 66
     1
 10
0.0
 20
0.0
 30
0.0
  0
VERTEX
  5
E08B
330
E08A
100
AcDbEntity
  8
0
100
AcDbVertex
100
AcDb2dVertex
 10
99.92
 20
383.79
 30
0.0
  0
VERTEX
  5
E08C
330
E08A
100
AcDbEntity
  8
0
100
AcDbVertex
100
AcDb2dVertex
 10
278.21
 20
383.79
 30
0.0
  0
VERTEX
  5
E08D
330
E08A
100
AcDbEntity
  8
0
100
AcDbVertex
100
AcDb2dVertex
 10
278.21
 20
420.22
 30
0.0
  0
SEQEND
  5
E08E
330
E08A
100
AcDbEntity
  8
0
  0
TEXT
  5
E08F
330
DFD2
100
AcDbEntity
  8
0
100
AcDbText
 10
106.95
 20
411.51
 30
0.0
 40
4.0
  1
Name
 11
0.0
 21
0.0
 31
0.0
100
AcDbText
  0
TEXT
  5
E090
330
DFD2
100
AcDbEntity
  8
0
100
AcDbText
 10
207.95
 20
411.51
 30
0.0
 40
4.0
  1
Package
 11
0.0
 21
0.0
 31
0.0
100
AcDbText
  0
TEXT
  5
E091
330
DFD2
100
AcDbEntity
  8
0
100
AcDbText
 10
207.95
 20
399.51
 30
0.0
 40
4.0
  1
Execution
 11
0.0
 21
0.0
 31
0.0
100
AcDbText
  0
TEXT
  5
E092
330
DFD2
100
AcDbEntity
  8
0
100
AcDbText
 10
268.6
 20
399.01
 30
0.0
 40
4.0
  1
ms
 11
0.0
 21
0.0
 31
0.0
100
AcDbText
  0
POLYLINE
  5
E093
330
DFD2
100
AcDbEntity
  8
0
100
AcDb2dPolyline
 66
     1
 10
0.0
 20
0.0
 30
0.0
  0
VERTEX
  5
E094
330
E093
100
AcDbEntity
  8
0
100
AcDbVertex
100
AcDb2dVertex
 10
202.95
 20
383.77
 30
0.0
  0
VERTEX
  5
E095
330
E093
100
AcDbEntity
  8
0
100
AcDbVertex
100
AcDb2dVertex
 10
202.95
 20
420.51
 30
0.0
  0
SEQEND
  5
E096
330
E093
100
AcDbEntity
  8
0
  0
POLYLINE
  5
E097
330
DFD2
100
AcDbEntity
  8
0
100
AcDb2dPolyline
 66
     1
 10
0.0
 20
0.0
 30
0.0
 40
0.5
 41
0.5
  0
VERTEX
  5
E098
330
E097
100
AcDbEntity
  8
0
100
AcDbVertex
100
AcDb2dVertex
 10
539.98
 20
420.17
 30
0.0
  0
VERTEX
  5
E099
330
E097
100
AcDbEntity
  8
0
100
AcDbVertex
100
AcDb2dVertex
 10
539.98
 20
40.17
 30
0.0
  0
VERTEX
  5
E09A
330
E097
100
AcDbEntity
  8
0
100
AcDbVertex
100
AcDb2dVertex
 10
99.98
 20
40.17
 30
0.0
  0
VERTEX
  5
E09B
330
E097
100
AcDbEntity
  8
0
100
AcDbVertex
100
AcDb2dVertex
 10
99.98
 20
420.17
 30
0.0
  0
VERTEX
  5
E09C
330
E097
100
AcDbEntity
  8
0
100
AcDbVertex
100
AcDb2dVertex
 10
539.98
 20
420.17
 30
0.0
  0
SEQEND
  5
E09D
330
E097
100
AcDbEntity
  8
0
  0
ENDBLK
  5
39
330
DFD2
100
AcDbEntity
  8
0
100
AcDbBlockEnd
  0
BLOCK
  5
3A
330
DFD3
100
AcDbEntity
  8
0
100
AcDbBlockBegin
  2
-SADMIN
 70
     2
 10
0.0
 20
0.0
 30
0.0
  3
-SADMIN
  1
-SADMIN
  0
ATTDEF
  5
3B
330
DFD3
100
AcDbEntity
  8
0
 62
     7
100
AcDbText
 10
24.05
 20
25.52
 30
0.0
 40
4.0
  1

 11
0.0
 21
0.0
 31
0.0
100
AcDbAttributeDefinition
  3
PAGE NUMBER
  2
$PAGE_NO
 70
     0
  0
ATTDEF
  5
3C
330
DFD3
100
AcDbEntity
  8
0
 62
     7
100
AcDbText
 10
38.1
 20
25.54
 30
0.0
 40
4.0
  1

 11
0.0
 21
0.0
 31
0.0
100
AcDbAttributeDefinition
  3
TOTAL NUMBER OF PAGES
  2
$PAGE_TOTAL
 70
     0
  0
ATTDEF
  5
3D
330
DFD3
100
AcDbEntity
  8
0
 62
     7
100
AcDbText
 10
21.19
 20
14.96
 30
0.0
 40
4.0
  1

 11
0.0
 21
0.0
 31
0.0
100
AcDbAttributeDefinition
  3
PAGE SIZE
  2
$PAGE_SIZE
 70
     1
  0
ATTDEF
  5
3E
330
DFD3
100
AcDbEntity
  8
0
 62
     7
100
AcDbText
 10
21.19
 20
20.01
 30
0.0
 40
4.0
  1

  7
TXT
 11
0.0
 21
0.0
 31
0.0
100
AcDbAttributeDefinition
  3
ACTIVE PAGE
  2
$PAGE_CURR
 70
     1
  0
TEXT
  5
3F
330
DFD3
100
AcDbEntity
  8
0
100
AcDbText
 10
31.25
 20
25.72
 30
0.0
 40
4.0
  1
/
 11
0.0
 21
0.0
 31
0.0
100
AcDbText
  0
TEXT
  5
40
330
DFD3
100
AcDbEntity
  8
0
 62
     7
100
AcDbText
 10
5.5
 20
25.54
 30
0.0
 40
4.0
  1
Page
  7
TXT
 11
0.0
 21
0.0
 31
0.0
100
AcDbText
  0
POLYLINE
  5
41
330
DFD3
100
AcDbEntity
  8
0
100
AcDb2dPolyline
 66
     1
 10
0.0
 20
0.0
 30
0.0
  0
VERTEX
  5
42
330
41
100
AcDbEntity
  8
0
100
AcDbVertex
100
AcDb2dVertex
 10
1.28
 20
33.0
 30
0.0
  0
VERTEX
  5
43
330
41
100
AcDbEntity
  8
0
100
AcDbVertex
100
AcDb2dVertex
 10
1.28
 20
21.12
 30
0.0
  0
VERTEX
  5
44
330
41
100
AcDbEntity
  8
0
100
AcDbVertex
100
AcDb2dVertex
 10
60.01
 20
21.12
 30
0.0
  0
VERTEX
  5
45
330
41
100
AcDbEntity
  8
0
100
AcDbVertex
100
AcDb2dVertex
 10
60.01
 20
33.0
 30
0.0
  0
VERTEX
  5
46
330
41
100
AcDbEntity
  8
0
100
AcDbVertex
100
AcDb2dVertex
 10
1.28
 20
33.0
 30
0.0
  0
SEQEND
  5
47
330
41
100
AcDbEntity
  8
0
 62
     7
  0
ENDBLK
  5
48
330
DFD3
100
AcDbEntity
  8
0
100
AcDbBlockEnd
  0
BLOCK
  5
DD
330
DFD4
100
AcDbEntity
  8
0
100
AcDbBlockBegin
  2
-ADMIN
 70
     2
 10
0.0
 20
0.0
 30
0.0
  3
-ADMIN
  1
-ADMIN
  0
ATTDEF
  5
E038
330
DFD4
100
AcDbEntity
  8
0
 62
     7
100
AcDbText
 10
475.15
 20
13.45
 30
0.0
 40
4.0
  1
TAG_CODE
  7
MONOTXT
 11
0.0
 21
0.0
 31
0.0
100
AcDbAttributeDefinition
  3
LOOP TAG
  2
$NAME
 70
     0
  0
ATTDEF
  5
E039
330
DFD4
100
AcDbEntity
  8
0
 62
     7
100
AcDbText
 10
543.15
 20
13.86
 30
0.0
 40
4.0
  1

  7
MONOTXT
 11
0.0
 21
0.0
 31
0.0
100
AcDbAttributeDefinition
  3
LOOP NAME (FIELD 1)
  2
$DESCRIPTION1
 70
     0
  0
ATTDEF
  5
E03A
330
DFD4
100
AcDbEntity
  8
0
 62
     7
100
AcDbText
 10
543.24
 20
4.73
 30
0.0
 40
4.0
  1

  7
MONOTXT
 11
0.0
 21
0.0
 31
0.0
100
AcDbAttributeDefinition
  3
LOOP NAME (FIELD 2)
  2
$DESCRIPTION2
 70
     0
  0
ATTDEF
  5
E03B
330
DFD4
100
AcDbEntity
  8
0
 62
     7
100
AcDbText
 10
605.0
 20
5.0
 30
0.0
 40
4.0
  1
complete
  7
MONOTXT
 11
0.0
 21
0.0
 31
0.0
100
AcDbAttributeDefinition
  3
LOOP STATUS
  2
$STATUS
 70
     1
  0
ATTDEF
  5
E03C
330
DFD4
100
AcDbEntity
  8
0
 62
     7
100
AcDbText
 10
144.76
 20
18.04
 30
0.0
 40
4.0
  1
-
  7
MONOTXT
 11
0.0
 21
0.0
 31
0.0
100
AcDbAttributeDefinition
  3
NAME OF PLANNER
  2
$CREATOR
 70
     0
  0
ATTDEF
  5
E03D
330
DFD4
100
AcDbEntity
  8
0
 62
     7
100
AcDbText
 10
87.63
 20
18.04
 30
0.0
 40
4.0
  1
YY-MM-DD HH:MM
  7
MONOTXT
 11
0.0
 21
0.0
 31
0.0
100
AcDbAttributeDefinition
  3
DATE OF PLANNING
  2
$CREATED
 70
     0
  0
ATTDEF
  5
E03E
330
DFD4
100
AcDbEntity
  8
0
 62
     7
100
AcDbText
 10
144.76
 20
1.89
 30
0.0
 40
4.0
  1
-
  7
MONOTXT
 11
0.0
 21
0.0
 31
0.0
100
AcDbAttributeDefinition
  3
NAME OF MODIFIER
  2
$MODIFIER
 70
     0
  0
ATTDEF
  5
E03F
330
DFD4
100
AcDbEntity
  8
0
 62
     7
100
AcDbText
 10
87.54
 20
1.79
 30
0.0
 40
4.0
  1
YY-MM-DD HH:MM
  7
MONOTXT
 11
0.0
 21
0.0
 31
0.0
100
AcDbAttributeDefinition
  3
DATE OF MODIFICATION
  2
$MODIFIED
 70
     0
  0
ATTDEF
  5
E040
330
DFD4
100
AcDbEntity
  8
0
 62
     7
100
AcDbText
 10
368.0
 20
23.0
 30
0.0
 40
5.0
  1

  7
MONOTXT
 11
0.0
 21
0.0
 31
0.0
100
AcDbAttributeDefinition
  3
PROCESS AREA 1
  2
$PROCESSAREA1
 70
     0
  0
ATTDEF
  5
E041
330
DFD4
100
AcDbEntity
  8
0
 62
     7
100
AcDbText
 10
368.0
 20
16.0
 30
0.0
 40
5.0
  1

  7
MONOTXT
 11
0.0
 21
0.0
 31
0.0
100
AcDbAttributeDefinition
  3
PROCESS AREA 2
  2
$PROCESSAREA2
 70
     0
  0
ATTDEF
  5
E042
330
DFD4
100
AcDbEntity
  8
0
 62
     7
100
AcDbText
 10
368.0
 20
9.0
 30
0.0
 40
5.0
  1

  7
MONOTXT
 11
0.0
 21
0.0
 31
0.0
100
AcDbAttributeDefinition
  3
PROCESS AREA 3
  2
$PROCESSAREA3
 70
     0
  0
ATTDEF
  5
E043
330
DFD4
100
AcDbEntity
  8
0
 62
     7
100
AcDbText
 10
368.0
 20
2.0
 30
0.0
 40
5.0
  1

  7
MONOTXT
 11
0.0
 21
0.0
 31
0.0
100
AcDbAttributeDefinition
  3
PROCESS AREA 4
  2
$PROCESSAREA4
 70
     0
  0
TEXT
  5
E044
330
DFD4
100
AcDbEntity
  8
0
100
AcDbText
 10
542.55
 20
23.45
 30
0.0
 40
3.5
  1
Loop name
 11
0.0
 21
0.0
 31
0.0
100
AcDbText
  0
POLYLINE
  5
E045
330
DFD4
100
AcDbEntity
  8
0
 62
     7
100
AcDb2dPolyline
 66
     1
 10
0.0
 20
0.0
 30
0.0
  0
VERTEX
  5
E046
330
E045
100
AcDbEntity
  8
0
 62
     7
100
AcDbVertex
100
AcDb2dVertex
 10
537.79
 20
32.67
 30
0.0
  0
VERTEX
  5
E047
330
E045
100
AcDbEntity
  8
0
 62
     7
100
AcDbVertex
100
AcDb2dVertex
 10
537.79
 20
0.14
 30
0.0
  0
SEQEND
  5
E048
330
E045
100
AcDbEntity
  8
0
 62
     7
  0
TEXT
  5
E049
330
DFD4
100
AcDbEntity
  8
0
100
AcDbText
 10
474.51
 20
22.77
 30
0.0
 40
4.0
  1
Tag
 11
0.0
 21
0.0
 31
0.0
100
AcDbText
  0
POLYLINE
  5
E04A
330
DFD4
100
AcDbEntity
  8
0
 62
     7
100
AcDb2dPolyline
 66
     1
 10
0.0
 20
0.0
 30
0.0
  0
VERTEX
  5
E04B
330
E04A
100
AcDbEntity
  8
0
 62
     7
100
AcDbVertex
100
AcDb2dVertex
 10
470.8
 20
32.67
 30
0.0
  0
VERTEX
  5
E04C
330
E04A
100
AcDbEntity
  8
0
 62
     7
100
AcDbVertex
100
AcDb2dVertex
 10
470.8
 20
0.14
 30
0.0
  0
SEQEND
  5
E04D
330
E04A
100
AcDbEntity
  8
0
 62
     7
  0
POLYLINE
  5
E04E
330
DFD4
100
AcDbEntity
  8
0
 62
     7
100
AcDb2dPolyline
 66
     1
 10
0.0
 20
0.0
 30
0.0
 70
     1
  0
VERTEX
  5
E04F
330
E04E
100
AcDbEntity
  8
0
 62
     7
100
AcDbVertex
100
AcDb2dVertex
 10
0.0
 20
0.0
 30
0.0
  0
VERTEX
  5
E050
330
E04E
100
AcDbEntity
  8
0
 62
     7
100
AcDbVertex
100
AcDb2dVertex
 10
640.0
 20
0.0
 30
0.0
  0
VERTEX
  5
E051
330
E04E
100
AcDbEntity
  8
0
 62
     7
100
AcDbVertex
100
AcDb2dVertex
 10
640.0
 20
425.0
 30
0.0
  0
VERTEX
  5
E052
330
E04E
100
AcDbEntity
  8
0
 62
     7
100
AcDbVertex
100
AcDb2dVertex
 10
0.0
 20
425.0
 30
0.0
  0
SEQEND
  5
E053
330
E04E
100
AcDbEntity
  8
0
 62
     7
  0
POLYLINE
  5
E054
330
DFD4
100
AcDbEntity
  8
0
 62
     7
100
AcDb2dPolyline
 66
     1
 10
0.0
 20
0.0
 30
0.0
  0
VERTEX
  5
E055
330
E054
100
AcDbEntity
  8
0
 62
     7
100
AcDbVertex
100
AcDb2dVertex
 10
0.0
 20
33.0
 30
0.0
  0
VERTEX
  5
E056
330
E054
100
AcDbEntity
  8
0
 62
     7
100
AcDbVertex
100
AcDb2dVertex
 10
640.0
 20
33.0
 30
0.0
  0
SEQEND
  5
E057
330
E054
100
AcDbEntity
  8
0
 62
     7
  0
LINE
  5
E058
330
DFD4
100
AcDbEntity
  8
0
100
AcDbLine
 39
0.2
 10
85.24
 20
15.56
 30
0.0
 11
180.37
 21
15.56
 31
0.0
  0
TEXT
  5
E059
330
DFD4
100
AcDbEntity
  8
0
100
AcDbText
 10
327.97
 20
22.77
 30
0.0
 40
4.0
  1
Department
 11
0.0
 21
0.0
 31
0.0
100
AcDbText
  0
POLYLINE
  5
E05A
330
DFD4
100
AcDbEntity
  8
0
 62
     7
100
AcDb2dPolyline
 66
     1
 10
0.0
 20
0.0
 30
0.0
  0
VERTEX
  5
E05B
330
E05A
100
AcDbEntity
  8
0
 62
     7
100
AcDbVertex
100
AcDb2dVertex
 10
325.3
 20
32.67
 30
0.0
  0
VERTEX
  5
E05C
330
E05A
100
AcDbEntity
  8
0
 62
     7
100
AcDbVertex
100
AcDb2dVertex
 10
325.3
 20
0.14
 30
0.0
  0
SEQEND
  5
E05D
330
E05A
100
AcDbEntity
  8
0
 62
     7
  0
TEXT
  5
E05E
330
DFD4
100
AcDbEntity
  8
0
100
AcDbText
 10
182.78
 20
23.77
 30
0.0
 40
4.0
  1
Customer
 11
0.0
 21
0.0
 31
0.0
100
AcDbText
  0
POLYLINE
  5
E05F
330
DFD4
100
AcDbEntity
  8
0
 62
     7
100
AcDb2dPolyline
 66
     1
 10
0.0
 20
0.0
 30
0.0
  0
VERTEX
  5
E060
330
E05F
100
AcDbEntity
  8
0
 62
     7
100
AcDbVertex
100
AcDb2dVertex
 10
180.43
 20
33.2
 30
0.0
  0
VERTEX
  5
E061
330
E05F
100
AcDbEntity
  8
0
 62
     7
100
AcDbVertex
100
AcDb2dVertex
 10
180.43
 20
0.02
 30
0.0
  0
SEQEND
  5
E062
330
E05F
100
AcDbEntity
  8
0
 62
     7
  0
POLYLINE
  5
E063
330
DFD4
100
AcDbEntity
  8
0
 62
     7
100
AcDb2dPolyline
 66
     1
 10
0.0
 20
0.0
 30
0.0
  0
VERTEX
  5
E064
330
E063
100
AcDbEntity
  8
0
 62
     7
100
AcDbVertex
100
AcDb2dVertex
 10
143.42
 20
33.0
 30
0.0
  0
VERTEX
  5
E065
330
E063
100
AcDbEntity
  8
0
 62
     7
100
AcDbVertex
100
AcDb2dVertex
 10
143.42
 20
0.02
 30
0.0
  0
SEQEND
  5
E066
330
E063
100
AcDbEntity
  8
0
 62
     7
  0
TEXT
  5
E067
330
DFD4
100
AcDbEntity
  8
0
100
AcDbText
 10
87.62
 20
24.77
 30
0.0
 40
4.0
  1
Planner
 11
0.0
 21
0.0
 31
0.0
100
AcDbText
  0
POLYLINE
  5
E068
330
DFD4
100
AcDbEntity
  8
0
 62
     7
100
AcDb2dPolyline
 66
     1
 10
0.0
 20
0.0
 30
0.0
  0
VERTEX
  5
E069
330
E068
100
AcDbEntity
  8
0
 62
     7
100
AcDbVertex
100
AcDb2dVertex
 10
85.16
 20
32.99
 30
0.0
  0
VERTEX
  5
E06A
330
E068
100
AcDbEntity
  8
0
 62
     7
100
AcDbVertex
100
AcDb2dVertex
 10
85.16
 20
0.02
 30
0.0
  0
SEQEND
  5
E06B
330
E068
100
AcDbEntity
  8
0
 62
     7
  0
TEXT
  5
E06C
330
DFD4
100
AcDbEntity
  8
0
100
AcDbText
 10
87.7
 20
8.77
 30
0.0
 40
4.0
  1
Modification
 11
0.0
 21
0.0
 31
0.0
100
AcDbText
  0
ENDBLK
  5
DFAC
330
DFD4
100
AcDbEntity
  8
0
100
AcDbBlockEnd
  0
BLOCK
  5
E024
330
E023
100
AcDbEntity
  8
0
 62
     7
100
AcDbBlockBegin
  2
COMPANY
 70
   100
 10
0.0
 20
0.0
 30
0.0
  3
COMPANY
  1
COMPANY.dwg
  0
ENDBLK
  5
E025
330
E023
100
AcDbEntity
  8
0
 62
     7
100
AcDbBlockEnd
  0
BLOCK
  5
E02C
330
E02B
100
AcDbEntity
  8
0
 62
     7
100
AcDbBlockBegin
  2
CUSTOMER
 70
   100
 10
0.0
 20
0.0
 30
0.0
  3
CUSTOMER
  1
CUSTOMER.dwg
  0
ENDBLK
  5
E02D
330
E02B
100
AcDbEntity
  8
0
 62
     7
100
AcDbBlockEnd
  0
BLOCK
  5
E17C
330
E11D
100
AcDbEntity
  8
0
100
AcDbBlockBegin
  2
-IO_TI4
 70
     2
 10
0.0
 20
0.0
 30
0.0
  3
-IO_TI4
  1
-IO_TI4
  0
ATTDEF
  5
E11E
330
E11D
100
AcDbEntity
  8
0
 62
     7
100
AcDbText
 10
-77.25
 20
16.33
 30
0.0
 40
5.0
  1
pr:TAG_CODE.I
  7
TXT
 72
     4
 11
-46.0
 21
18.0
 31
0.0
100
AcDbAttributeDefinition
  3
Input module name
  2
$NAME
 70
     0
  0
ATTDEF
  5
E120
330
E11D
100
AcDbEntity
  8
0
 62
     7
100
AcDbText
 10
-29.17
 20
25.5
 30
0.0
 40
5.0
  1
TI4
  7
TXT
 72
     4
 11
-22.5
 21
28.0
 31
0.0
100
AcDbAttributeDefinition
  3
Card type
  2
$IOCARDTYP
 70
     0
  0
ATTDEF
  5
E121
330
E11D
100
AcDbEntity
  8
0
 62
     7
100
AcDbText
 10
-30.0
 20
50.0
 30
0.0
 40
4.0
  1

  7
TXT
 11
0.0
 21
0.0
 31
0.0
100
AcDbAttributeDefinition
  3
IO cabinet
  2
$IOCABINET
 70
     1
  0
ATTDEF
  5
E122
330
E11D
100
AcDbEntity
  8
0
 62
     7
100
AcDbText
 10
-55.33
 20
7.0
 30
0.0
 40
4.0
  1
2
  7
TXT
 72
     4
 11
-54.0
 21
9.0
 31
0.0
100
AcDbAttributeDefinition
  3
FBC slot (2-15)
  2
$FBC(2-15)
 70
     0
  0
ATTDEF
  5
E123
330
E11D
100
AcDbEntity
  8
0
 62
     7
100
AcDbText
 10
-41.33
 20
7.0
 30
0.0
 40
4.0
  1
0
  7
TXT
 72
     4
 11
-40.0
 21
9.0
 31
0.0
100
AcDbAttributeDefinition
  3
IBC number (0-15)
  2
$PIC(0-15)
 70
     0
  0
ATTDEF
  5
E124
330
E11D
100
AcDbEntity
  8
0
 62
     7
100
AcDbText
 10
-27.33
 20
7.0
 30
0.0
 40
4.0
  1
0
  7
TXT
 72
     4
 11
-26.0
 21
9.0
 31
0.0
100
AcDbAttributeDefinition
  3
Card place (0-15)
  2
$CARD(0-15)
 70
     0
  0
ATTDEF
  5
E125
330
E11D
100
AcDbEntity
  8
0
 62
     7
100
AcDbText
 10
-13.33
 20
7.0
 30
0.0
 40
4.0
  1
0
  7
TXT
 72
     4
 11
-12.0
 21
9.0
 31
0.0
100
AcDbAttributeDefinition
  3
Channel number (0-3)
  2
$CHANNEL(0-3)
 70
     0
  0
ATTDEF
  5
E126
330
E11D
100
AcDbEntity
  8
0
 62
     7
100
AcDbText
 10
-87.0
 20
-32.0
 30
0.0
 40
4.0
  1
&mi
  7
TXT
 11
0.0
 21
0.0
 31
0.0
100
AcDbAttributeDefinition
  3
Minimum
  2
$PAR1
 70
     1
  0
ATTDEF
  5
E127
330
E11D
100
AcDbEntity
  8
0
 62
     7
100
AcDbText
 10
-87.0
 20
-38.0
 30
0.0
 40
4.0
  1
&ma
  7
TXT
 11
0.0
 21
0.0
 31
0.0
100
AcDbAttributeDefinition
  3
Maximum
  2
$PAR2
 70
     1
  0
ATTDEF
  5
E128
330
E11D
100
AcDbEntity
  8
0
 62
     7
100
AcDbText
 10
-87.0
 20
-44.0
 30
0.0
 40
4.0
  1
0
  7
TXT
 11
0.0
 21
0.0
 31
0.0
100
AcDbAttributeDefinition
  3
Channel measurement mode
  2
$PAR3
 70
     1
  0
ATTDEF
  5
E129
330
E11D
100
AcDbEntity
  8
0
 62
     7
100
AcDbText
 10
-87.0
 20
-50.0
 30
0.0
 40
4.0
  1
0
  7
TXT
 11
0.0
 21
0.0
 31
0.0
100
AcDbAttributeDefinition
  3
Behavior if "EXT" is on
  2
$PAR4
 70
     3
  0
ATTDEF
  5
E12A
330
E11D
100
AcDbEntity
  8
0
 62
     7
100
AcDbText
 10
-87.0
 20
-56.0
 30
0.0
 40
4.0
  1
7
  7
TXT
 11
0.0
 21
0.0
 31
0.0
100
AcDbAttributeDefinition
  3
Filter
  2
$PAR5
 70
     1
  0
ATTDEF
  5
E12B
330
E11D
100
AcDbEntity
  8
0
 62
     7
100
AcDbText
 10
-87.0
 20
-62.0
 30
0.0
 40
4.0
  1
""
  7
TXT
 11
0.0
 21
0.0
 31
0.0
100
AcDbAttributeDefinition
  3
Additional parameter
  2
$PAR6
 70
     1
  0
ATTDEF
  5
E12C
330
E11D
100
AcDbEntity
  8
0
 62
     7
100
AcDbText
 10
-87.0
 20
-68.0
 30
0.0
 40
4.0
  1
0
  7
TXT
 11
0.0
 21
0.0
 31
0.0
100
AcDbAttributeDefinition
  3
Input fault control
  2
$PAR7
 70
     1
  0
ATTDEF
  5
E12D
330
E11D
100
AcDbEntity
  8
0
 62
     7
100
AcDbText
 10
-87.0
 20
-74.0
 30
0.0
 40
4.0
  1
0
  7
TXT
 11
0.0
 21
0.0
 31
0.0
100
AcDbAttributeDefinition
  3
Line fault control
  2
$PAR8
 70
     1
  0
ATTDEF
  5
E12E
330
E11D
100
AcDbEntity
  8
0
 62
     7
100
AcDbText
 10
-87.0
 20
-80.0
 30
0.0
 40
4.0
  1
4
  7
TXT
 11
0.0
 21
0.0
 31
0.0
100
AcDbAttributeDefinition
  3
Measurement update method
  2
$PAR9
 70
     1
  0
ATTDEF
  5
E12F
330
E11D
100
AcDbEntity
  8
0
 62
     7
100
AcDbText
 10
-52.33
 20
-12.0
 30
0.0
 40
4.0
  1
-50 - 400 C
  7
TXT
 72
     4
 11
-31.0
 21
-10.0
 31
0.0
100
AcDbAttributeDefinition
  3
Scale and unit
  2
$SCALE
 70
     0
  0
ATTDEF
  5
E130
330
E11D
100
AcDbEntity
  8
0
 62
     7
100
AcDbText
 10
-87.0
 20
-22.0
 30
0.0
 40
4.0
  1

  7
TXT
 11
0.0
 21
0.0
 31
0.0
100
AcDbAttributeDefinition
  3
Comment text
  2
$COMMENT
 70
     0
  0
ATTDEF
  5
E131
330
E11D
100
AcDbEntity
  8
0
 62
     7
100
AcDbText
 10
-12.67
 20
-1.5
 30
0.0
 40
4.0
  1
:m
  7
TXT
 72
     2
 11
-6.0
 21
-1.5
 31
0.0
100
AcDbAttributeDefinition
  3

  2
M>ANA
 70
     2
  0
ATTDEF
  5
E132
330
E11D
100
AcDbEntity
  8
0
 62
     7
100
AcDbText
 10
-30.0
 20
35.0
 30
0.0
 40
4.0
  1
TI4
  7
TXT
 11
0.0
 21
0.0
 31
0.0
100
AcDbAttributeDefinition
  3

  2
$TYPE
 70
     3
  0
ATTDEF
  5
E133
330
E11D
100
AcDbEntity
  8
0
 62
     7
100
AcDbText
 10
-30.0
 20
40.0
 30
0.0
 40
4.0
  1
mir
  7
TXT
 11
0.0
 21
0.0
 31
0.0
100
AcDbAttributeDefinition
  3

  2
$ALTYPE
 70
     3
  0
ATTDEF
  5
E134
330
E11D
100
AcDbEntity
  8
0
 62
     7
100
AcDbText
 10
-30.0
 20
45.0
 30
0.0
 40
4.0
  1
1ioti4
  7
TXT
 11
0.0
 21
0.0
 31
0.0
100
AcDbAttributeDefinition
  3

  2
$IOFBLOCK
 70
     3
  0
ATTDEF
  5
E135
330
E11D
100
AcDbEntity
  8
0
 62
     7
100
AcDbText
 10
-30.0
 20
-32.0
 30
0.0
 40
4.0
  1

  7
TXT
 11
0.0
 21
0.0
 31
0.0
100
AcDbAttributeDefinition
  3
-- Simulation parameters --
  2
$SIM_HEADER
 70
     1
  0
ATTDEF
  5
E136
330
E11D
100
AcDbEntity
  8
0
 62
     7
100
AcDbText
 10
-30.0
 20
-38.0
 30
0.0
 40
4.0
  1
io_sim_m_ana
  7
TXT
 11
0.0
 21
0.0
 31
0.0
100
AcDbAttributeDefinition
  3
Basename1
  2
$SIM_BASENAME1
 70
     3
  0
ATTDEF
  5
E137
330
E11D
100
AcDbEntity
  8
0
 62
     7
100
AcDbText
 10
-30.0
 20
-44.0
 30
0.0
 40
4.0
  1
ce_sim_ana
  7
TXT
 11
0.0
 21
0.0
 31
0.0
100
AcDbAttributeDefinition
  3
Basename2
  2
$SIM_BASENAME2
 70
     3
  0
ATTDEF
  5
E138
330
E11D
100
AcDbEntity
  8
0
 62
     7
100
AcDbText
 10
-30.0
 20
-50.0
 30
0.0
 40
4.0
  1
al_sim
  7
TXT
 11
0.0
 21
0.0
 31
0.0
100
AcDbAttributeDefinition
  3
Basename3
  2
$SIM_BASENAME3
 70
     3
  0
ATTDEF
  5
E139
330
E11D
100
AcDbEntity
  8
0
 62
     7
100
AcDbText
 10
-30.0
 20
-56.0
 30
0.0
 40
4.0
  1
MIO
  7
TXT
 11
0.0
 21
0.0
 31
0.0
100
AcDbAttributeDefinition
  3
IO type
  2
$SIM_IOTYPE
 70
     3
  0
ATTDEF
  5
E13A
330
E11D
100
AcDbEntity
  8
0
 62
     7
100
AcDbText
 10
-30.0
 20
-62.0
 30
0.0
 40
4.0
  1
0
  7
TXT
 11
0.0
 21
0.0
 31
0.0
100
AcDbAttributeDefinition
  3
0=input, 1=output
  2
$SIM_TYPE
 70
     3
  0
ATTDEF
  5
E13B
330
E11D
100
AcDbEntity
  8
0
 62
     7
100
AcDbText
 10
-30.0
 20
-68.0
 30
0.0
 40
4.0
  1
TI4
  7
TXT
 11
0.0
 21
0.0
 31
0.0
100
AcDbAttributeDefinition
  3
Interface type, default
  2
$SIM_INTERFACEDEFAULTTYPE
 70
     3
  0
ATTDEF
  5
E13C
330
E11D
100
AcDbEntity
  8
0
 62
     7
100
AcDbText
 10
-30.0
 20
-74.0
 30
0.0
 40
4.0
  1
ana
  7
TXT
 11
0.0
 21
0.0
 31
0.0
100
AcDbAttributeDefinition
  3
Simulation value type
  2
$SIM_VALUETYPE
 70
     3
  0
ATTDEF
  5
E13D
330
E11D
100
AcDbEntity
  8
0
 62
     7
100
AcDbText
 10
-30.0
 20
-80.0
 30
0.0
 40
4.0
  1
$PAR1
  7
TXT
 11
0.0
 21
0.0
 31
0.0
100
AcDbAttributeDefinition
  3
Min attribute
  2
$SIM_MIN_ATTR
 70
     3
  0
ATTDEF
  5
E13E
330
E11D
100
AcDbEntity
  8
0
 62
     7
100
AcDbText
 10
-30.0
 20
-86.0
 30
0.0
 40
4.0
  1
$PAR2
  7
TXT
 11
0.0
 21
0.0
 31
0.0
100
AcDbAttributeDefinition
  3
Max attribute
  2
$SIM_MAX_ATTR
 70
     3
  0
ATTDEF
  5
E13F
330
E11D
100
AcDbEntity
  8
0
 62
     7
100
AcDbText
 10
-30.0
 20
-92.0
 30
0.0
 40
4.0
  1
DefSimGroup
  7
TXT
 11
0.0
 21
0.0
 31
0.0
100
AcDbAttributeDefinition
  3
Simulation Group
  2
$SIM_SIMGRP
 70
     1
  0
ATTDEF
  5
E140
330
E11D
100
AcDbEntity
  8
0
 62
     7
100
AcDbText
 10
-30.0
 20
-98.0
 30
0.0
 40
4.0
  1
1
  7
TXT
 11
0.0
 21
0.0
 31
0.0
100
AcDbAttributeDefinition
  3
Enable simulation
  2
$SIM_PERMITTED
 70
     1
  0
ATTDEF
  5
E141
330
E11D
100
AcDbEntity
  8
0
 62
     7
100
AcDbText
 10
-30.0
 20
-104.0
 30
0.0
 40
4.0
  1

  7
TXT
 11
0.0
 21
0.0
 31
0.0
100
AcDbAttributeDefinition
  3
Location
  2
$SIM_LOCATION
 70
     1
  0
ATTDEF
  5
E142
330
E11D
100
AcDbEntity
  8
0
 62
     7
100
AcDbText
 10
-30.0
 20
-110.0
 30
0.0
 40
4.0
  1

  7
TXT
 11
0.0
 21
0.0
 31
0.0
100
AcDbAttributeDefinition
  3
Document link 1
  2
$SIM_DOCLINK1
 70
     1
  0
ATTDEF
  5
E143
330
E11D
100
AcDbEntity
  8
0
 62
     7
100
AcDbText
 10
-30.0
 20
-116.0
 30
0.0
 40
4.0
  1

  7
TXT
 11
0.0
 21
0.0
 31
0.0
100
AcDbAttributeDefinition
  3
Document link 2
  2
$SIM_DOCLINK2
 70
     1
  0
ATTDEF
  5
E144
330
E11D
100
AcDbEntity
  8
0
 62
     7
100
AcDbText
 10
-30.0
 20
-122.0
 30
0.0
 40
4.0
  1

  7
TXT
 11
0.0
 21
0.0
 31
0.0
100
AcDbAttributeDefinition
  3
Document link 3
  2
$SIM_DOCLINK3
 70
     1
  0
ATTDEF
  5
E145
330
E11D
100
AcDbEntity
  8
0
 62
     7
100
AcDbText
 10
-30.0
 20
-128.0
 30
0.0
 40
4.0
  1

  7
TXT
 11
0.0
 21
0.0
 31
0.0
100
AcDbAttributeDefinition
  3
Document link 4
  2
$SIM_DOCLINK4
 70
     1
  0
ATTDEF
  5
E146
330
E11D
100
AcDbEntity
  8
0
 62
     7
100
AcDbText
 10
-30.0
 20
-134.0
 30
0.0
 40
4.0
  1

  7
TXT
 11
0.0
 21
0.0
 31
0.0
100
AcDbAttributeDefinition
  3
Document link 5
  2
$SIM_DOCLINK5
 70
     1
  0
ATTDEF
  5
E147
330
E11D
100
AcDbEntity
  8
0
 62
     7
100
AcDbText
 10
-30.0
 20
-140.0
 30
0.0
 40
4.0
  1

  7
TXT
 11
0.0
 21
0.0
 31
0.0
100
AcDbAttributeDefinition
  3
IO-mapping
  2
$SIM_IOMAPPING
 70
     1
  0
ATTDEF
  5
E148
330
E11D
100
AcDbEntity
  8
0
 62
     7
100
AcDbText
 10
-30.0
 20
-146.0
 30
0.0
 40
4.0
  1

  7
TXT
 11
0.0
 21
0.0
 31
0.0
100
AcDbAttributeDefinition
  3
Device tag [*]
  2
$SIM_DEVICETAG
 70
     1
  0
ATTDEF
  5
E149
330
E11D
100
AcDbEntity
  8
0
 62
     7
100
AcDbText
 10
-30.0
 20
-152.0
 30
0.0
 40
4.0
  1

  7
TXT
 11
0.0
 21
0.0
 31
0.0
100
AcDbAttributeDefinition
  3
Related Tags [*]
  2
$SIM_TAG
 70
     1
  0
ATTDEF
  5
E14A
330
E11D
100
AcDbEntity
  8
0
 62
     7
100
AcDbText
 10
-30.0
 20
-158.0
 30
0.0
 40
4.0
  1
60
  7
TXT
 11
0.0
 21
0.0
 31
0.0
100
AcDbAttributeDefinition
  3
Cycle time for func.gen. [*]
  2
$SIM_SCANRATE
 70
     1
  0
ATTDEF
  5
E14B
330
E11D
100
AcDbEntity
  8
0
 62
     7
100
AcDbText
 10
-30.0
 20
-164.0
 30
0.0
 40
4.0
  1
2
  7
TXT
 11
0.0
 21
0.0
 31
0.0
100
AcDbAttributeDefinition
  3
Number of decimals [*]
  2
$SIM_DESC
 70
     1
  0
ATTDEF
  5
E14C
330
E11D
100
AcDbEntity
  8
0
 62
     7
100
AcDbText
 10
-30.0
 20
-170.0
 30
0.0
 40
4.0
  1

  7
TXT
 11
0.0
 21
0.0
 31
0.0
100
AcDbAttributeDefinition
  3
Interface type [*]
  2
$SIM_INTERFACETYPE
 70
     1
  0
ATTDEF
  5
E14D
330
E11D
100
AcDbEntity
  8
0
 62
     7
100
AcDbText
 10
-30.0
 20
-176.0
 30
0.0
 40
4.0
  1

  7
TXT
 11
0.0
 21
0.0
 31
0.0
100
AcDbAttributeDefinition
  3
Additional info
  2
$SIM_ADDINFO
 70
     1
  0
ATTDEF
  5
E14E
330
E11D
100
AcDbEntity
  8
0
 62
     7
100
AcDbText
 10
-30.0
 20
-182.0
 30
0.0
 40
4.0
  1

  7
TXT
 11
0.0
 21
0.0
 31
0.0
100
AcDbAttributeDefinition
  3
Comment
  2
$SIM_COMMENTS
 70
     1
  0
LINE
  5
E14F
330
E11D
100
AcDbEntity
  8
0
 62
     7
100
AcDbLine
 10
-89.0
 20
23.0
 30
0.0
 11
-2.0
 21
23.0
 31
0.0
  0
LINE
  5
E150
330
E11D
100
AcDbEntity
  8
0
 62
     7
100
AcDbLine
 10
-89.0
 20
13.0
 30
0.0
 11
-2.0
 21
13.0
 31
0.0
  0
ARC
  5
E151
330
E11D
100
AcDbEntity
  8
0
 62
     7
100
AcDbCircle
 10
-50.62
 20
25.94
 30
0.0
 40
8.88
100
AcDbArc
 50
127.27
 51
199.33
  0
TEXT
  5
E152
330
E11D
100
AcDbEntity
  8
0
 62
     7
100
AcDbText
 10
-87.0
 20
-9.5
 30
0.0
 40
3.0
  1
Scale and
  7
TXT
 11
0.0
 21
0.0
 31
0.0
100
AcDbText
  0
TEXT
  5
E153
330
E11D
100
AcDbEntity
  8
0
 62
     7
100
AcDbText
 10
-87.0
 20
-13.5
 30
0.0
 40
3.0
  1
unit
  7
TXT
 11
0.0
 21
0.0
 31
0.0
100
AcDbText
  0
LINE
  5
E154
330
E11D
100
AcDbEntity
  8
0
 62
     7
100
AcDbLine
 10
-61.0
 20
-5.0
 30
0.0
 11
-61.0
 21
-15.0
 31
0.0
  0
POLYLINE
  5
E155
330
E11D
100
AcDbEntity
  8
0
 62
     7
100
AcDb2dPolyline
 66
     1
 10
0.0
 20
0.0
 30
0.0
  0
VERTEX
  5
E156
330
E155
100
AcDbEntity
  8
0
 62
     7
100
AcDbVertex
100
AcDb2dVertex
 10
-89.0
 20
33.0
 30
0.0
  0
VERTEX
  5
E157
330
E155
100
AcDbEntity
  8
0
 62
     7
100
AcDbVertex
100
AcDb2dVertex
 10
-2.0
 20
33.0
 30
0.0
  0
VERTEX
  5
E158
330
E155
100
AcDbEntity
  8
0
 62
     7
100
AcDbVertex
100
AcDb2dVertex
 10
-2.0
 20
-15.0
 30
0.0
  0
VERTEX
  5
E159
330
E155
100
AcDbEntity
  8
0
 62
     7
100
AcDbVertex
100
AcDb2dVertex
 10
-89.0
 20
-15.0
 30
0.0
  0
VERTEX
  5
E15A
330
E155
100
AcDbEntity
  8
0
 62
     7
100
AcDbVertex
100
AcDb2dVertex
 10
-89.0
 20
33.0
 30
0.0
  0
SEQEND
  5
E15B
330
E155
100
AcDbEntity
  8
0
 62
     7
  0
TEXT
  5
E15C
330
E11D
100
AcDbEntity
  8
0
 62
     7
100
AcDbText
 10
-81.33
 20
25.25
 30
0.0
 40
5.5
  1
MIO
  7
TXT
 72
     4
 11
-74.0
 21
28.0
 31
0.0
100
AcDbText
  0
TEXT
  5
E15D
330
E11D
100
AcDbEntity
  8
0
 62
     7
100
AcDbText
 10
-53.33
 20
26.0
 30
0.0
 40
4.0
  1
M80
  7
TXT
 72
     4
 11
-48.0
 21
28.0
 31
0.0
100
AcDbText
  0
TEXT
  5
E15E
330
E11D
100
AcDbEntity
  8
0
 62
     7
100
AcDbText
 10
-87.0
 20
7.0
 30
0.0
 40
4.0
  1
Address
  7
TXT
 11
-87.0
 21
9.0
 31
0.0
100
AcDbText
 73
     2
  0
LINE
  5
E15F
330
E11D
100
AcDbEntity
  8
0
 62
     7
100
AcDbLine
 10
-61.0
 20
13.0
 30
0.0
 11
-61.0
 21
5.0
 31
0.0
  0
TEXT
  5
E160
330
E11D
100
AcDbEntity
  8
0
 62
     7
100
AcDbText
 10
-47.83
 20
6.92
 30
0.0
 40
5.0
  1
:
  7
TXT
 72
     4
 11
-47.0
 21
9.0
 31
0.0
100
AcDbText
  0
TEXT
  5
E161
330
E11D
100
AcDbEntity
  8
0
 62
     7
100
AcDbText
 10
-33.83
 20
6.92
 30
0.0
 40
5.0
  1
:
  7
TXT
 72
     4
 11
-33.0
 21
9.0
 31
0.0
100
AcDbText
  0
TEXT
  5
E162
330
E11D
100
AcDbEntity
  8
0
 62
     7
100
AcDbText
 10
-19.83
 20
6.92
 30
0.0
 40
5.0
  1
:
  7
TXT
 72
     4
 11
-19.0
 21
9.0
 31
0.0
100
AcDbText
  0
LINE
  5
E163
330
E11D
100
AcDbEntity
  8
0
 62
     7
100
AcDbLine
 10
-89.0
 20
5.0
 30
0.0
 11
-2.0
 21
5.0
 31
0.0
  0
SOLID
  5
E164
330
E11D
100
AcDbEntity
  8
0
 62
     3
100
AcDbTrace
 10
-3.96
 20
1.96
 30
0.0
 11
-0.04
 21
1.96
 31
0.0
 12
-3.96
 22
-1.96
 32
0.0
 13
-0.04
 23
-1.96
 33
0.0
  0
POLYLINE
  5
E165
330
E11D
100
AcDbEntity
  8
0
 62
     7
100
AcDb2dPolyline
 66
     1
 10
0.0
 20
0.0
 30
0.0
  0
VERTEX
  5
E166
330
E165
100
AcDbEntity
  8
0
 62
     7
100
AcDbVertex
100
AcDb2dVertex
 10
-4.0
 20
2.0
 30
0.0
  0
VERTEX
  5
E167
330
E165
100
AcDbEntity
  8
0
 62
     7
100
AcDbVertex
100
AcDb2dVertex
 10
0.0
 20
2.0
 30
0.0
  0
VERTEX
  5
E168
330
E165
100
AcDbEntity
  8
0
 62
     7
100
AcDbVertex
100
AcDb2dVertex
 10
0.0
 20
-2.0
 30
0.0
  0
VERTEX
  5
E169
330
E165
100
AcDbEntity
  8
0
 62
     7
100
AcDbVertex
100
AcDb2dVertex
 10
-4.0
 20
-2.0
 30
0.0
  0
VERTEX
  5
E16A
330
E165
100
AcDbEntity
  8
0
 62
     7
100
AcDbVertex
100
AcDb2dVertex
 10
-4.0
 20
2.0
 30
0.0
  0
SEQEND
  5
E16B
330
E165
100
AcDbEntity
  8
0
 62
     7
  0
TEXT
  5
E16C
330
E11D
100
AcDbEntity
  8
0
 62
     7
100
AcDbText
 10
-65.83
 20
-2.0
 30
0.0
 40
4.0
  1
Measurement
  7
TXT
 72
     4
 11
-44.5
 21
0.0
 31
0.0
100
AcDbText
  0
LINE
  5
E16D
330
E11D
100
AcDbEntity
  8
0
 62
     7
100
AcDbLine
 10
-89.0
 20
-5.0
 30
0.0
 11
-2.0
 21
-5.0
 31
0.0
  0
ENDBLK
  5
E17D
330
E11D
100
AcDbEntity
  8
0
100
AcDbBlockEnd
  0
BLOCK
  5
E1D5
330
E1A3
100
AcDbEntity
  8
0
100
AcDbBlockBegin
  2
AM_IN
 70
     2
 10
0.0
 20
0.0
 30
0.0
  3
AM_IN
  1
AM_IN
  0
ATTDEF
  5
E1A4
330
E1A3
100
AcDbEntity
  8
0
100
AcDbText
 10
25.01
 20
-0.59
 30
0.0
 40
4.0
  1
am
 11
0.0
 21
0.0
 31
0.0
100
AcDbAttributeDefinition
  3

  2
$NAME
 70
     3
  0
ATTDEF
  5
E1A6
330
E1A3
100
AcDbEntity
  8
0
100
AcDbText
 10
30.57
 20
12.95
 30
0.0
 40
4.0
  1
1
 72
     2
 11
32.57
 21
12.95
 31
0.0
100
AcDbAttributeDefinition
  3
EXECUTION ORDER
  2
$ORDER
 70
     0
  0
ATTDEF
  5
E1A7
330
E1A3
100
AcDbEntity
  8
0
100
AcDbText
 10
13.23
 20
24.78
 30
0.0
 40
4.0
  1
pr:TAG_CODE
 72
     4
 11
34.56
 21
26.11
 31
0.0
100
AcDbAttributeDefinition
  3
DIRECT ACCESS PORT NAME
  2
$PORT
 70
     0
  0
ATTDEF
  5
E1A8
330
E1A3
100
AcDbEntity
  8
0
100
AcDbText
 10
55.73
 20
14.73
 30
0.0
 40
4.0
  1
1
 11
0.0
 21
0.0
 31
0.0
100
AcDbAttributeDefinition
  3
hyst HYSTERESIS
  2
HYST=
 70
     1
  0
ATTDEF
  5
E1A9
330
E1A3
100
AcDbEntity
  8
0
100
AcDbText
 10
55.93
 20
9.81
 30
0.0
 40
4.0
  1
100.0
 11
0.0
 21
0.0
 31
0.0
100
AcDbAttributeDefinition
  3
hh HIGHER HIGH LIMIT
  2
HH<
 70
     1
  0
ATTDEF
  5
E1AA
330
E1A3
100
AcDbEntity
  8
0
100
AcDbText
 10
55.93
 20
2.86
 30
0.0
 40
4.0
  1
100.0
 11
0.0
 21
0.0
 31
0.0
100
AcDbAttributeDefinition
  3
h  HIGH LIMIT
  2
H<
 70
     1
  0
ATTDEF
  5
E1AB
330
E1A3
100
AcDbEntity
  8
0
100
AcDbText
 10
55.73
 20
-3.68
 30
0.0
 40
4.0
  1
0.0
 11
0.0
 21
0.0
 31
0.0
100
AcDbAttributeDefinition
  3
l  LOW LIMIT
  2
L<
 70
     1
  0
ATTDEF
  5
E1AC
330
E1A3
100
AcDbEntity
  8
0
100
AcDbText
 10
55.73
 20
-10.62
 30
0.0
 40
4.0
  1
0.0
 11
0.0
 21
0.0
 31
0.0
100
AcDbAttributeDefinition
  3
ll LOWER LOW LIMIT
  2
LL<
 70
     1
  0
ATTDEF
  5
E1AD
330
E1A3
100
AcDbEntity
  8
0
100
AcDbText
 10
2.84
 20
-2.04
 30
0.0
 40
4.0
  1
av
 11
0.0
 21
0.0
 31
0.0
100
AcDbAttributeDefinition
  3

  2
AV<
 70
     2
  0
LWPOLYLINE
  5
E1AE
330
E1A3
100
AcDbEntity
  8
0
 62
     7
100
AcDbPolyline
 90
        4
 70
     1
 43
0.0
 10
0.0
 20
-15.0
 10
70.0
 20
-15.0
 10
70.0
 20
32.0
 10
0.0
 20
32.0
  0
LWPOLYLINE
  5
E1AF
330
E1A3
100
AcDbEntity
  8
0
 62
     7
100
AcDbPolyline
 90
        2
 70
     0
 43
0.0
 10
0.0
 20
22.0
 10
70.0
 20
22.0
  0
LWPOLYLINE
  5
E1B0
330
E1A3
100
AcDbEntity
  8
0
 62
     3
100
AcDbPolyline
 90
        2
 70
     1
 43
1.0
 10
-0.47
 20
-0.09
 42
1.0
 10
0.53
 20
-0.09
 42
1.0
  0
TEXT
  5
E1B1
330
E1A3
100
AcDbEntity
  8
0
100
AcDbText
 10
35.36
 20
12.95
 30
0.0
 40
4.0
  1
am
 11
0.0
 21
0.0
 31
0.0
100
AcDbText
  0
ENDBLK
  5
E1D6
330
E1A3
100
AcDbEntity
  8
0
100
AcDbBlockEnd
  0
BLOCK
  5
E261
330
E1F1
100
AcDbEntity
  8
0
100
AcDbBlockBegin
  2
-CE_AM
 70
     2
 10
0.0
 20
0.0
 30
0.0
  3
-CE_AM
  1
-CE_AM
  0
ATTDEF
  5
E1F2
330
E1F1
100
AcDbEntity
  8
0
 62
     7
100
AcDbText
 10
5.0
 20
-10.0
 30
0.0
 40
4.0
  1
TAG_CODE
 11
0.0
 21
0.0
 31
0.0
100
AcDbAttributeDefinition
  3
TAG MODULE NAME
  2
$NAME
 70
     1
  0
ATTDEF
  5
E1F4
330
E1F1
100
AcDbEntity
  8
0
 62
     7
100
AcDbText
 10
5.0
 20
-15.0
 30
0.0
 40
4.0
  1
A1
 11
0.0
 21
0.0
 31
0.0
100
AcDbAttributeDefinition
  3
CONTROL ROOM IDENTIFIER
  2
$CR
 70
     1
  0
ATTDEF
  5
E1F5
330
E1F1
100
AcDbEntity
  8
0
 62
     7
100
AcDbText
 10
5.0
 20
-20.0
 30
0.0
 40
4.0
  1

 11
0.0
 21
0.0
 31
0.0
100
AcDbAttributeDefinition
  3
NAME TEXT 1(14char)
  2
NAME1
 70
     1
  0
ATTDEF
  5
E1F6
330
E1F1
100
AcDbEntity
  8
0
 62
     7
100
AcDbText
 10
5.0
 20
-25.0
 30
0.0
 40
4.0
  1

 11
0.0
 21
0.0
 31
0.0
100
AcDbAttributeDefinition
  3
NAME TEXT 2(14char)
  2
NAME2
 70
     1
  0
ATTDEF
  5
E1F7
330
E1F1
100
AcDbEntity
  8
0
 62
     7
100
AcDbText
 10
5.0
 20
-30.0
 30
0.0
 40
4.0
  1

 11
0.0
 21
0.0
 31
0.0
100
AcDbAttributeDefinition
  3
NAME TEXT 3(20char)
  2
NAME3
 70
     1
  0
ATTDEF
  5
E1F8
330
E1F1
100
AcDbEntity
  8
0
 62
     7
100
AcDbText
 10
5.0
 20
-35.0
 30
0.0
 40
4.0
  1
TAG_CODE
 11
0.0
 21
0.0
 31
0.0
100
AcDbAttributeDefinition
  3
TAG_CODE 1(14char)
  2
POS1
 70
     1
  0
ATTDEF
  5
E1F9
330
E1F1
100
AcDbEntity
  8
0
 62
     7
100
AcDbText
 10
5.0
 20
-40.0
 30
0.0
 40
4.0
  1

 11
0.0
 21
0.0
 31
0.0
100
AcDbAttributeDefinition
  3
TAG_CODE 2(14char)
  2
POS2
 70
     1
  0
ATTDEF
  5
E1FA
330
E1F1
100
AcDbEntity
  8
0
 62
     7
100
AcDbText
 10
5.0
 20
-45.0
 30
0.0
 40
4.0
  1

 11
0.0
 21
0.0
 31
0.0
100
AcDbAttributeDefinition
  3
TAG_CODE 3(14char)
  2
POS3
 70
     1
  0
ATTDEF
  5
E1FB
330
E1F1
100
AcDbEntity
  8
0
 62
     7
100
AcDbText
 10
5.0
 20
-50.0
 30
0.0
 40
4.0
  1

 11
0.0
 21
0.0
 31
0.0
100
AcDbAttributeDefinition
  3
INFO DISP HIERARCHY CODE
  2
INFO
 70
     1
  0
ATTDEF
  5
E1FC
330
E1F1
100
AcDbEntity
  8
0
 62
     7
100
AcDbText
 10
5.0
 20
-55.0
 30
0.0
 40
4.0
  1
TAG_CODE
 11
0.0
 21
0.0
 31
0.0
100
AcDbAttributeDefinition
  3
OPERATING MODULE NAME
  2
OPTM
 70
     1
  0
ATTDEF
  5
E1FD
330
E1F1
100
AcDbEntity
  8
0
 62
     7
100
AcDbText
 10
5.0
 20
-60.0
 30
0.0
 40
4.0
  1
0
 11
0.0
 21
0.0
 31
0.0
100
AcDbAttributeDefinition
  3
MEASUREMENT MINIM VALUE
  2
SCMIN
 70
     1
  0
ATTDEF
  5
E1FE
330
E1F1
100
AcDbEntity
  8
0
 62
     7
100
AcDbText
 10
5.0
 20
-65.0
 30
0.0
 40
4.0
  1
100
 11
0.0
 21
0.0
 31
0.0
100
AcDbAttributeDefinition
  3
MEASUREMENT MAXIM VALUE
  2
SCMAX
 70
     1
  0
ATTDEF
  5
E1FF
330
E1F1
100
AcDbEntity
  8
0
 62
     7
100
AcDbText
 10
5.0
 20
-70.0
 30
0.0
 40
4.0
  1
0
 11
0.0
 21
0.0
 31
0.0
100
AcDbAttributeDefinition
  3
NUMBER OF DECIMALS(0-5)
  2
SCPREC
 70
     1
  0
ATTDEF
  5
E200
330
E1F1
100
AcDbEntity
  8
0
 62
     7
100
AcDbText
 10
5.0
 20
-75.0
 30
0.0
 40
4.0
  1
%
 11
0.0
 21
0.0
 31
0.0
100
AcDbAttributeDefinition
  3
UNIT OF MEAS VAL.(8char)
  2
UNIT
 70
     1
  0
ATTDEF
  5
E201
330
E1F1
100
AcDbEntity
  8
0
 62
     7
100
AcDbText
 10
5.0
 20
-80.0
 30
0.0
 40
4.0
  1
1
 11
0.0
 21
0.0
 31
0.0
100
AcDbAttributeDefinition
  3
OPERABILITY OF TAG
  2
POSOP
 70
     1
  0
ATTDEF
  5
E202
330
E1F1
100
AcDbEntity
  8
0
 62
     7
100
AcDbText
 10
5.0
 20
-85.0
 30
0.0
 40
4.0
  1
0
 11
0.0
 21
0.0
 31
0.0
100
AcDbAttributeDefinition
  3
OPERABILITY OF MEAS.
  2
MEOP
 70
     1
  0
ATTDEF
  5
E203
330
E1F1
100
AcDbEntity
  8
0
 62
     7
100
AcDbText
 10
3.0
 20
-5.5
 30
0.0
 40
4.0
  1
0
 11
0.0
 21
0.0
 31
0.0
100
AcDbAttributeDefinition
  3
HIERARCHY CODE OF DISPL
  2
$DID
 70
     0
  0
ATTDEF
  5
E204
330
E1F1
100
AcDbEntity
  8
0
 62
     7
100
AcDbText
 10
5.0
 20
-95.0
 30
0.0
 40
4.0
  1
0
 11
0.0
 21
0.0
 31
0.0
100
AcDbAttributeDefinition
  3
HH(0= ,1=ALM,2=MSG)
  2
--HH
 70
     1
  0
ATTDEF
  5
E205
330
E1F1
100
AcDbEntity
  8
0
 62
     7
100
AcDbText
 10
5.0
 20
-100.0
 30
0.0
 40
4.0
  1
1
 11
0.0
 21
0.0
 31
0.0
100
AcDbAttributeDefinition
  3
H (0= ,1=ALM,2=MSG)
  2
--H
 70
     1
  0
ATTDEF
  5
E206
330
E1F1
100
AcDbEntity
  8
0
 62
     7
100
AcDbText
 10
5.0
 20
-105.0
 30
0.0
 40
4.0
  1
1
 11
0.0
 21
0.0
 31
0.0
100
AcDbAttributeDefinition
  3
L (0= ,1=ALM,2=MSG)
  2
--L
 70
     1
  0
ATTDEF
  5
E207
330
E1F1
100
AcDbEntity
  8
0
 62
     7
100
AcDbText
 10
5.0
 20
-110.0
 30
0.0
 40
4.0
  1
0
 11
0.0
 21
0.0
 31
0.0
100
AcDbAttributeDefinition
  3
LL(0= ,1=ALM,2=MSG)
  2
--LL
 70
     1
  0
ATTDEF
  5
E208
330
E1F1
100
AcDbEntity
  8
0
 62
     7
100
AcDbText
 10
5.0
 20
-115.0
 30
0.0
 40
4.0
  1
1
 11
0.0
 21
0.0
 31
0.0
100
AcDbAttributeDefinition
  3
F (0= ,1=ALM,2=MSG)
  2
--F
 70
     1
  0
ATTDEF
  5
E209
330
E1F1
100
AcDbEntity
  8
0
 62
     7
100
AcDbText
 10
5.0
 20
-120.0
 30
0.0
 40
4.0
  1
0
 11
0.0
 21
0.0
 31
0.0
100
AcDbAttributeDefinition
  3
HH OPERATOR TRACKING
  2
---OHH
 70
     1
  0
ATTDEF
  5
E20A
330
E1F1
100
AcDbEntity
  8
0
 62
     7
100
AcDbText
 10
5.0
 20
-125.0
 30
0.0
 40
4.0
  1
0
 11
0.0
 21
0.0
 31
0.0
100
AcDbAttributeDefinition
  3
H OPERATOR TRACKING
  2
---OH
 70
     1
  0
ATTDEF
  5
E20B
330
E1F1
100
AcDbEntity
  8
0
 62
     7
100
AcDbText
 10
5.0
 20
-130.0
 30
0.0
 40
4.0
  1
0
 11
0.0
 21
0.0
 31
0.0
100
AcDbAttributeDefinition
  3
L OPERATOR TRACKING
  2
---OL
 70
     1
  0
ATTDEF
  5
E20C
330
E1F1
100
AcDbEntity
  8
0
 62
     7
100
AcDbText
 10
5.0
 20
-135.0
 30
0.0
 40
4.0
  1
0
 11
0.0
 21
0.0
 31
0.0
100
AcDbAttributeDefinition
  3
LL OPERATOR TRACKING
  2
---OLL
 70
     1
  0
ATTDEF
  5
E20D
330
E1F1
100
AcDbEntity
  8
0
 62
     7
100
AcDbText
 10
5.0
 20
-140.0
 30
0.0
 40
4.0
  1
0
 11
0.0
 21
0.0
 31
0.0
100
AcDbAttributeDefinition
  3
OUT OPERATOR TRACKING
  2
---OOUT
 70
     1
  0
ATTDEF
  5
E20E
330
E1F1
100
AcDbEntity
  8
0
 62
     7
100
AcDbText
 10
5.0
 20
-145.0
 30
0.0
 40
4.0
  1
0
 11
0.0
 21
0.0
 31
0.0
100
AcDbAttributeDefinition
  3
MASK OPERATOR TRACKING
  2
---OESTO
 70
     1
  0
ATTDEF
  5
E20F
330
E1F1
100
AcDbEntity
  8
0
 62
     7
100
AcDbText
 10
5.0
 20
-150.0
 30
0.0
 40
4.0
  1
1
 11
0.0
 21
0.0
 31
0.0
100
AcDbAttributeDefinition
  3
OPERATING AREA (1-64)
  2
AREAOP
 70
     1
  0
POLYLINE
  5
E210
330
E1F1
100
AcDbEntity
  8
0
 62
     7
100
AcDb2dPolyline
 66
     1
 10
0.0
 20
0.0
 30
0.0
 70
     1
  0
VERTEX
  5
E211
330
E210
100
AcDbEntity
  8
0
 62
     7
100
AcDbVertex
100
AcDb2dVertex
 10
23.31
 20
17.22
 30
0.0
  0
VERTEX
  5
E212
330
E210
100
AcDbEntity
  8
0
 62
     7
100
AcDbVertex
100
AcDb2dVertex
 10
23.31
 20
8.44
 30
0.0
  0
VERTEX
  5
E213
330
E210
100
AcDbEntity
  8
0
 62
     7
100
AcDbVertex
100
AcDb2dVertex
 10
22.14
 20
7.28
 30
0.0
  0
VERTEX
  5
E214
330
E210
100
AcDbEntity
  8
0
 62
     7
100
AcDbVertex
100
AcDb2dVertex
 10
6.93
 20
7.28
 30
0.0
  0
VERTEX
  5
E215
330
E210
100
AcDbEntity
  8
0
 62
     7
100
AcDbVertex
100
AcDb2dVertex
 10
5.76
 20
8.44
 30
0.0
  0
VERTEX
  5
E216
330
E210
100
AcDbEntity
  8
0
 62
     7
100
AcDbVertex
100
AcDb2dVertex
 10
5.76
 20
17.22
 30
0.0
  0
VERTEX
  5
E217
330
E210
100
AcDbEntity
  8
0
 62
     7
100
AcDbVertex
100
AcDb2dVertex
 10
6.93
 20
18.39
 30
0.0
  0
VERTEX
  5
E218
330
E210
100
AcDbEntity
  8
0
 62
     7
100
AcDbVertex
100
AcDb2dVertex
 10
22.14
 20
18.39
 30
0.0
  0
SEQEND
  5
E219
330
E210
100
AcDbEntity
  8
0
 62
     7
  0
POLYLINE
  5
E21A
330
E1F1
100
AcDbEntity
  8
0
 62
     7
100
AcDb2dPolyline
 66
     1
 10
0.0
 20
0.0
 30
0.0
 70
     1
 40
0.44
 41
0.44
  0
VERTEX
  5
E21B
330
E21A
100
AcDbEntity
  8
0
 62
     7
100
AcDbVertex
100
AcDb2dVertex
 10
20.75
 20
9.61
 30
0.0
 42
1.0
  0
VERTEX
  5
E21C
330
E21A
100
AcDbEntity
  8
0
 62
     7
100
AcDbVertex
100
AcDb2dVertex
 10
21.19
 20
9.61
 30
0.0
 42
1.0
  0
SEQEND
  5
E21D
330
E21A
100
AcDbEntity
  8
0
 62
     7
  0
POLYLINE
  5
E21E
330
E1F1
100
AcDbEntity
  8
0
 62
     7
100
AcDb2dPolyline
 66
     1
 10
0.0
 20
0.0
 30
0.0
 70
     1
 40
0.44
 41
0.44
  0
VERTEX
  5
E21F
330
E21E
100
AcDbEntity
  8
0
 62
     7
100
AcDbVertex
100
AcDb2dVertex
 10
7.88
 20
9.61
 30
0.0
 42
1.0
  0
VERTEX
  5
E220
330
E21E
100
AcDbEntity
  8
0
 62
     7
100
AcDbVertex
100
AcDb2dVertex
 10
8.32
 20
9.61
 30
0.0
 42
1.0
  0
SEQEND
  5
E221
330
E21E
100
AcDbEntity
  8
0
 62
     7
  0
POLYLINE
  5
E222
330
E1F1
100
AcDbEntity
  8
0
 62
     7
100
AcDb2dPolyline
 66
     1
 10
0.0
 20
0.0
 30
0.0
  0
VERTEX
  5
E223
330
E222
100
AcDbEntity
  8
0
 62
     7
100
AcDbVertex
100
AcDb2dVertex
 10
11.61
 20
10.25
 30
0.0
  0
VERTEX
  5
E224
330
E222
100
AcDbEntity
  8
0
 62
     7
100
AcDbVertex
100
AcDb2dVertex
 10
17.45
 20
10.25
 30
0.0
  0
SEQEND
  5
E225
330
E222
100
AcDbEntity
  8
0
 62
     7
  0
POLYLINE
  5
E226
330
E1F1
100
AcDbEntity
  8
0
 62
     7
100
AcDb2dPolyline
 66
     1
 10
0.0
 20
0.0
 30
0.0
 70
     1
 40
0.44
 41
0.44
  0
VERTEX
  5
E227
330
E226
100
AcDbEntity
  8
0
 62
     7
100
AcDbVertex
100
AcDb2dVertex
 10
7.88
 20
16.04
 30
0.0
 42
1.0
  0
VERTEX
  5
E228
330
E226
100
AcDbEntity
  8
0
 62
     7
100
AcDbVertex
100
AcDb2dVertex
 10
8.32
 20
16.04
 30
0.0
 42
1.0
  0
SEQEND
  5
E229
330
E226
100
AcDbEntity
  8
0
 62
     7
  0
POLYLINE
  5
E22A
330
E1F1
100
AcDbEntity
  8
0
 62
     7
100
AcDb2dPolyline
 66
     1
 10
0.0
 20
0.0
 30
0.0
 70
     1
 40
0.44
 41
0.44
  0
VERTEX
  5
E22B
330
E22A
100
AcDbEntity
  8
0
 62
     7
100
AcDbVertex
100
AcDb2dVertex
 10
20.75
 20
16.04
 30
0.0
 42
1.0
  0
VERTEX
  5
E22C
330
E22A
100
AcDbEntity
  8
0
 62
     7
100
AcDbVertex
100
AcDb2dVertex
 10
21.19
 20
16.04
 30
0.0
 42
1.0
  0
SEQEND
  5
E22D
330
E22A
100
AcDbEntity
  8
0
 62
     7
  0
POLYLINE
  5
E22E
330
E1F1
100
AcDbEntity
  8
0
 62
     7
100
AcDb2dPolyline
 66
     1
 10
0.0
 20
0.0
 30
0.0
  0
VERTEX
  5
E22F
330
E22E
100
AcDbEntity
  8
0
 62
     7
100
AcDbVertex
100
AcDb2dVertex
 10
11.61
 20
12.07
 30
0.0
  0
VERTEX
  5
E230
330
E22E
100
AcDbEntity
  8
0
 62
     7
100
AcDbVertex
100
AcDb2dVertex
 10
17.45
 20
12.07
 30
0.0
  0
SEQEND
  5
E231
330
E22E
100
AcDbEntity
  8
0
 62
     7
  0
POLYLINE
  5
E232
330
E1F1
100
AcDbEntity
  8
0
 62
     7
100
AcDb2dPolyline
 66
     1
 10
0.0
 20
0.0
 30
0.0
  0
VERTEX
  5
E233
330
E232
100
AcDbEntity
  8
0
 62
     7
100
AcDbVertex
100
AcDb2dVertex
 10
9.85
 20
14.08
 30
0.0
  0
VERTEX
  5
E234
330
E232
100
AcDbEntity
  8
0
 62
     7
100
AcDbVertex
100
AcDb2dVertex
 10
18.62
 20
14.08
 30
0.0
  0
VERTEX
  5
E235
330
E232
100
AcDbEntity
  8
0
 62
     7
100
AcDbVertex
100
AcDb2dVertex
 10
18.62
 20
16.41
 30
0.0
  0
SEQEND
  5
E236
330
E232
100
AcDbEntity
  8
0
 62
     7
  0
POLYLINE
  5
E237
330
E1F1
100
AcDbEntity
  8
0
 62
     7
100
AcDb2dPolyline
 66
     1
 10
0.0
 20
0.0
 30
0.0
 70
     1
  0
VERTEX
  5
E238
330
E237
100
AcDbEntity
  8
0
 62
     7
100
AcDbVertex
100
AcDb2dVertex
 10
0.0
 20
0.0
 30
0.0
  0
VERTEX
  5
E239
330
E237
100
AcDbEntity
  8
0
 62
     7
100
AcDbVertex
100
AcDb2dVertex
 10
0.0
 20
25.0
 30
0.0
  0
VERTEX
  5
E23A
330
E237
100
AcDbEntity
  8
0
 62
     7
100
AcDbVertex
100
AcDb2dVertex
 10
29.0
 20
25.0
 30
0.0
  0
VERTEX
  5
E23B
330
E237
100
AcDbEntity
  8
0
 62
     7
100
AcDbVertex
100
AcDb2dVertex
 10
29.0
 20
0.0
 30
0.0
  0
SEQEND
  5
E23C
330
E237
100
AcDbEntity
  8
0
 62
     7
  0
TEXT
  5
E23D
330
E1F1
100
AcDbEntity
  8
0
 62
     7
100
AcDbText
 10
11.17
 20
2.0
 30
0.0
 40
4.0
  1
am
 72
     1
 11
14.5
 21
2.0
 31
0.0
100
AcDbText
  0
ENDBLK
  5
E262
330
E1F1
100
AcDbEntity
  8
0
100
AcDbBlockEnd
  0
BLOCK
  5
E2D1
330
E282
100
AcDbEntity
  8
0
100
AcDbBlockBegin
  2
-OD_AM
 70
     2
 10
0.0
 20
0.0
 30
0.0
  3
-OD_AM
  1
-OD_AM
  0
ATTDEF
  5
E283
330
E282
100
AcDbEntity
  8
0
 62
     7
100
AcDbText
 10
5.0
 20
-10.0
 30
0.0
 40
4.0
  1
TAG_CODE
 11
0.0
 21
0.0
 31
0.0
100
AcDbAttributeDefinition
  3
OPERATING MODULE NAME
  2
$NAME
 70
     1
  0
ATTDEF
  5
E285
330
E282
100
AcDbEntity
  8
0
 62
     7
100
AcDbText
 10
5.0
 20
-15.0
 30
0.0
 40
4.0
  1
A1
 11
0.0
 21
0.0
 31
0.0
100
AcDbAttributeDefinition
  3
CONTROL ROOM IDENTIFIER
  2
$CR
 70
     1
  0
ATTDEF
  5
E286
330
E282
100
AcDbEntity
  8
0
 62
     7
100
AcDbText
 10
5.0
 20
-20.0
 30
0.0
 40
4.0
  1
TAG_CODE
 11
0.0
 21
0.0
 31
0.0
100
AcDbAttributeDefinition
  3
TAG CODE OF TAG MODULE
  2
POS
 70
     1
  0
ATTDEF
  5
E287
330
E282
100
AcDbEntity
  8
0
 62
     7
100
AcDbText
 10
5.0
 20
-25.0
 30
0.0
 40
4.0
  1
pr
 11
0.0
 21
0.0
 31
0.0
100
AcDbAttributeDefinition
  3
DIRECTORY IDENTIFIER
  2
PREFIX
 70
     1
  0
ATTDEF
  5
E288
330
E282
100
AcDbEntity
  8
0
 62
     7
100
AcDbText
 10
5.0
 20
-30.0
 30
0.0
 40
4.0
  1
TAG_CODE
 11
0.0
 21
0.0
 31
0.0
100
AcDbAttributeDefinition
  3
TAG CODE OF PR.ST.DATA
  2
PDATA
 70
     1
  0
ATTDEF
  5
E289
330
E282
100
AcDbEntity
  8
0
 62
     7
100
AcDbText
 10
5.0
 20
-35.0
 30
0.0
 40
4.0
  1
TAG_CODE
 11
0.0
 21
0.0
 31
0.0
100
AcDbAttributeDefinition
  3
TAG CODE OF ALARM DATA
  2
--ALM
 70
     1
  0
ATTDEF
  5
E28A
330
E282
100
AcDbEntity
  8
0
 62
     7
100
AcDbText
 10
5.0
 20
-40.0
 30
0.0
 40
4.0
  1
3
 11
0.0
 21
0.0
 31
0.0
100
AcDbAttributeDefinition
  3
SELECTION OF TEXT 1(0-6)
  2
TXT1SEL
 70
     1
  0
ATTDEF
  5
E28B
330
E282
100
AcDbEntity
  8
0
 62
     7
100
AcDbText
 10
5.0
 20
-45.0
 30
0.0
 40
4.0
  1
4
 11
0.0
 21
0.0
 31
0.0
100
AcDbAttributeDefinition
  3
SELECTION OF TEXT 2(0-6)
  2
TXT2SEL
 70
     1
  0
ATTDEF
  5
E28C
330
E282
100
AcDbEntity
  8
0
 62
     7
100
AcDbText
 10
5.0
 20
-50.0
 30
0.0
 40
4.0
  1
0
 11
0.0
 21
0.0
 31
0.0
100
AcDbAttributeDefinition
  3
NUMBER OF DECIMALS(0-5)
  2
NUMPREC
 70
     1
  0
POLYLINE
  5
E28D
330
E282
100
AcDbEntity
  8
0
 62
     7
100
AcDb2dPolyline
 66
     1
 10
0.0
 20
0.0
 30
0.0
 70
     1
  0
VERTEX
  5
E28E
330
E28D
100
AcDbEntity
  8
0
 62
     7
100
AcDbVertex
100
AcDb2dVertex
 10
22.2
 20
18.45
 30
0.0
  0
VERTEX
  5
E28F
330
E28D
100
AcDbEntity
  8
0
 62
     7
100
AcDbVertex
100
AcDb2dVertex
 10
23.74
 20
16.91
 30
0.0
  0
VERTEX
  5
E290
330
E28D
100
AcDbEntity
  8
0
 62
     7
100
AcDbVertex
100
AcDb2dVertex
 10
23.74
 20
9.22
 30
0.0
  0
VERTEX
  5
E291
330
E28D
100
AcDbEntity
  8
0
 62
     7
100
AcDbVertex
100
AcDb2dVertex
 10
22.2
 20
7.68
 30
0.0
  0
VERTEX
  5
E292
330
E28D
100
AcDbEntity
  8
0
 62
     7
100
AcDbVertex
100
AcDb2dVertex
 10
6.81
 20
7.68
 30
0.0
  0
VERTEX
  5
E293
330
E28D
100
AcDbEntity
  8
0
 62
     7
100
AcDbVertex
100
AcDb2dVertex
 10
5.27
 20
9.22
 30
0.0
  0
VERTEX
  5
E294
330
E28D
100
AcDbEntity
  8
0
 62
     7
100
AcDbVertex
100
AcDb2dVertex
 10
5.27
 20
16.91
 30
0.0
  0
VERTEX
  5
E295
330
E28D
100
AcDbEntity
  8
0
 62
     7
100
AcDbVertex
100
AcDb2dVertex
 10
6.81
 20
18.45
 30
0.0
  0
SEQEND
  5
E296
330
E28D
100
AcDbEntity
  8
0
 62
     7
  0
LINE
  5
E297
330
E282
100
AcDbEntity
  8
0
100
AcDbLine
 10
21.35
 20
10.56
 30
0.0
 11
21.35
 21
12.27
 31
0.0
  0
LINE
  5
E298
330
E282
100
AcDbEntity
  8
0
100
AcDbLine
 10
19.64
 20
10.56
 30
0.0
 11
21.35
 21
10.56
 31
0.0
  0
LINE
  5
E299
330
E282
100
AcDbEntity
  8
0
100
AcDbLine
 10
17.93
 20
10.56
 30
0.0
 11
17.93
 21
12.27
 31
0.0
  0
LINE
  5
E29A
330
E282
100
AcDbEntity
  8
0
100
AcDbLine
 10
16.22
 20
10.56
 30
0.0
 11
17.93
 21
10.56
 31
0.0
  0
LINE
  5
E29B
330
E282
100
AcDbEntity
  8
0
100
AcDbLine
 10
14.51
 20
10.56
 30
0.0
 11
14.51
 21
12.27
 31
0.0
  0
LINE
  5
E29C
330
E282
100
AcDbEntity
  8
0
100
AcDbLine
 10
12.8
 20
10.56
 30
0.0
 11
14.51
 21
10.56
 31
0.0
  0
LINE
  5
E29D
330
E282
100
AcDbEntity
  8
0
100
AcDbLine
 10
11.09
 20
10.56
 30
0.0
 11
11.09
 21
12.27
 31
0.0
  0
LINE
  5
E29E
330
E282
100
AcDbEntity
  8
0
100
AcDbLine
 10
9.38
 20
10.56
 30
0.0
 11
11.09
 21
10.56
 31
0.0
  0
LINE
  5
E29F
330
E282
100
AcDbEntity
  8
0
100
AcDbLine
 10
19.64
 20
13.98
 30
0.0
 11
19.64
 21
15.69
 31
0.0
  0
LINE
  5
E2A0
330
E282
100
AcDbEntity
  8
0
100
AcDbLine
 10
17.93
 20
13.98
 30
0.0
 11
19.64
 21
13.98
 31
0.0
  0
LINE
  5
E2A1
330
E282
100
AcDbEntity
  8
0
100
AcDbLine
 10
16.22
 20
13.98
 30
0.0
 11
16.22
 21
15.69
 31
0.0
  0
LINE
  5
E2A2
330
E282
100
AcDbEntity
  8
0
100
AcDbLine
 10
14.51
 20
13.98
 30
0.0
 11
16.22
 21
13.98
 31
0.0
  0
LINE
  5
E2A3
330
E282
100
AcDbEntity
  8
0
100
AcDbLine
 10
12.8
 20
13.98
 30
0.0
 11
12.8
 21
15.69
 31
0.0
  0
LINE
  5
E2A4
330
E282
100
AcDbEntity
  8
0
100
AcDbLine
 10
11.09
 20
13.98
 30
0.0
 11
12.8
 21
13.98
 31
0.0
  0
LINE
  5
E2A5
330
E282
100
AcDbEntity
  8
0
100
AcDbLine
 10
9.38
 20
13.98
 30
0.0
 11
9.38
 21
15.69
 31
0.0
  0
LINE
  5
E2A6
330
E282
100
AcDbEntity
  8
0
100
AcDbLine
 10
7.67
 20
13.98
 30
0.0
 11
9.38
 21
13.98
 31
0.0
  0
POLYLINE
  5
E2A7
330
E282
100
AcDbEntity
  8
0
 62
     7
100
AcDb2dPolyline
 66
     1
 10
0.0
 20
0.0
 30
0.0
 70
     1
  0
VERTEX
  5
E2A8
330
E2A7
100
AcDbEntity
  8
0
 62
     7
100
AcDbVertex
100
AcDb2dVertex
 10
0.0
 20
0.0
 30
0.0
  0
VERTEX
  5
E2A9
330
E2A7
100
AcDbEntity
  8
0
 62
     7
100
AcDbVertex
100
AcDb2dVertex
 10
0.0
 20
25.0
 30
0.0
  0
VERTEX
  5
E2AA
330
E2A7
100
AcDbEntity
  8
0
 62
     7
100
AcDbVertex
100
AcDb2dVertex
 10
29.0
 20
25.0
 30
0.0
  0
VERTEX
  5
E2AB
330
E2A7
100
AcDbEntity
  8
0
 62
     7
100
AcDbVertex
100
AcDb2dVertex
 10
29.0
 20
0.0
 30
0.0
  0
SEQEND
  5
E2AC
330
E2A7
100
AcDbEntity
  8
0
 62
     7
  0
TEXT
  5
E2AD
330
E282
100
AcDbEntity
  8
0
 62
     7
100
AcDbText
 10
11.17
 20
2.0
 30
0.0
 40
4.0
  1
am
 72
     1
 11
14.5
 21
2.0
 31
0.0
100
AcDbText
  0
ENDBLK
  5
E2D2
330
E282
100
AcDbEntity
  8
0
100
AcDbBlockEnd
  0
BLOCK
  5
E3C5
330
E2DE
100
AcDbEntity
  8
0
100
AcDbBlockBegin
  2
-AL_AM
 70
     2
 10
0.0
 20
0.0
 30
0.0
  3
-AL_AM
  1
-AL_AM
  0
ATTDEF
  5
E2DF
330
E2DE
100
AcDbEntity
  8
0
 62
     7
100
AcDbText
 10
5.0
 20
-10.0
 30
0.0
 40
4.0
  1
TAG_CODE
 11
0.0
 21
0.0
 31
0.0
100
AcDbAttributeDefinition
  3
EVENT MODULE NAME
  2
$NAME
 70
     1
  0
ATTDEF
  5
E2E1
330
E2DE
100
AcDbEntity
  8
0
 62
     7
100
AcDbText
 10
5.0
 20
-15.0
 30
0.0
 40
4.0
  1
A1
 11
0.0
 21
0.0
 31
0.0
100
AcDbAttributeDefinition
  3
CONTROL ROOM IDENTIFIER
  2
$CR
 70
     1
  0
ATTDEF
  5
E2E2
330
E2DE
100
AcDbEntity
  8
0
 62
     7
100
AcDbText
 10
5.0
 20
-20.0
 30
0.0
 40
4.0
  1
pr
 11
0.0
 21
0.0
 31
0.0
100
AcDbAttributeDefinition
  3
DIRECTORY IDENTIFIER
  2
PREFIX
 70
     1
  0
ATTDEF
  5
E2E3
330
E2DE
100
AcDbEntity
  8
0
 62
     7
100
AcDbText
 10
5.0
 20
-25.0
 30
0.0
 40
4.0
  1
1
 11
0.0
 21
0.0
 31
0.0
100
AcDbAttributeDefinition
  3
ALARM AREA (1-64)
  2
AREAAL
 70
     1
  0
ATTDEF
  5
E2E4
330
E2DE
100
AcDbEntity
  8
0
 62
     7
100
AcDbText
 10
5.0
 20
-30.0
 30
0.0
 40
4.0
  1
1
 11
0.0
 21
0.0
 31
0.0
100
AcDbAttributeDefinition
  3
MESSAGE AREA (1-64)
  2
AREAMS
 70
     1
  0
ATTDEF
  5
E2E5
330
E2DE
100
AcDbEntity
  8
0
 62
     7
100
AcDbText
 10
5.0
 20
-35.0
 30
0.0
 40
4.0
  1
0
 11
0.0
 21
0.0
 31
0.0
100
AcDbAttributeDefinition
  3
HH(0= ,1=ALM,2=MSG)
  2
--HH
 70
     1
  0
ATTDEF
  5
E2E6
330
E2DE
100
AcDbEntity
  8
0
 62
     7
100
AcDbText
 10
5.0
 20
-40.0
 30
0.0
 40
4.0
  1
1
 11
0.0
 21
0.0
 31
0.0
100
AcDbAttributeDefinition
  3
H (0= ,1=ALM,2=MSG)
  2
--H
 70
     1
  0
ATTDEF
  5
E2E7
330
E2DE
100
AcDbEntity
  8
0
 62
     7
100
AcDbText
 10
5.0
 20
-45.0
 30
0.0
 40
4.0
  1
1
 11
0.0
 21
0.0
 31
0.0
100
AcDbAttributeDefinition
  3
L (0= ,1=ALM,2=MSG)
  2
--L
 70
     1
  0
ATTDEF
  5
E2E8
330
E2DE
100
AcDbEntity
  8
0
 62
     7
100
AcDbText
 10
5.0
 20
-50.0
 30
0.0
 40
4.0
  1
0
 11
0.0
 21
0.0
 31
0.0
100
AcDbAttributeDefinition
  3
LL(0= ,1=ALM,2=MSG)
  2
--LL
 70
     1
  0
ATTDEF
  5
E2E9
330
E2DE
100
AcDbEntity
  8
0
 62
     7
100
AcDbText
 10
5.0
 20
-55.0
 30
0.0
 40
4.0
  1
1
 11
0.0
 21
0.0
 31
0.0
100
AcDbAttributeDefinition
  3
F (0= ,1=ALM,2=MSG)
  2
--F
 70
     1
  0
ATTDEF
  5
E2EA
330
E2DE
100
AcDbEntity
  8
0
 62
     7
100
AcDbText
 10
5.0
 20
-60.0
 30
0.0
 40
4.0
  1
1
 11
0.0
 21
0.0
 31
0.0
100
AcDbAttributeDefinition
  3
1=0->1, 2=1->0 ALARM
  2
EDGEAL
 70
     1
  0
ATTDEF
  5
E2EB
330
E2DE
100
AcDbEntity
  8
0
 62
     7
100
AcDbText
 10
5.0
 20
-65.0
 30
0.0
 40
4.0
  1
1
 11
0.0
 21
0.0
 31
0.0
100
AcDbAttributeDefinition
  3
-ACKN.REQ.(0=OFF,1=ON)
  2
ACKDEMAL
 70
     1
  0
ATTDEF
  5
E2EC
330
E2DE
100
AcDbEntity
  8
0
 62
     7
100
AcDbText
 10
5.0
 20
-70.0
 30
0.0
 40
4.0
  1
2
 11
0.0
 21
0.0
 31
0.0
100
AcDbAttributeDefinition
  3
-ALARM PRIORITY (1-2)
  2
PRIAL
 70
     1
  0
ATTDEF
  5
E2ED
330
E2DE
100
AcDbEntity
  8
0
 62
     7
100
AcDbText
 10
5.0
 20
-75.0
 30
0.0
 40
4.0
  1
1
 11
0.0
 21
0.0
 31
0.0
100
AcDbAttributeDefinition
  3
-USER (1-8)
  2
USERAL
 70
     1
  0
ATTDEF
  5
E2EE
330
E2DE
100
AcDbEntity
  8
0
 62
     7
100
AcDbText
 10
5.0
 20
-80.0
 30
0.0
 40
4.0
  1
1
 11
0.0
 21
0.0
 31
0.0
100
AcDbAttributeDefinition
  3
-FREE GROUPING (10x16)
  2
RESAL
 70
     1
  0
ATTDEF
  5
E2EF
330
E2DE
100
AcDbEntity
  8
0
 62
     7
100
AcDbText
 10
5.0
 20
-85.0
 30
0.0
 40
4.0
  1
1
 11
0.0
 21
0.0
 31
0.0
100
AcDbAttributeDefinition
  3
1=0->1, 2=1->0 MESSAGE
  2
EDGEMS
 70
     1
  0
ATTDEF
  5
E2F0
330
E2DE
100
AcDbEntity
  8
0
 62
     7
100
AcDbText
 10
5.0
 20
-90.0
 30
0.0
 40
4.0
  1
1
 11
0.0
 21
0.0
 31
0.0
100
AcDbAttributeDefinition
  3
-ACKN.REQ.(0=OFF,1=ON)
  2
ACKDEMMS
 70
     1
  0
ATTDEF
  5
E2F1
330
E2DE
100
AcDbEntity
  8
0
 62
     7
100
AcDbText
 10
5.0
 20
-95.0
 30
0.0
 40
4.0
  1
1
 11
0.0
 21
0.0
 31
0.0
100
AcDbAttributeDefinition
  3
-USER (1-8)
  2
USERMS
 70
     1
  0
ATTDEF
  5
E2F2
330
E2DE
100
AcDbEntity
  8
0
 62
     7
100
AcDbText
 10
5.0
 20
-100.0
 30
0.0
 40
4.0
  1
1
 11
0.0
 21
0.0
 31
0.0
100
AcDbAttributeDefinition
  3
-FREE GROUPING (10x16)
  2
RESMS
 70
     1
  0
POLYLINE
  5
E2F3
330
E2DE
100
AcDbEntity
  8
0
 62
     7
100
AcDb2dPolyline
 66
     1
 10
0.0
 20
0.0
 30
0.0
 40
1.64
 41
1.64
  0
VERTEX
  5
E2F4
330
E2F3
100
AcDbEntity
  8
0
 62
     7
100
AcDbVertex
100
AcDb2dVertex
 10
13.69
 20
9.18
 30
0.0
 42
1.0
  0
VERTEX
  5
E2F5
330
E2F3
100
AcDbEntity
  8
0
 62
     7
100
AcDbVertex
100
AcDb2dVertex
 10
15.33
 20
9.18
 30
0.0
 42
1.0
  0
SEQEND
  5
E2F6
330
E2F3
100
AcDbEntity
  8
0
 62
     7
  0
POLYLINE
  5
E2F7
330
E2DE
100
AcDbEntity
  8
0
 62
     1
100
AcDb2dPolyline
 66
     1
 10
0.0
 20
0.0
 30
0.0
 70
     4
 75
     6
  0
VERTEX
  5
E2F8
330
E2F7
100
AcDbEntity
  8
0
 62
     1
100
AcDbVertex
100
AcDb2dVertex
 10
14.51
 20
20.02
 30
0.0
 70
    16
  0
VERTEX
  5
E2F9
330
E2F7
100
AcDbEntity
  8
0
 62
     1
100
AcDbVertex
100
AcDb2dVertex
 10
14.51
 20
20.02
 30
0.0
 70
     8
  0
VERTEX
  5
E2FA
330
E2F7
100
AcDbEntity
  8
0
 62
     1
100
AcDbVertex
100
AcDb2dVertex
 10
14.96
 20
20.0
 30
0.0
 70
     8
  0
VERTEX
  5
E2FB
330
E2F7
100
AcDbEntity
  8
0
 62
     1
100
AcDbVertex
100
AcDb2dVertex
 10
15.34
 20
19.96
 30
0.0
 70
     8
  0
VERTEX
  5
E2FC
330
E2F7
100
AcDbEntity
  8
0
 62
     1
100
AcDbVertex
100
AcDb2dVertex
 10
15.66
 20
19.9
 30
0.0
 70
     8
  0
VERTEX
  5
E2FD
330
E2F7
100
AcDbEntity
  8
0
 62
     1
100
AcDbVertex
100
AcDb2dVertex
 10
15.93
 20
19.81
 30
0.0
 70
     8
  0
VERTEX
  5
E2FE
330
E2F7
100
AcDbEntity
  8
0
 62
     1
100
AcDbVertex
100
AcDb2dVertex
 10
16.15
 20
19.69
 30
0.0
 70
     8
  0
VERTEX
  5
E2FF
330
E2F7
100
AcDbEntity
  8
0
 62
     1
100
AcDbVertex
100
AcDb2dVertex
 10
16.34
 20
19.55
 30
0.0
 70
     8
  0
VERTEX
  5
E300
330
E2F7
100
AcDbEntity
  8
0
 62
     1
100
AcDbVertex
100
AcDb2dVertex
 10
16.51
 20
19.39
 30
0.0
 70
     8
  0
VERTEX
  5
E301
330
E2F7
100
AcDbEntity
  8
0
 62
     1
100
AcDbVertex
100
AcDb2dVertex
 10
16.65
 20
19.21
 30
0.0
 70
     8
  0
VERTEX
  5
E302
330
E2F7
100
AcDbEntity
  8
0
 62
     1
100
AcDbVertex
100
AcDb2dVertex
 10
16.79
 20
19.0
 30
0.0
 70
     8
  0
VERTEX
  5
E303
330
E2F7
100
AcDbEntity
  8
0
 62
     1
100
AcDbVertex
100
AcDb2dVertex
 10
16.91
 20
18.78
 30
0.0
 70
     8
  0
VERTEX
  5
E304
330
E2F7
100
AcDbEntity
  8
0
 62
     1
100
AcDbVertex
100
AcDb2dVertex
 10
17.02
 20
18.53
 30
0.0
 70
     8
  0
VERTEX
  5
E305
330
E2F7
100
AcDbEntity
  8
0
 62
     1
100
AcDbVertex
100
AcDb2dVertex
 10
17.13
 20
18.27
 30
0.0
 70
     8
  0
VERTEX
  5
E306
330
E2F7
100
AcDbEntity
  8
0
 62
     1
100
AcDbVertex
100
AcDb2dVertex
 10
17.24
 20
17.98
 30
0.0
 70
     8
  0
VERTEX
  5
E307
330
E2F7
100
AcDbEntity
  8
0
 62
     1
100
AcDbVertex
100
AcDb2dVertex
 10
17.35
 20
17.68
 30
0.0
 70
     8
  0
VERTEX
  5
E308
330
E2F7
100
AcDbEntity
  8
0
 62
     1
100
AcDbVertex
100
AcDb2dVertex
 10
17.46
 20
17.36
 30
0.0
 70
     8
  0
VERTEX
  5
E309
330
E2F7
100
AcDbEntity
  8
0
 62
     1
100
AcDbVertex
100
AcDb2dVertex
 10
17.57
 20
17.01
 30
0.0
 70
     8
  0
VERTEX
  5
E30A
330
E2F7
100
AcDbEntity
  8
0
 62
     1
100
AcDbVertex
100
AcDb2dVertex
 10
17.68
 20
16.64
 30
0.0
 70
     8
  0
VERTEX
  5
E30B
330
E2F7
100
AcDbEntity
  8
0
 62
     1
100
AcDbVertex
100
AcDb2dVertex
 10
17.79
 20
16.24
 30
0.0
 70
     8
  0
VERTEX
  5
E30C
330
E2F7
100
AcDbEntity
  8
0
 62
     1
100
AcDbVertex
100
AcDb2dVertex
 10
17.9
 20
15.82
 30
0.0
 70
     8
  0
VERTEX
  5
E30D
330
E2F7
100
AcDbEntity
  8
0
 62
     1
100
AcDbVertex
100
AcDb2dVertex
 10
18.01
 20
15.38
 30
0.0
 70
     8
  0
VERTEX
  5
E30E
330
E2F7
100
AcDbEntity
  8
0
 62
     1
100
AcDbVertex
100
AcDb2dVertex
 10
18.12
 20
14.94
 30
0.0
 70
     8
  0
VERTEX
  5
E30F
330
E2F7
100
AcDbEntity
  8
0
 62
     1
100
AcDbVertex
100
AcDb2dVertex
 10
18.23
 20
14.49
 30
0.0
 70
     8
  0
VERTEX
  5
E310
330
E2F7
100
AcDbEntity
  8
0
 62
     1
100
AcDbVertex
100
AcDb2dVertex
 10
18.34
 20
14.07
 30
0.0
 70
     8
  0
VERTEX
  5
E311
330
E2F7
100
AcDbEntity
  8
0
 62
     1
100
AcDbVertex
100
AcDb2dVertex
 10
18.45
 20
13.67
 30
0.0
 70
     8
  0
VERTEX
  5
E312
330
E2F7
100
AcDbEntity
  8
0
 62
     1
100
AcDbVertex
100
AcDb2dVertex
 10
18.56
 20
13.3
 30
0.0
 70
     8
  0
VERTEX
  5
E313
330
E2F7
100
AcDbEntity
  8
0
 62
     1
100
AcDbVertex
100
AcDb2dVertex
 10
18.67
 20
12.97
 30
0.0
 70
     8
  0
VERTEX
  5
E314
330
E2F7
100
AcDbEntity
  8
0
 62
     1
100
AcDbVertex
100
AcDb2dVertex
 10
18.79
 20
12.66
 30
0.0
 70
     8
  0
VERTEX
  5
E315
330
E2F7
100
AcDbEntity
  8
0
 62
     1
100
AcDbVertex
100
AcDb2dVertex
 10
18.92
 20
12.38
 30
0.0
 70
     8
  0
VERTEX
  5
E316
330
E2F7
100
AcDbEntity
  8
0
 62
     1
100
AcDbVertex
100
AcDb2dVertex
 10
19.06
 20
12.12
 30
0.0
 70
     8
  0
VERTEX
  5
E317
330
E2F7
100
AcDbEntity
  8
0
 62
     1
100
AcDbVertex
100
AcDb2dVertex
 10
19.21
 20
11.86
 30
0.0
 70
     8
  0
VERTEX
  5
E318
330
E2F7
100
AcDbEntity
  8
0
 62
     1
100
AcDbVertex
100
AcDb2dVertex
 10
19.39
 20
11.62
 30
0.0
 70
     8
  0
VERTEX
  5
E319
330
E2F7
100
AcDbEntity
  8
0
 62
     1
100
AcDbVertex
100
AcDb2dVertex
 10
19.58
 20
11.39
 30
0.0
 70
     8
  0
VERTEX
  5
E31A
330
E2F7
100
AcDbEntity
  8
0
 62
     1
100
AcDbVertex
100
AcDb2dVertex
 10
19.8
 20
11.17
 30
0.0
 70
     8
  0
VERTEX
  5
E31B
330
E2F7
100
AcDbEntity
  8
0
 62
     1
100
AcDbVertex
100
AcDb2dVertex
 10
20.04
 20
10.95
 30
0.0
 70
     8
  0
VERTEX
  5
E31C
330
E2F7
100
AcDbEntity
  8
0
 62
     1
100
AcDbVertex
100
AcDb2dVertex
 10
20.31
 20
10.75
 30
0.0
 70
     8
  0
VERTEX
  5
E31D
330
E2F7
100
AcDbEntity
  8
0
 62
     1
100
AcDbVertex
100
AcDb2dVertex
 10
20.61
 20
10.55
 30
0.0
 70
     8
  0
VERTEX
  5
E31E
330
E2F7
100
AcDbEntity
  8
0
 62
     1
100
AcDbVertex
100
AcDb2dVertex
 10
20.94
 20
10.36
 30
0.0
 70
     8
  0
VERTEX
  5
E31F
330
E2F7
100
AcDbEntity
  8
0
 62
     1
100
AcDbVertex
100
AcDb2dVertex
 10
21.28
 20
10.17
 30
0.0
 70
     8
  0
VERTEX
  5
E320
330
E2F7
100
AcDbEntity
  8
0
 62
     1
100
AcDbVertex
100
AcDb2dVertex
 10
21.61
 20
9.97
 30
0.0
 70
     8
  0
VERTEX
  5
E321
330
E2F7
100
AcDbEntity
  8
0
 62
     1
100
AcDbVertex
100
AcDb2dVertex
 10
21.92
 20
9.74
 30
0.0
 70
     8
  0
VERTEX
  5
E322
330
E2F7
100
AcDbEntity
  8
0
 62
     1
100
AcDbVertex
100
AcDb2dVertex
 10
22.18
 20
9.49
 30
0.0
 70
     8
  0
VERTEX
  5
E323
330
E2F7
100
AcDbEntity
  8
0
 62
     1
100
AcDbVertex
100
AcDb2dVertex
 10
22.39
 20
9.18
 30
0.0
 70
     8
  0
VERTEX
  5
E324
330
E2F7
100
AcDbEntity
  8
0
 62
     1
100
AcDbVertex
100
AcDb2dVertex
 10
15.49
 20
20.02
 30
0.0
 70
    16
  0
VERTEX
  5
E325
330
E2F7
100
AcDbEntity
  8
0
 62
     1
100
AcDbVertex
100
AcDb2dVertex
 10
16.48
 20
19.69
 30
0.0
 70
    16
  0
VERTEX
  5
E326
330
E2F7
100
AcDbEntity
  8
0
 62
     1
100
AcDbVertex
100
AcDb2dVertex
 10
17.13
 20
18.38
 30
0.0
 70
    16
  0
VERTEX
  5
E327
330
E2F7
100
AcDbEntity
  8
0
 62
     1
100
AcDbVertex
100
AcDb2dVertex
 10
17.79
 20
16.41
 30
0.0
 70
    16
  0
VERTEX
  5
E328
330
E2F7
100
AcDbEntity
  8
0
 62
     1
100
AcDbVertex
100
AcDb2dVertex
 10
18.45
 20
13.45
 30
0.0
 70
    16
  0
VERTEX
  5
E329
330
E2F7
100
AcDbEntity
  8
0
 62
     1
100
AcDbVertex
100
AcDb2dVertex
 10
19.1
 20
11.81
 30
0.0
 70
    16
  0
VERTEX
  5
E32A
330
E2F7
100
AcDbEntity
  8
0
 62
     1
100
AcDbVertex
100
AcDb2dVertex
 10
20.42
 20
10.5
 30
0.0
 70
    16
  0
VERTEX
  5
E32B
330
E2F7
100
AcDbEntity
  8
0
 62
     1
100
AcDbVertex
100
AcDb2dVertex
 10
22.06
 20
9.84
 30
0.0
 70
    16
  0
VERTEX
  5
E32C
330
E2F7
100
AcDbEntity
  8
0
 62
     1
100
AcDbVertex
100
AcDb2dVertex
 10
22.39
 20
9.18
 30
0.0
 70
    16
  0
SEQEND
  5
E32D
330
E2F7
100
AcDbEntity
  8
0
 62
     1
  0
POLYLINE
  5
E32E
330
E2DE
100
AcDbEntity
  8
0
 62
     1
100
AcDb2dPolyline
 66
     1
 10
0.0
 20
0.0
 30
0.0
  0
VERTEX
  5
E32F
330
E32E
100
AcDbEntity
  8
0
 62
     1
100
AcDbVertex
100
AcDb2dVertex
 10
6.63
 20
9.18
 30
0.0
  0
VERTEX
  5
E330
330
E32E
100
AcDbEntity
  8
0
 62
     1
100
AcDbVertex
100
AcDb2dVertex
 10
22.39
 20
9.18
 30
0.0
  0
SEQEND
  5
E331
330
E32E
100
AcDbEntity
  8
0
 62
     1
  0
POLYLINE
  5
E332
330
E2DE
100
AcDbEntity
  8
0
 62
     1
100
AcDb2dPolyline
 66
     1
 10
0.0
 20
0.0
 30
0.0
 70
     4
 75
     6
  0
VERTEX
  5
E333
330
E332
100
AcDbEntity
  8
0
 62
     1
100
AcDbVertex
100
AcDb2dVertex
 10
14.51
 20
20.02
 30
0.0
 70
    16
  0
VERTEX
  5
E334
330
E332
100
AcDbEntity
  8
0
 62
     1
100
AcDbVertex
100
AcDb2dVertex
 10
14.51
 20
20.02
 30
0.0
 70
     8
  0
VERTEX
  5
E335
330
E332
100
AcDbEntity
  8
0
 62
     1
100
AcDbVertex
100
AcDb2dVertex
 10
14.05
 20
20.0
 30
0.0
 70
     8
  0
VERTEX
  5
E336
330
E332
100
AcDbEntity
  8
0
 62
     1
100
AcDbVertex
100
AcDb2dVertex
 10
13.67
 20
19.96
 30
0.0
 70
     8
  0
VERTEX
  5
E337
330
E332
100
AcDbEntity
  8
0
 62
     1
100
AcDbVertex
100
AcDb2dVertex
 10
13.35
 20
19.9
 30
0.0
 70
     8
  0
VERTEX
  5
E338
330
E332
100
AcDbEntity
  8
0
 62
     1
100
AcDbVertex
100
AcDb2dVertex
 10
13.09
 20
19.81
 30
0.0
 70
     8
  0
VERTEX
  5
E339
330
E332
100
AcDbEntity
  8
0
 62
     1
100
AcDbVertex
100
AcDb2dVertex
 10
12.86
 20
19.69
 30
0.0
 70
     8
  0
VERTEX
  5
E33A
330
E332
100
AcDbEntity
  8
0
 62
     1
100
AcDbVertex
100
AcDb2dVertex
 10
12.67
 20
19.55
 30
0.0
 70
     8
  0
VERTEX
  5
E33B
330
E332
100
AcDbEntity
  8
0
 62
     1
100
AcDbVertex
100
AcDb2dVertex
 10
12.51
 20
19.39
 30
0.0
 70
     8
  0
VERTEX
  5
E33C
330
E332
100
AcDbEntity
  8
0
 62
     1
100
AcDbVertex
100
AcDb2dVertex
 10
12.36
 20
19.21
 30
0.0
 70
     8
  0
VERTEX
  5
E33D
330
E332
100
AcDbEntity
  8
0
 62
     1
100
AcDbVertex
100
AcDb2dVertex
 10
12.23
 20
19.0
 30
0.0
 70
     8
  0
VERTEX
  5
E33E
330
E332
100
AcDbEntity
  8
0
 62
     1
100
AcDbVertex
100
AcDb2dVertex
 10
12.1
 20
18.78
 30
0.0
 70
     8
  0
VERTEX
  5
E33F
330
E332
100
AcDbEntity
  8
0
 62
     1
100
AcDbVertex
100
AcDb2dVertex
 10
11.99
 20
18.53
 30
0.0
 70
     8
  0
VERTEX
  5
E340
330
E332
100
AcDbEntity
  8
0
 62
     1
100
AcDbVertex
100
AcDb2dVertex
 10
11.88
 20
18.27
 30
0.0
 70
     8
  0
VERTEX
  5
E341
330
E332
100
AcDbEntity
  8
0
 62
     1
100
AcDbVertex
100
AcDb2dVertex
 10
11.77
 20
17.98
 30
0.0
 70
     8
  0
VERTEX
  5
E342
330
E332
100
AcDbEntity
  8
0
 62
     1
100
AcDbVertex
100
AcDb2dVertex
 10
11.66
 20
17.68
 30
0.0
 70
     8
  0
VERTEX
  5
E343
330
E332
100
AcDbEntity
  8
0
 62
     1
100
AcDbVertex
100
AcDb2dVertex
 10
11.55
 20
17.36
 30
0.0
 70
     8
  0
VERTEX
  5
E344
330
E332
100
AcDbEntity
  8
0
 62
     1
100
AcDbVertex
100
AcDb2dVertex
 10
11.44
 20
17.01
 30
0.0
 70
     8
  0
VERTEX
  5
E345
330
E332
100
AcDbEntity
  8
0
 62
     1
100
AcDbVertex
100
AcDb2dVertex
 10
11.33
 20
16.64
 30
0.0
 70
     8
  0
VERTEX
  5
E346
330
E332
100
AcDbEntity
  8
0
 62
     1
100
AcDbVertex
100
AcDb2dVertex
 10
11.22
 20
16.24
 30
0.0
 70
     8
  0
VERTEX
  5
E347
330
E332
100
AcDbEntity
  8
0
 62
     1
100
AcDbVertex
100
AcDb2dVertex
 10
11.11
 20
15.82
 30
0.0
 70
     8
  0
VERTEX
  5
E348
330
E332
100
AcDbEntity
  8
0
 62
     1
100
AcDbVertex
100
AcDb2dVertex
 10
11.0
 20
15.38
 30
0.0
 70
     8
  0
VERTEX
  5
E349
330
E332
100
AcDbEntity
  8
0
 62
     1
100
AcDbVertex
100
AcDb2dVertex
 10
10.89
 20
14.94
 30
0.0
 70
     8
  0
VERTEX
  5
E34A
330
E332
100
AcDbEntity
  8
0
 62
     1
100
AcDbVertex
100
AcDb2dVertex
 10
10.79
 20
14.49
 30
0.0
 70
     8
  0
VERTEX
  5
E34B
330
E332
100
AcDbEntity
  8
0
 62
     1
100
AcDbVertex
100
AcDb2dVertex
 10
10.68
 20
14.07
 30
0.0
 70
     8
  0
VERTEX
  5
E34C
330
E332
100
AcDbEntity
  8
0
 62
     1
100
AcDbVertex
100
AcDb2dVertex
 10
10.57
 20
13.67
 30
0.0
 70
     8
  0
VERTEX
  5
E34D
330
E332
100
AcDbEntity
  8
0
 62
     1
100
AcDbVertex
100
AcDb2dVertex
 10
10.46
 20
13.3
 30
0.0
 70
     8
  0
VERTEX
  5
E34E
330
E332
100
AcDbEntity
  8
0
 62
     1
100
AcDbVertex
100
AcDb2dVertex
 10
10.34
 20
12.97
 30
0.0
 70
     8
  0
VERTEX
  5
E34F
330
E332
100
AcDbEntity
  8
0
 62
     1
100
AcDbVertex
100
AcDb2dVertex
 10
10.22
 20
12.66
 30
0.0
 70
     8
  0
VERTEX
  5
E350
330
E332
100
AcDbEntity
  8
0
 62
     1
100
AcDbVertex
100
AcDb2dVertex
 10
10.1
 20
12.38
 30
0.0
 70
     8
  0
VERTEX
  5
E351
330
E332
100
AcDbEntity
  8
0
 62
     1
100
AcDbVertex
100
AcDb2dVertex
 10
9.96
 20
12.12
 30
0.0
 70
     8
  0
VERTEX
  5
E352
330
E332
100
AcDbEntity
  8
0
 62
     1
100
AcDbVertex
100
AcDb2dVertex
 10
9.8
 20
11.86
 30
0.0
 70
     8
  0
VERTEX
  5
E353
330
E332
100
AcDbEntity
  8
0
 62
     1
100
AcDbVertex
100
AcDb2dVertex
 10
9.63
 20
11.62
 30
0.0
 70
     8
  0
VERTEX
  5
E354
330
E332
100
AcDbEntity
  8
0
 62
     1
100
AcDbVertex
100
AcDb2dVertex
 10
9.43
 20
11.39
 30
0.0
 70
     8
  0
VERTEX
  5
E355
330
E332
100
AcDbEntity
  8
0
 62
     1
100
AcDbVertex
100
AcDb2dVertex
 10
9.22
 20
11.17
 30
0.0
 70
     8
  0
VERTEX
  5
E356
330
E332
100
AcDbEntity
  8
0
 62
     1
100
AcDbVertex
100
AcDb2dVertex
 10
8.97
 20
10.95
 30
0.0
 70
     8
  0
VERTEX
  5
E357
330
E332
100
AcDbEntity
  8
0
 62
     1
100
AcDbVertex
100
AcDb2dVertex
 10
8.7
 20
10.75
 30
0.0
 70
     8
  0
VERTEX
  5
E358
330
E332
100
AcDbEntity
  8
0
 62
     1
100
AcDbVertex
100
AcDb2dVertex
 10
8.41
 20
10.55
 30
0.0
 70
     8
  0
VERTEX
  5
E359
330
E332
100
AcDbEntity
  8
0
 62
     1
100
AcDbVertex
100
AcDb2dVertex
 10
8.08
 20
10.36
 30
0.0
 70
     8
  0
VERTEX
  5
E35A
330
E332
100
AcDbEntity
  8
0
 62
     1
100
AcDbVertex
100
AcDb2dVertex
 10
7.74
 20
10.17
 30
0.0
 70
     8
  0
VERTEX
  5
E35B
330
E332
100
AcDbEntity
  8
0
 62
     1
100
AcDbVertex
100
AcDb2dVertex
 10
7.4
 20
9.97
 30
0.0
 70
     8
  0
VERTEX
  5
E35C
330
E332
100
AcDbEntity
  8
0
 62
     1
100
AcDbVertex
100
AcDb2dVertex
 10
7.09
 20
9.74
 30
0.0
 70
     8
  0
VERTEX
  5
E35D
330
E332
100
AcDbEntity
  8
0
 62
     1
100
AcDbVertex
100
AcDb2dVertex
 10
6.83
 20
9.49
 30
0.0
 70
     8
  0
VERTEX
  5
E35E
330
E332
100
AcDbEntity
  8
0
 62
     1
100
AcDbVertex
100
AcDb2dVertex
 10
6.63
 20
9.18
 30
0.0
 70
     8
  0
VERTEX
  5
E35F
330
E332
100
AcDbEntity
  8
0
 62
     1
100
AcDbVertex
100
AcDb2dVertex
 10
13.52
 20
20.02
 30
0.0
 70
    16
  0
VERTEX
  5
E360
330
E332
100
AcDbEntity
  8
0
 62
     1
100
AcDbVertex
100
AcDb2dVertex
 10
12.54
 20
19.69
 30
0.0
 70
    16
  0
VERTEX
  5
E361
330
E332
100
AcDbEntity
  8
0
 62
     1
100
AcDbVertex
100
AcDb2dVertex
 10
11.88
 20
18.38
 30
0.0
 70
    16
  0
VERTEX
  5
E362
330
E332
100
AcDbEntity
  8
0
 62
     1
100
AcDbVertex
100
AcDb2dVertex
 10
11.22
 20
16.41
 30
0.0
 70
    16
  0
VERTEX
  5
E363
330
E332
100
AcDbEntity
  8
0
 62
     1
100
AcDbVertex
100
AcDb2dVertex
 10
10.57
 20
13.45
 30
0.0
 70
    16
  0
VERTEX
  5
E364
330
E332
100
AcDbEntity
  8
0
 62
     1
100
AcDbVertex
100
AcDb2dVertex
 10
9.91
 20
11.81
 30
0.0
 70
    16
  0
VERTEX
  5
E365
330
E332
100
AcDbEntity
  8
0
 62
     1
100
AcDbVertex
100
AcDb2dVertex
 10
8.6
 20
10.5
 30
0.0
 70
    16
  0
VERTEX
  5
E366
330
E332
100
AcDbEntity
  8
0
 62
     1
100
AcDbVertex
100
AcDb2dVertex
 10
6.96
 20
9.84
 30
0.0
 70
    16
  0
VERTEX
  5
E367
330
E332
100
AcDbEntity
  8
0
 62
     1
100
AcDbVertex
100
AcDb2dVertex
 10
6.63
 20
9.18
 30
0.0
 70
    16
  0
SEQEND
  5
E368
330
E332
100
AcDbEntity
  8
0
 62
     1
  0
POLYLINE
  5
E369
330
E2DE
100
AcDbEntity
  8
0
 62
     7
100
AcDb2dPolyline
 66
     1
 10
0.0
 20
0.0
 30
0.0
 70
     4
 75
     6
  0
VERTEX
  5
E36A
330
E369
100
AcDbEntity
  8
0
 62
     7
100
AcDbVertex
100
AcDb2dVertex
 10
7.94
 20
16.41
 30
0.0
 70
    16
  0
VERTEX
  5
E36B
330
E369
100
AcDbEntity
  8
0
 62
     7
100
AcDbVertex
100
AcDb2dVertex
 10
7.94
 20
16.41
 30
0.0
 70
     8
  0
VERTEX
  5
E36C
330
E369
100
AcDbEntity
  8
0
 62
     7
100
AcDbVertex
100
AcDb2dVertex
 10
7.66
 20
15.99
 30
0.0
 70
     8
  0
VERTEX
  5
E36D
330
E369
100
AcDbEntity
  8
0
 62
     7
100
AcDbVertex
100
AcDb2dVertex
 10
7.44
 20
15.69
 30
0.0
 70
     8
  0
VERTEX
  5
E36E
330
E369
100
AcDbEntity
  8
0
 62
     7
100
AcDbVertex
100
AcDb2dVertex
 10
7.24
 20
15.46
 30
0.0
 70
     8
  0
VERTEX
  5
E36F
330
E369
100
AcDbEntity
  8
0
 62
     7
100
AcDbVertex
100
AcDb2dVertex
 10
7.02
 20
15.26
 30
0.0
 70
     8
  0
VERTEX
  5
E370
330
E369
100
AcDbEntity
  8
0
 62
     7
100
AcDbVertex
100
AcDb2dVertex
 10
6.72
 20
15.05
 30
0.0
 70
     8
  0
VERTEX
  5
E371
330
E369
100
AcDbEntity
  8
0
 62
     7
100
AcDbVertex
100
AcDb2dVertex
 10
6.3
 20
14.76
 30
0.0
 70
     8
  0
VERTEX
  5
E372
330
E369
100
AcDbEntity
  8
0
 62
     7
100
AcDbVertex
100
AcDb2dVertex
 10
7.28
 20
15.42
 30
0.0
 70
    16
  0
VERTEX
  5
E373
330
E369
100
AcDbEntity
  8
0
 62
     7
100
AcDbVertex
100
AcDb2dVertex
 10
6.3
 20
14.76
 30
0.0
 70
    16
  0
SEQEND
  5
E374
330
E369
100
AcDbEntity
  8
0
 62
     7
  0
POLYLINE
  5
E375
330
E2DE
100
AcDbEntity
  8
0
 62
     7
100
AcDb2dPolyline
 66
     1
 10
0.0
 20
0.0
 30
0.0
 70
     4
 75
     6
  0
VERTEX
  5
E376
330
E375
100
AcDbEntity
  8
0
 62
     7
100
AcDbVertex
100
AcDb2dVertex
 10
9.91
 20
17.06
 30
0.0
 70
    16
  0
VERTEX
  5
E377
330
E375
100
AcDbEntity
  8
0
 62
     7
100
AcDbVertex
100
AcDb2dVertex
 10
9.91
 20
17.06
 30
0.0
 70
     8
  0
VERTEX
  5
E378
330
E375
100
AcDbEntity
  8
0
 62
     7
100
AcDbVertex
100
AcDb2dVertex
 10
9.58
 20
16.16
 30
0.0
 70
     8
  0
VERTEX
  5
E379
330
E375
100
AcDbEntity
  8
0
 62
     7
100
AcDbVertex
100
AcDb2dVertex
 10
9.22
 20
15.38
 30
0.0
 70
     8
  0
VERTEX
  5
E37A
330
E375
100
AcDbEntity
  8
0
 62
     7
100
AcDbVertex
100
AcDb2dVertex
 10
8.8
 20
14.72
 30
0.0
 70
     8
  0
VERTEX
  5
E37B
330
E375
100
AcDbEntity
  8
0
 62
     7
100
AcDbVertex
100
AcDb2dVertex
 10
8.3
 20
14.14
 30
0.0
 70
     8
  0
VERTEX
  5
E37C
330
E375
100
AcDbEntity
  8
0
 62
     7
100
AcDbVertex
100
AcDb2dVertex
 10
7.7
 20
13.62
 30
0.0
 70
     8
  0
VERTEX
  5
E37D
330
E375
100
AcDbEntity
  8
0
 62
     7
100
AcDbVertex
100
AcDb2dVertex
 10
6.96
 20
13.12
 30
0.0
 70
     8
  0
VERTEX
  5
E37E
330
E375
100
AcDbEntity
  8
0
 62
     7
100
AcDbVertex
100
AcDb2dVertex
 10
9.25
 20
15.09
 30
0.0
 70
    16
  0
VERTEX
  5
E37F
330
E375
100
AcDbEntity
  8
0
 62
     7
100
AcDbVertex
100
AcDb2dVertex
 10
8.6
 20
14.11
 30
0.0
 70
    16
  0
VERTEX
  5
E380
330
E375
100
AcDbEntity
  8
0
 62
     7
100
AcDbVertex
100
AcDb2dVertex
 10
6.96
 20
13.12
 30
0.0
 70
    16
  0
SEQEND
  5
E381
330
E375
100
AcDbEntity
  8
0
 62
     7
  0
POLYLINE
  5
E382
330
E2DE
100
AcDbEntity
  8
0
 62
     7
100
AcDb2dPolyline
 66
     1
 10
0.0
 20
0.0
 30
0.0
 70
     4
 75
     6
  0
VERTEX
  5
E383
330
E382
100
AcDbEntity
  8
0
 62
     7
100
AcDbVertex
100
AcDb2dVertex
 10
21.07
 20
16.41
 30
0.0
 70
    16
  0
VERTEX
  5
E384
330
E382
100
AcDbEntity
  8
0
 62
     7
100
AcDbVertex
100
AcDb2dVertex
 10
21.07
 20
16.41
 30
0.0
 70
     8
  0
VERTEX
  5
E385
330
E382
100
AcDbEntity
  8
0
 62
     7
100
AcDbVertex
100
AcDb2dVertex
 10
21.35
 20
15.99
 30
0.0
 70
     8
  0
VERTEX
  5
E386
330
E382
100
AcDbEntity
  8
0
 62
     7
100
AcDbVertex
100
AcDb2dVertex
 10
21.57
 20
15.69
 30
0.0
 70
     8
  0
VERTEX
  5
E387
330
E382
100
AcDbEntity
  8
0
 62
     7
100
AcDbVertex
100
AcDb2dVertex
 10
21.77
 20
15.46
 30
0.0
 70
     8
  0
VERTEX
  5
E388
330
E382
100
AcDbEntity
  8
0
 62
     7
100
AcDbVertex
100
AcDb2dVertex
 10
22.0
 20
15.26
 30
0.0
 70
     8
  0
VERTEX
  5
E389
330
E382
100
AcDbEntity
  8
0
 62
     7
100
AcDbVertex
100
AcDb2dVertex
 10
22.3
 20
15.05
 30
0.0
 70
     8
  0
VERTEX
  5
E38A
330
E382
100
AcDbEntity
  8
0
 62
     7
100
AcDbVertex
100
AcDb2dVertex
 10
22.71
 20
14.76
 30
0.0
 70
     8
  0
VERTEX
  5
E38B
330
E382
100
AcDbEntity
  8
0
 62
     7
100
AcDbVertex
100
AcDb2dVertex
 10
21.73
 20
15.42
 30
0.0
 70
    16
  0
VERTEX
  5
E38C
330
E382
100
AcDbEntity
  8
0
 62
     7
100
AcDbVertex
100
AcDb2dVertex
 10
22.71
 20
14.76
 30
0.0
 70
    16
  0
SEQEND
  5
E38D
330
E382
100
AcDbEntity
  8
0
 62
     7
  0
POLYLINE
  5
E38E
330
E2DE
100
AcDbEntity
  8
0
 62
     7
100
AcDb2dPolyline
 66
     1
 10
0.0
 20
0.0
 30
0.0
 70
     4
 75
     6
  0
VERTEX
  5
E38F
330
E38E
100
AcDbEntity
  8
0
 62
     7
100
AcDbVertex
100
AcDb2dVertex
 10
19.1
 20
17.06
 30
0.0
 70
    16
  0
VERTEX
  5
E390
330
E38E
100
AcDbEntity
  8
0
 62
     7
100
AcDbVertex
100
AcDb2dVertex
 10
19.1
 20
17.06
 30
0.0
 70
     8
  0
VERTEX
  5
E391
330
E38E
100
AcDbEntity
  8
0
 62
     7
100
AcDbVertex
100
AcDb2dVertex
 10
19.44
 20
16.16
 30
0.0
 70
     8
  0
VERTEX
  5
E392
330
E38E
100
AcDbEntity
  8
0
 62
     7
100
AcDbVertex
100
AcDb2dVertex
 10
19.8
 20
15.38
 30
0.0
 70
     8
  0
VERTEX
  5
E393
330
E38E
100
AcDbEntity
  8
0
 62
     7
100
AcDbVertex
100
AcDb2dVertex
 10
20.21
 20
14.72
 30
0.0
 70
     8
  0
VERTEX
  5
E394
330
E38E
100
AcDbEntity
  8
0
 62
     7
100
AcDbVertex
100
AcDb2dVertex
 10
20.71
 20
14.14
 30
0.0
 70
     8
  0
VERTEX
  5
E395
330
E38E
100
AcDbEntity
  8
0
 62
     7
100
AcDbVertex
100
AcDb2dVertex
 10
21.31
 20
13.62
 30
0.0
 70
     8
  0
VERTEX
  5
E396
330
E38E
100
AcDbEntity
  8
0
 62
     7
100
AcDbVertex
100
AcDb2dVertex
 10
22.06
 20
13.12
 30
0.0
 70
     8
  0
VERTEX
  5
E397
330
E38E
100
AcDbEntity
  8
0
 62
     7
100
AcDbVertex
100
AcDb2dVertex
 10
19.76
 20
15.09
 30
0.0
 70
    16
  0
VERTEX
  5
E398
330
E38E
100
AcDbEntity
  8
0
 62
     7
100
AcDbVertex
100
AcDb2dVertex
 10
20.42
 20
14.11
 30
0.0
 70
    16
  0
VERTEX
  5
E399
330
E38E
100
AcDbEntity
  8
0
 62
     7
100
AcDbVertex
100
AcDb2dVertex
 10
22.06
 20
13.12
 30
0.0
 70
    16
  0
SEQEND
  5
E39A
330
E38E
100
AcDbEntity
  8
0
 62
     7
  0
POLYLINE
  5
E39B
330
E2DE
100
AcDbEntity
  8
0
 62
     7
100
AcDb2dPolyline
 66
     1
 10
0.0
 20
0.0
 30
0.0
 70
     1
  0
VERTEX
  5
E39C
330
E39B
100
AcDbEntity
  8
0
 62
     7
100
AcDbVertex
100
AcDb2dVertex
 10
0.0
 20
0.0
 30
0.0
  0
VERTEX
  5
E39D
330
E39B
100
AcDbEntity
  8
0
 62
     7
100
AcDbVertex
100
AcDb2dVertex
 10
0.0
 20
25.0
 30
0.0
  0
VERTEX
  5
E39E
330
E39B
100
AcDbEntity
  8
0
 62
     7
100
AcDbVertex
100
AcDb2dVertex
 10
29.0
 20
25.0
 30
0.0
  0
VERTEX
  5
E39F
330
E39B
100
AcDbEntity
  8
0
 62
     7
100
AcDbVertex
100
AcDb2dVertex
 10
29.0
 20
0.0
 30
0.0
  0
SEQEND
  5
E3A0
330
E39B
100
AcDbEntity
  8
0
 62
     7
  0
TEXT
  5
E3A1
330
E2DE
100
AcDbEntity
  8
0
 62
     7
100
AcDbText
 10
11.17
 20
2.0
 30
0.0
 40
4.0
  1
am
 72
     1
 11
14.5
 21
2.0
 31
0.0
100
AcDbText
  0
ENDBLK
  5
E3C6
330
E2DE
100
AcDbEntity
  8
0
100
AcDbBlockEnd
  0
ENDSEC
  0
SECTION
  2
ENTITIES
  0
INSERT
  5
11
330
DFCD
100
AcDbEntity
  8
1
 62
     7
100
AcDbBlockReference
 66
     1
  2
-SADMIN
 10
580.0
 20
0.0
 30
0.0
  0
ATTRIB
  5
12
330
11
100
AcDbEntity
  8
0
 62
     7
100
AcDbText
 10
604.05
 20
25.52
 30
0.0
 40
4.0
  1
1
 11
0.0
 21
0.0
 31
0.0
100
AcDbAttribute
  2
$PAGE_NO
 70
     0
  0
ATTRIB
  5
13
330
11
100
AcDbEntity
  8
0
 62
     7
100
AcDbText
 10
618.1
 20
25.54
 30
0.0
 40
4.0
  1
1
 11
0.0
 21
0.0
 31
0.0
100
AcDbAttribute
  2
$PAGE_TOTAL
 70
     0
  0
ATTRIB
  5
14
330
11
100
AcDbEntity
  8
0
 62
     7
100
AcDbText
 10
601.19
 20
14.96
 30
0.0
 40
4.0
  1
normal
 11
0.0
 21
0.0
 31
0.0
100
AcDbAttribute
  2
$PAGE_SIZE
 70
     1
  0
ATTRIB
  5
15
330
11
100
AcDbEntity
  8
0
 62
     7
100
AcDbText
 10
601.19
 20
20.01
 30
0.0
 40
4.0
  1
1
  7
TXT
 11
0.0
 21
0.0
 31
0.0
100
AcDbAttribute
  2
$PAGE_CURR
 70
     1
  0
SEQEND
  5
16
330
11
100
AcDbEntity
  8
1
 62
     7
  0
INSERT
  5
E028
330
DFCD
100
AcDbEntity
  8
1
 62
     7
100
AcDbBlockReference
  2
COMPANY
 10
0.0
 20
0.0
 30
0.0
  0
INSERT
  5
E02E
330
DFCD
100
AcDbEntity
  8
1
 62
     7
100
AcDbBlockReference
  2
CUSTOMER
 10
0.0
 20
0.0
 30
0.0
  0
INSERT
  5
E06D
330
DFCD
100
AcDbEntity
  8
0
 62
     7
100
AcDbBlockReference
 66
     1
  2
-ADMIN
 10
0.0
 20
0.0
 30
0.0
  0
ATTRIB
  5
E06E
330
E06D
100
AcDbEntity
  8
0
 62
     7
100
AcDbText
 10
475.15
 20
13.45
 30
0.0
 40
4.0
  1
LI-512
  7
MONOTXT
 11
0.0
 21
0.0
 31
0.0
100
AcDbAttribute
  2
$NAME
 70
     0
  0
ATTRIB
  5
E06F
330
E06D
100
AcDbEntity
  8
0
 62
     7
100
AcDbText
 10
543.15
 20
13.86
 30
0.0
 40
4.0
  1

  7
MONOTXT
 11
0.0
 21
0.0
 31
0.0
100
AcDbAttribute
  2
$DESCRIPTION1
 70
     0
  0
ATTRIB
  5
E070
330
E06D
100
AcDbEntity
  8
0
 62
     7
100
AcDbText
 10
543.24
 20
4.73
 30
0.0
 40
4.0
  1

  7
MONOTXT
 11
0.0
 21
0.0
 31
0.0
100
AcDbAttribute
  2
$DESCRIPTION2
 70
     0
  0
ATTRIB
  5
E071
330
E06D
100
AcDbEntity
  8
0
 62
     7
100
AcDbText
 10
605.0
 20
5.0
 30
0.0
 40
4.0
  1
complete
  7
MONOTXT
 11
0.0
 21
0.0
 31
0.0
100
AcDbAttribute
  2
$STATUS
 70
     1
  0
ATTRIB
  5
E072
330
E06D
100
AcDbEntity
  8
0
 62
     7
100
AcDbText
 10
144.76
 20
18.04
 30
0.0
 40
4.0
  1
quang1300
  7
MONOTXT
 11
0.0
 21
0.0
 31
0.0
100
AcDbAttribute
  2
$CREATOR
 70
     0
  0
ATTRIB
  5
E073
330
E06D
100
AcDbEntity
  8
0
 62
     7
100
AcDbText
 10
87.63
 20
18.04
 30
0.0
 40
4.0
  1
18-04-20 14:30
  7
MONOTXT
 11
0.0
 21
0.0
 31
0.0
100
AcDbAttribute
  2
$CREATED
 70
     0
  0
ATTRIB
  5
E074
330
E06D
100
AcDbEntity
  8
0
 62
     7
100
AcDbText
 10
144.76
 20
1.89
 30
0.0
 40
4.0
  1
quang1300
  7
MONOTXT
 11
0.0
 21
0.0
 31
0.0
100
AcDbAttribute
  2
$MODIFIER
 70
     0
  0
ATTRIB
  5
E075
330
E06D
100
AcDbEntity
  8
0
 62
     7
100
AcDbText
 10
87.54
 20
1.79
 30
0.0
 40
4.0
  1
18-04-28 17:36
  7
MONOTXT
 11
0.0
 21
0.0
 31
0.0
100
AcDbAttribute
  2
$MODIFIED
 70
     0
  0
ATTRIB
  5
E076
330
E06D
100
AcDbEntity
  8
0
 62
     7
100
AcDbText
 10
368.0
 20
23.0
 30
0.0
 40
5.0
  1

  7
MONOTXT
 11
0.0
 21
0.0
 31
0.0
100
AcDbAttribute
  2
$PROCESSAREA1
 70
     0
  0
ATTRIB
  5
E077
330
E06D
100
AcDbEntity
  8
0
 62
     7
100
AcDbText
 10
368.0
 20
16.0
 30
0.0
 40
5.0
  1

  7
MONOTXT
 11
0.0
 21
0.0
 31
0.0
100
AcDbAttribute
  2
$PROCESSAREA2
 70
     0
  0
ATTRIB
  5
E078
330
E06D
100
AcDbEntity
  8
0
 62
     7
100
AcDbText
 10
368.0
 20
9.0
 30
0.0
 40
5.0
  1

  7
MONOTXT
 11
0.0
 21
0.0
 31
0.0
100
AcDbAttribute
  2
$PROCESSAREA3
 70
     0
  0
ATTRIB
  5
E079
330
E06D
100
AcDbEntity
  8
0
 62
     7
100
AcDbText
 10
368.0
 20
2.0
 30
0.0
 40
5.0
  1

  7
MONOTXT
 11
0.0
 21
0.0
 31
0.0
100
AcDbAttribute
  2
$PROCESSAREA4
 70
     0
  0
SEQEND
  5
E07A
330
E06D
100
AcDbEntity
  8
0
 62
     7
  0
INSERT
  5
E09E
330
DFCD
100
AcDbEntity
  8
1
 62
     7
100
AcDbBlockReference
 66
     1
  2
-FADMIN
 10
0.0
 20
0.0
 30
0.0
  0
ATTRIB
  5
E09F
330
E09E
100
AcDbEntity
  8
0
100
AcDbText
 10
107.28
 20
403.4
 30
0.0
 40
5.0
  1
pr:LI-512.F
 11
0.0
 21
0.0
 31
0.0
100
AcDbAttribute
  2
$NAME
 70
     0
  0
ATTRIB
  5
E0A0
330
E09E
100
AcDbEntity
  8
0
100
AcDbText
 10
248.61
 20
411.08
 30
0.0
 40
5.0
  1
AP01
 11
0.0
 21
0.0
 31
0.0
100
AcDbAttribute
  2
$DESTINATION
 70
     0
  0
ATTRIB
  5
E0A1
330
E09E
100
AcDbEntity
  8
0
100
AcDbText
 10
241.35
 20
398.89
 30
0.0
 40
5.0
  1
1000
 11
0.0
 21
0.0
 31
0.0
100
AcDbAttribute
  2
$EXECUTION
 70
     0
  0
ATTRIB
  5
E0A2
330
E09E
100
AcDbEntity
  8
0
100
AcDbText
 10
241.35
 20
386.89
 30
0.0
 40
5.0
  1
20
 11
0.0
 21
0.0
 31
0.0
100
AcDbAttribute
  2
$ORDINAL
 70
     0
  0
SEQEND
  5
E0A3
330
E09E
100
AcDbEntity
  8
1
 62
     7
  0
INSERT
  5
E17E
330
DFCD
100
AcDbEntity
  8
1
 62
     7
100
AcDbBlockReference
 66
     1
  2
-IO_TI4
 10
100.0
 20
290.0
 30
0.0
  0
ATTRIB
  5
E17F
330
E17E
100
AcDbEntity
  8
0
 62
     7
100
AcDbText
 10
27.75
 20
306.33
 30
0.0
 40
5.0
  1
pr:LI-512.I
  7
TXT
 72
     4
 11
54.0
 21
308.0
 31
0.0
100
AcDbAttribute
  2
$NAME
 70
     0
  0
ATTRIB
  5
E180
330
E17E
100
AcDbEntity
  8
0
 62
     7
100
AcDbText
 10
70.83
 20
315.5
 30
0.0
 40
5.0
  1
LI4
  7
TXT
 72
     4
 11
77.5
 21
318.0
 31
0.0
100
AcDbAttribute
  2
$IOCARDTYP
 70
     0
  0
ATTRIB
  5
E181
330
E17E
100
AcDbEntity
  8
0
 62
     7
100
AcDbText
 10
70.0
 20
340.0
 30
0.0
 40
4.0
  1

  7
TXT
 11
0.0
 21
0.0
 31
0.0
100
AcDbAttribute
  2
$IOCABINET
 70
     1
  0
ATTRIB
  5
E182
330
E17E
100
AcDbEntity
  8
0
 62
     7
100
AcDbText
 10
44.67
 20
297.0
 30
0.0
 40
4.0
  1
3
  7
TXT
 72
     4
 11
46.0
 21
299.0
 31
0.0
100
AcDbAttribute
  2
$FBC(2-15)
 70
     0
  0
ATTRIB
  5
E183
330
E17E
100
AcDbEntity
  8
0
 62
     7
100
AcDbText
 10
58.67
 20
297.0
 30
0.0
 40
4.0
  1
0
  7
TXT
 72
     4
 11
60.0
 21
299.0
 31
0.0
100
AcDbAttribute
  2
$PIC(0-15)
 70
     0
  0
ATTRIB
  5
E184
330
E17E
100
AcDbEntity
  8
0
 62
     7
100
AcDbText
 10
72.67
 20
297.0
 30
0.0
 40
4.0
  1
0
  7
TXT
 72
     4
 11
74.0
 21
299.0
 31
0.0
100
AcDbAttribute
  2
$CARD(0-15)
 70
     0
  0
ATTRIB
  5
E185
330
E17E
100
AcDbEntity
  8
0
 62
     7
100
AcDbText
 10
86.67
 20
297.0
 30
0.0
 40
4.0
  1
0
  7
TXT
 72
     4
 11
88.0
 21
299.0
 31
0.0
100
AcDbAttribute
  2
$CHANNEL(0-3)
 70
     0
  0
ATTRIB
  5
E186
330
E17E
100
AcDbEntity
  8
0
 62
     7
100
AcDbText
 10
13.0
 20
258.0
 30
0.0
 40
4.0
  1
&mi
  7
TXT
 11
0.0
 21
0.0
 31
0.0
100
AcDbAttribute
  2
$PAR1
 70
     1
  0
ATTRIB
  5
E187
330
E17E
100
AcDbEntity
  8
0
 62
     7
100
AcDbText
 10
13.0
 20
252.0
 30
0.0
 40
4.0
  1
&ma
  7
TXT
 11
0.0
 21
0.0
 31
0.0
100
AcDbAttribute
  2
$PAR2
 70
     1
  0
ATTRIB
  5
E188
330
E17E
100
AcDbEntity
  8
0
 62
     7
100
AcDbText
 10
13.0
 20
246.0
 30
0.0
 40
4.0
  1
0
  7
TXT
 11
0.0
 21
0.0
 31
0.0
100
AcDbAttribute
  2
$PAR3
 70
     1
  0
ATTRIB
  5
E189
330
E17E
100
AcDbEntity
  8
0
 62
     7
100
AcDbText
 10
13.0
 20
234.0
 30
0.0
 40
4.0
  1
7
  7
TXT
 11
0.0
 21
0.0
 31
0.0
100
AcDbAttribute
  2
$PAR5
 70
     1
  0
ATTRIB
  5
E18A
330
E17E
100
AcDbEntity
  8
0
 62
     7
100
AcDbText
 10
13.0
 20
228.0
 30
0.0
 40
4.0
  1
""
  7
TXT
 11
0.0
 21
0.0
 31
0.0
100
AcDbAttribute
  2
$PAR6
 70
     1
  0
ATTRIB
  5
E18B
330
E17E
100
AcDbEntity
  8
0
 62
     7
100
AcDbText
 10
13.0
 20
222.0
 30
0.0
 40
4.0
  1
0
  7
TXT
 11
0.0
 21
0.0
 31
0.0
100
AcDbAttribute
  2
$PAR7
 70
     1
  0
ATTRIB
  5
E18C
330
E17E
100
AcDbEntity
  8
0
 62
     7
100
AcDbText
 10
13.0
 20
216.0
 30
0.0
 40
4.0
  1
0
  7
TXT
 11
0.0
 21
0.0
 31
0.0
100
AcDbAttribute
  2
$PAR8
 70
     1
  0
ATTRIB
  5
E18D
330
E17E
100
AcDbEntity
  8
0
 62
     7
100
AcDbText
 10
13.0
 20
210.0
 30
0.0
 40
4.0
  1
4
  7
TXT
 11
0.0
 21
0.0
 31
0.0
100
AcDbAttribute
  2
$PAR9
 70
     1
  0
ATTRIB
  5
E18E
330
E17E
100
AcDbEntity
  8
0
 62
     7
100
AcDbText
 10
39.67
 20
278.0
 30
0.0
 40
4.0
  1
0 - 2000 mm H2O
  7
TXT
 72
     4
 11
69.0
 21
280.0
 31
0.0
100
AcDbAttribute
  2
$SCALE
 70
     0
  0
ATTRIB
  5
E18F
330
E17E
100
AcDbEntity
  8
0
 62
     7
100
AcDbText
 10
13.0
 20
268.0
 30
0.0
 40
4.0
  1

  7
TXT
 11
0.0
 21
0.0
 31
0.0
100
AcDbAttribute
  2
$COMMENT
 70
     0
  0
ATTRIB
  5
E190
330
E17E
100
AcDbEntity
  8
0
 62
     7
100
AcDbText
 10
70.0
 20
258.0
 30
0.0
 40
4.0
  1

  7
TXT
 11
0.0
 21
0.0
 31
0.0
100
AcDbAttribute
  2
$SIM_HEADER
 70
     1
  0
ATTRIB
  5
E191
330
E17E
100
AcDbEntity
  8
0
 62
     7
100
AcDbText
 10
70.0
 20
198.0
 30
0.0
 40
4.0
  1
DefSimGroup
  7
TXT
 11
0.0
 21
0.0
 31
0.0
100
AcDbAttribute
  2
$SIM_SIMGRP
 70
     1
  0
ATTRIB
  5
E192
330
E17E
100
AcDbEntity
  8
0
 62
     7
100
AcDbText
 10
70.0
 20
192.0
 30
0.0
 40
4.0
  1
1
  7
TXT
 11
0.0
 21
0.0
 31
0.0
100
AcDbAttribute
  2
$SIM_PERMITTED
 70
     1
  0
ATTRIB
  5
E193
330
E17E
100
AcDbEntity
  8
0
 62
     7
100
AcDbText
 10
70.0
 20
186.0
 30
0.0
 40
4.0
  1

  7
TXT
 11
0.0
 21
0.0
 31
0.0
100
AcDbAttribute
  2
$SIM_LOCATION
 70
     1
  0
ATTRIB
  5
E194
330
E17E
100
AcDbEntity
  8
0
 62
     7
100
AcDbText
 10
70.0
 20
180.0
 30
0.0
 40
4.0
  1

  7
TXT
 11
0.0
 21
0.0
 31
0.0
100
AcDbAttribute
  2
$SIM_DOCLINK1
 70
     1
  0
ATTRIB
  5
E195
330
E17E
100
AcDbEntity
  8
0
 62
     7
100
AcDbText
 10
70.0
 20
174.0
 30
0.0
 40
4.0
  1

  7
TXT
 11
0.0
 21
0.0
 31
0.0
100
AcDbAttribute
  2
$SIM_DOCLINK2
 70
     1
  0
ATTRIB
  5
E196
330
E17E
100
AcDbEntity
  8
0
 62
     7
100
AcDbText
 10
70.0
 20
168.0
 30
0.0
 40
4.0
  1

  7
TXT
 11
0.0
 21
0.0
 31
0.0
100
AcDbAttribute
  2
$SIM_DOCLINK3
 70
     1
  0
ATTRIB
  5
E197
330
E17E
100
AcDbEntity
  8
0
 62
     7
100
AcDbText
 10
70.0
 20
162.0
 30
0.0
 40
4.0
  1

  7
TXT
 11
0.0
 21
0.0
 31
0.0
100
AcDbAttribute
  2
$SIM_DOCLINK4
 70
     1
  0
ATTRIB
  5
E198
330
E17E
100
AcDbEntity
  8
0
 62
     7
100
AcDbText
 10
70.0
 20
156.0
 30
0.0
 40
4.0
  1

  7
TXT
 11
0.0
 21
0.0
 31
0.0
100
AcDbAttribute
  2
$SIM_DOCLINK5
 70
     1
  0
ATTRIB
  5
E199
330
E17E
100
AcDbEntity
  8
0
 62
     7
100
AcDbText
 10
70.0
 20
150.0
 30
0.0
 40
4.0
  1

  7
TXT
 11
0.0
 21
0.0
 31
0.0
100
AcDbAttribute
  2
$SIM_IOMAPPING
 70
     1
  0
ATTRIB
  5
E19A
330
E17E
100
AcDbEntity
  8
0
 62
     7
100
AcDbText
 10
70.0
 20
144.0
 30
0.0
 40
4.0
  1

  7
TXT
 11
0.0
 21
0.0
 31
0.0
100
AcDbAttribute
  2
$SIM_DEVICETAG
 70
     1
  0
ATTRIB
  5
E19B
330
E17E
100
AcDbEntity
  8
0
 62
     7
100
AcDbText
 10
70.0
 20
138.0
 30
0.0
 40
4.0
  1

  7
TXT
 11
0.0
 21
0.0
 31
0.0
100
AcDbAttribute
  2
$SIM_TAG
 70
     1
  0
ATTRIB
  5
E19C
330
E17E
100
AcDbEntity
  8
0
 62
     7
100
AcDbText
 10
70.0
 20
132.0
 30
0.0
 40
4.0
  1
60
  7
TXT
 11
0.0
 21
0.0
 31
0.0
100
AcDbAttribute
  2
$SIM_SCANRATE
 70
     1
  0
ATTRIB
  5
E19D
330
E17E
100
AcDbEntity
  8
0
 62
     7
100
AcDbText
 10
70.0
 20
126.0
 30
0.0
 40
4.0
  1
2
  7
TXT
 11
0.0
 21
0.0
 31
0.0
100
AcDbAttribute
  2
$SIM_DESC
 70
     1
  0
ATTRIB
  5
E19E
330
E17E
100
AcDbEntity
  8
0
 62
     7
100
AcDbText
 10
70.0
 20
120.0
 30
0.0
 40
4.0
  1

  7
TXT
 11
0.0
 21
0.0
 31
0.0
100
AcDbAttribute
  2
$SIM_INTERFACETYPE
 70
     1
  0
ATTRIB
  5
E19F
330
E17E
100
AcDbEntity
  8
0
 62
     7
100
AcDbText
 10
70.0
 20
114.0
 30
0.0
 40
4.0
  1

  7
TXT
 11
0.0
 21
0.0
 31
0.0
100
AcDbAttribute
  2
$SIM_ADDINFO
 70
     1
  0
ATTRIB
  5
E1A0
330
E17E
100
AcDbEntity
  8
0
 62
     7
100
AcDbText
 10
70.0
 20
108.0
 30
0.0
 40
4.0
  1

  7
TXT
 11
0.0
 21
0.0
 31
0.0
100
AcDbAttribute
  2
$SIM_COMMENTS
 70
     1
  0
SEQEND
  5
E1A1
330
E17E
100
AcDbEntity
  8
1
 62
     7
  0
INSERT
  5
E1D7
330
DFCD
100
AcDbEntity
  8
1
 62
     7
100
AcDbBlockReference
 66
     1
  2
AM_IN
 10
210.0
 20
290.0
 30
0.0
  0
ATTRIB
  5
E1D8
330
E1D7
100
AcDbEntity
  8
0
100
AcDbText
 10
240.57
 20
302.95
 30
0.0
 40
4.0
  1
1
 72
     2
 11
242.57
 21
302.95
 31
0.0
100
AcDbAttribute
  2
$ORDER
 70
     0
  0
ATTRIB
  5
E1D9
330
E1D7
100
AcDbEntity
  8
0
100
AcDbText
 10
227.23
 20
314.78
 30
0.0
 40
4.0
  1
pr:LI-512
 72
     4
 11
244.56
 21
316.11
 31
0.0
100
AcDbAttribute
  2
$PORT
 70
     0
  0
ATTRIB
  5
E1DA
330
E1D7
100
AcDbEntity
  8
0
100
AcDbText
 10
265.73
 20
304.73
 30
0.0
 40
4.0
  1
1
 11
0.0
 21
0.0
 31
0.0
100
AcDbAttribute
  2
HYST=
 70
     1
  0
ATTRIB
  5
E1DB
330
E1D7
100
AcDbEntity
  8
0
100
AcDbText
 10
265.93
 20
299.81
 30
0.0
 40
4.0
  1
2000.0
 11
0.0
 21
0.0
 31
0.0
100
AcDbAttribute
  2
HH<
 70
     1
  0
ATTRIB
  5
E1DC
330
E1D7
100
AcDbEntity
  8
0
100
AcDbText
 10
265.93
 20
292.86
 30
0.0
 40
4.0
  1
2000.0
 11
0.0
 21
0.0
 31
0.0
100
AcDbAttribute
  2
H<
 70
     1
  0
ATTRIB
  5
E1DD
330
E1D7
100
AcDbEntity
  8
0
100
AcDbText
 10
265.73
 20
286.32
 30
0.0
 40
4.0
  1
0.0
 11
0.0
 21
0.0
 31
0.0
100
AcDbAttribute
  2
L<
 70
     1
  0
ATTRIB
  5
E1DE
330
E1D7
100
AcDbEntity
  8
0
100
AcDbText
 10
265.73
 20
279.38
 30
0.0
 40
4.0
  1
0.0
 11
0.0
 21
0.0
 31
0.0
100
AcDbAttribute
  2
LL<
 70
     1
  0
SEQEND
  5
E1DF
330
E1D7
100
AcDbEntity
  8
1
 62
     7
  0
LWPOLYLINE
  5
E1F0
330
DFCD
100
AcDbEntity
  8
1
 62
     3
100
AcDbPolyline
 90
        4
 70
     0
 10
100.0
 20
290.0
 40
0.0
 41
0.0
 10
205.0
 20
290.0
 40
0.0
 41
0.0
 10
205.0
 20
290.0
 40
5.0
 41
0.0
 10
210.0
 20
290.0
 40
0.0
 41
0.0
  0
INSERT
  5
E263
330
DFCD
100
AcDbEntity
  8
1
 62
     3
100
AcDbBlockReference
 66
     1
  2
-CE_AM
 10
195.0
 20
340.0
 30
0.0
  0
ATTRIB
  5
E264
330
E263
100
AcDbEntity
  8
0
 62
     7
100
AcDbText
 10
200.0
 20
330.0
 30
0.0
 40
4.0
  1
LI-512
 11
0.0
 21
0.0
 31
0.0
100
AcDbAttribute
  2
$NAME
 70
     1
  0
ATTRIB
  5
E265
330
E263
100
AcDbEntity
  8
0
 62
     7
100
AcDbText
 10
200.0
 20
325.0
 30
0.0
 40
4.0
  1
A1
 11
0.0
 21
0.0
 31
0.0
100
AcDbAttribute
  2
$CR
 70
     1
  0
ATTRIB
  5
E266
330
E263
100
AcDbEntity
  8
0
 62
     7
100
AcDbText
 10
200.0
 20
320.0
 30
0.0
 40
4.0
  1

 11
0.0
 21
0.0
 31
0.0
100
AcDbAttribute
  2
NAME1
 70
     1
  0
ATTRIB
  5
E267
330
E263
100
AcDbEntity
  8
0
 62
     7
100
AcDbText
 10
200.0
 20
315.0
 30
0.0
 40
4.0
  1

 11
0.0
 21
0.0
 31
0.0
100
AcDbAttribute
  2
NAME2
 70
     1
  0
ATTRIB
  5
E268
330
E263
100
AcDbEntity
  8
0
 62
     7
100
AcDbText
 10
200.0
 20
310.0
 30
0.0
 40
4.0
  1

 11
0.0
 21
0.0
 31
0.0
100
AcDbAttribute
  2
NAME3
 70
     1
  0
ATTRIB
  5
E269
330
E263
100
AcDbEntity
  8
0
 62
     7
100
AcDbText
 10
200.0
 20
305.0
 30
0.0
 40
4.0
  1
LI-512
 11
0.0
 21
0.0
 31
0.0
100
AcDbAttribute
  2
POS1
 70
     1
  0
ATTRIB
  5
E26A
330
E263
100
AcDbEntity
  8
0
 62
     7
100
AcDbText
 10
200.0
 20
300.0
 30
0.0
 40
4.0
  1

 11
0.0
 21
0.0
 31
0.0
100
AcDbAttribute
  2
POS2
 70
     1
  0
ATTRIB
  5
E26B
330
E263
100
AcDbEntity
  8
0
 62
     7
100
AcDbText
 10
200.0
 20
295.0
 30
0.0
 40
4.0
  1

 11
0.0
 21
0.0
 31
0.0
100
AcDbAttribute
  2
POS3
 70
     1
  0
ATTRIB
  5
E26C
330
E263
100
AcDbEntity
  8
0
 62
     7
100
AcDbText
 10
200.0
 20
290.0
 30
0.0
 40
4.0
  1

 11
0.0
 21
0.0
 31
0.0
100
AcDbAttribute
  2
INFO
 70
     1
  0
ATTRIB
  5
E26D
330
E263
100
AcDbEntity
  8
0
 62
     7
100
AcDbText
 10
200.0
 20
285.0
 30
0.0
 40
4.0
  1
LI-512
 11
0.0
 21
0.0
 31
0.0
100
AcDbAttribute
  2
OPTM
 70
     1
  0
ATTRIB
  5
E26E
330
E263
100
AcDbEntity
  8
0
 62
     7
100
AcDbText
 10
200.0
 20
280.0
 30
0.0
 40
4.0
  1
0
 11
0.0
 21
0.0
 31
0.0
100
AcDbAttribute
  2
SCMIN
 70
     1
  0
ATTRIB
  5
E26F
330
E263
100
AcDbEntity
  8
0
 62
     7
100
AcDbText
 10
200.0
 20
275.0
 30
0.0
 40
4.0
  1
100
 11
0.0
 21
0.0
 31
0.0
100
AcDbAttribute
  2
SCMAX
 70
     1
  0
ATTRIB
  5
E270
330
E263
100
AcDbEntity
  8
0
 62
     7
100
AcDbText
 10
200.0
 20
270.0
 30
0.0
 40
4.0
  1
0
 11
0.0
 21
0.0
 31
0.0
100
AcDbAttribute
  2
SCPREC
 70
     1
  0
ATTRIB
  5
E271
330
E263
100
AcDbEntity
  8
0
 62
     7
100
AcDbText
 10
200.0
 20
265.0
 30
0.0
 40
4.0
  1
%
 11
0.0
 21
0.0
 31
0.0
100
AcDbAttribute
  2
UNIT
 70
     1
  0
ATTRIB
  5
E272
330
E263
100
AcDbEntity
  8
0
 62
     7
100
AcDbText
 10
200.0
 20
260.0
 30
0.0
 40
4.0
  1
1
 11
0.0
 21
0.0
 31
0.0
100
AcDbAttribute
  2
POSOP
 70
     1
  0
ATTRIB
  5
E273
330
E263
100
AcDbEntity
  8
0
 62
     7
100
AcDbText
 10
200.0
 20
255.0
 30
0.0
 40
4.0
  1
0
 11
0.0
 21
0.0
 31
0.0
100
AcDbAttribute
  2
MEOP
 70
     1
  0
ATTRIB
  5
E274
330
E263
100
AcDbEntity
  8
0
 62
     7
100
AcDbText
 10
198.0
 20
334.5
 30
0.0
 40
4.0
  1
0
 11
0.0
 21
0.0
 31
0.0
100
AcDbAttribute
  2
$DID
 70
     0
  0
ATTRIB
  5
E275
330
E263
100
AcDbEntity
  8
0
 62
     7
100
AcDbText
 10
200.0
 20
245.0
 30
0.0
 40
4.0
  1
0
 11
0.0
 21
0.0
 31
0.0
100
AcDbAttribute
  2
--HH
 70
     1
  0
ATTRIB
  5
E276
330
E263
100
AcDbEntity
  8
0
 62
     7
100
AcDbText
 10
200.0
 20
240.0
 30
0.0
 40
4.0
  1
1
 11
0.0
 21
0.0
 31
0.0
100
AcDbAttribute
  2
--H
 70
     1
  0
ATTRIB
  5
E277
330
E263
100
AcDbEntity
  8
0
 62
     7
100
AcDbText
 10
200.0
 20
235.0
 30
0.0
 40
4.0
  1
1
 11
0.0
 21
0.0
 31
0.0
100
AcDbAttribute
  2
--L
 70
     1
  0
ATTRIB
  5
E278
330
E263
100
AcDbEntity
  8
0
 62
     7
100
AcDbText
 10
200.0
 20
230.0
 30
0.0
 40
4.0
  1
0
 11
0.0
 21
0.0
 31
0.0
100
AcDbAttribute
  2
--LL
 70
     1
  0
ATTRIB
  5
E279
330
E263
100
AcDbEntity
  8
0
 62
     7
100
AcDbText
 10
200.0
 20
225.0
 30
0.0
 40
4.0
  1
1
 11
0.0
 21
0.0
 31
0.0
100
AcDbAttribute
  2
--F
 70
     1
  0
ATTRIB
  5
E27A
330
E263
100
AcDbEntity
  8
0
 62
     7
100
AcDbText
 10
200.0
 20
220.0
 30
0.0
 40
4.0
  1
0
 11
0.0
 21
0.0
 31
0.0
100
AcDbAttribute
  2
---OHH
 70
     1
  0
ATTRIB
  5
E27B
330
E263
100
AcDbEntity
  8
0
 62
     7
100
AcDbText
 10
200.0
 20
215.0
 30
0.0
 40
4.0
  1
0
 11
0.0
 21
0.0
 31
0.0
100
AcDbAttribute
  2
---OH
 70
     1
  0
ATTRIB
  5
E27C
330
E263
100
AcDbEntity
  8
0
 62
     7
100
AcDbText
 10
200.0
 20
210.0
 30
0.0
 40
4.0
  1
0
 11
0.0
 21
0.0
 31
0.0
100
AcDbAttribute
  2
---OL
 70
     1
  0
ATTRIB
  5
E27D
330
E263
100
AcDbEntity
  8
0
 62
     7
100
AcDbText
 10
200.0
 20
205.0
 30
0.0
 40
4.0
  1
0
 11
0.0
 21
0.0
 31
0.0
100
AcDbAttribute
  2
---OLL
 70
     1
  0
ATTRIB
  5
E27E
330
E263
100
AcDbEntity
  8
0
 62
     7
100
AcDbText
 10
200.0
 20
200.0
 30
0.0
 40
4.0
  1
0
 11
0.0
 21
0.0
 31
0.0
100
AcDbAttribute
  2
---OOUT
 70
     1
  0
ATTRIB
  5
E27F
330
E263
100
AcDbEntity
  8
0
 62
     7
100
AcDbText
 10
200.0
 20
195.0
 30
0.0
 40
4.0
  1
0
 11
0.0
 21
0.0
 31
0.0
100
AcDbAttribute
  2
---OESTO
 70
     1
  0
ATTRIB
  5
E280
330
E263
100
AcDbEntity
  8
0
 62
     7
100
AcDbText
 10
200.0
 20
190.0
 30
0.0
 40
4.0
  1
1
 11
0.0
 21
0.0
 31
0.0
100
AcDbAttribute
  2
AREAOP
 70
     1
  0
SEQEND
  5
E281
330
E263
100
AcDbEntity
  8
1
 62
     3
  0
INSERT
  5
E2D3
330
DFCD
100
AcDbEntity
  8
1
 62
     3
100
AcDbBlockReference
 66
     1
  2
-OD_AM
 10
240.0
 20
340.0
 30
0.0
  0
ATTRIB
  5
E2D4
330
E2D3
100
AcDbEntity
  8
0
 62
     7
100
AcDbText
 10
245.0
 20
330.0
 30
0.0
 40
4.0
  1
LI-512
 11
0.0
 21
0.0
 31
0.0
100
AcDbAttribute
  2
$NAME
 70
     1
  0
ATTRIB
  5
E2D5
330
E2D3
100
AcDbEntity
  8
0
 62
     7
100
AcDbText
 10
245.0
 20
325.0
 30
0.0
 40
4.0
  1
A1
 11
0.0
 21
0.0
 31
0.0
100
AcDbAttribute
  2
$CR
 70
     1
  0
ATTRIB
  5
E2D6
330
E2D3
100
AcDbEntity
  8
0
 62
     7
100
AcDbText
 10
245.0
 20
320.0
 30
0.0
 40
4.0
  1
LI-512
 11
0.0
 21
0.0
 31
0.0
100
AcDbAttribute
  2
POS
 70
     1
  0
ATTRIB
  5
E2D7
330
E2D3
100
AcDbEntity
  8
0
 62
     7
100
AcDbText
 10
245.0
 20
315.0
 30
0.0
 40
4.0
  1
pr
 11
0.0
 21
0.0
 31
0.0
100
AcDbAttribute
  2
PREFIX
 70
     1
  0
ATTRIB
  5
E2D8
330
E2D3
100
AcDbEntity
  8
0
 62
     7
100
AcDbText
 10
245.0
 20
310.0
 30
0.0
 40
4.0
  1
LI-512
 11
0.0
 21
0.0
 31
0.0
100
AcDbAttribute
  2
PDATA
 70
     1
  0
ATTRIB
  5
E2D9
330
E2D3
100
AcDbEntity
  8
0
 62
     7
100
AcDbText
 10
245.0
 20
305.0
 30
0.0
 40
4.0
  1
LI-512
 11
0.0
 21
0.0
 31
0.0
100
AcDbAttribute
  2
--ALM
 70
     1
  0
ATTRIB
  5
E2DA
330
E2D3
100
AcDbEntity
  8
0
 62
     7
100
AcDbText
 10
245.0
 20
300.0
 30
0.0
 40
4.0
  1
3
 11
0.0
 21
0.0
 31
0.0
100
AcDbAttribute
  2
TXT1SEL
 70
     1
  0
ATTRIB
  5
E2DB
330
E2D3
100
AcDbEntity
  8
0
 62
     7
100
AcDbText
 10
245.0
 20
295.0
 30
0.0
 40
4.0
  1
4
 11
0.0
 21
0.0
 31
0.0
100
AcDbAttribute
  2
TXT2SEL
 70
     1
  0
ATTRIB
  5
E2DC
330
E2D3
100
AcDbEntity
  8
0
 62
     7
100
AcDbText
 10
245.0
 20
290.0
 30
0.0
 40
4.0
  1
0
 11
0.0
 21
0.0
 31
0.0
100
AcDbAttribute
  2
NUMPREC
 70
     1
  0
SEQEND
  5
E2DD
330
E2D3
100
AcDbEntity
  8
1
 62
     3
  0
INSERT
  5
E3C7
330
DFCD
100
AcDbEntity
  8
1
 62
     3
100
AcDbBlockReference
 66
     1
  2
-AL_AM
 10
285.0
 20
339.76
 30
0.0
  0
ATTRIB
  5
E3C8
330
E3C7
100
AcDbEntity
  8
0
 62
     7
100
AcDbText
 10
290.0
 20
329.76
 30
0.0
 40
4.0
  1
LI-512
 11
0.0
 21
0.0
 31
0.0
100
AcDbAttribute
  2
$NAME
 70
     1
  0
ATTRIB
  5
E3C9
330
E3C7
100
AcDbEntity
  8
0
 62
     7
100
AcDbText
 10
290.0
 20
324.76
 30
0.0
 40
4.0
  1
A1
 11
0.0
 21
0.0
 31
0.0
100
AcDbAttribute
  2
$CR
 70
     1
  0
ATTRIB
  5
E3CA
330
E3C7
100
AcDbEntity
  8
0
 62
     7
100
AcDbText
 10
290.0
 20
319.76
 30
0.0
 40
4.0
  1
pr
 11
0.0
 21
0.0
 31
0.0
100
AcDbAttribute
  2
PREFIX
 70
     1
  0
ATTRIB
  5
E3CB
330
E3C7
100
AcDbEntity
  8
0
 62
     7
100
AcDbText
 10
290.0
 20
314.76
 30
0.0
 40
4.0
  1
1
 11
0.0
 21
0.0
 31
0.0
100
AcDbAttribute
  2
AREAAL
 70
     1
  0
ATTRIB
  5
E3CC
330
E3C7
100
AcDbEntity
  8
0
 62
     7
100
AcDbText
 10
290.0
 20
309.76
 30
0.0
 40
4.0
  1
1
 11
0.0
 21
0.0
 31
0.0
100
AcDbAttribute
  2
AREAMS
 70
     1
  0
ATTRIB
  5
E3CD
330
E3C7
100
AcDbEntity
  8
0
 62
     7
100
AcDbText
 10
290.0
 20
304.76
 30
0.0
 40
4.0
  1
0
 11
0.0
 21
0.0
 31
0.0
100
AcDbAttribute
  2
--HH
 70
     1
  0
ATTRIB
  5
E3CE
330
E3C7
100
AcDbEntity
  8
0
 62
     7
100
AcDbText
 10
290.0
 20
299.76
 30
0.0
 40
4.0
  1
1
 11
0.0
 21
0.0
 31
0.0
100
AcDbAttribute
  2
--H
 70
     1
  0
ATTRIB
  5
E3CF
330
E3C7
100
AcDbEntity
  8
0
 62
     7
100
AcDbText
 10
290.0
 20
294.76
 30
0.0
 40
4.0
  1
1
 11
0.0
 21
0.0
 31
0.0
100
AcDbAttribute
  2
--L
 70
     1
  0
ATTRIB
  5
E3D0
330
E3C7
100
AcDbEntity
  8
0
 62
     7
100
AcDbText
 10
290.0
 20
289.76
 30
0.0
 40
4.0
  1
0
 11
0.0
 21
0.0
 31
0.0
100
AcDbAttribute
  2
--LL
 70
     1
  0
ATTRIB
  5
E3D1
330
E3C7
100
AcDbEntity
  8
0
 62
     7
100
AcDbText
 10
290.0
 20
284.76
 30
0.0
 40
4.0
  1
1
 11
0.0
 21
0.0
 31
0.0
100
AcDbAttribute
  2
--F
 70
     1
  0
ATTRIB
  5
E3D2
330
E3C7
100
AcDbEntity
  8
0
 62
     7
100
AcDbText
 10
290.0
 20
279.76
 30
0.0
 40
4.0
  1
1
 11
0.0
 21
0.0
 31
0.0
100
AcDbAttribute
  2
EDGEAL
 70
     1
  0
ATTRIB
  5
E3D3
330
E3C7
100
AcDbEntity
  8
0
 62
     7
100
AcDbText
 10
290.0
 20
274.76
 30
0.0
 40
4.0
  1
1
 11
0.0
 21
0.0
 31
0.0
100
AcDbAttribute
  2
ACKDEMAL
 70
     1
  0
ATTRIB
  5
E3D4
330
E3C7
100
AcDbEntity
  8
0
 62
     7
100
AcDbText
 10
290.0
 20
269.76
 30
0.0
 40
4.0
  1
2
 11
0.0
 21
0.0
 31
0.0
100
AcDbAttribute
  2
PRIAL
 70
     1
  0
ATTRIB
  5
E3D5
330
E3C7
100
AcDbEntity
  8
0
 62
     7
100
AcDbText
 10
290.0
 20
264.76
 30
0.0
 40
4.0
  1
1
 11
0.0
 21
0.0
 31
0.0
100
AcDbAttribute
  2
USERAL
 70
     1
  0
ATTRIB
  5
E3D6
330
E3C7
100
AcDbEntity
  8
0
 62
     7
100
AcDbText
 10
290.0
 20
259.76
 30
0.0
 40
4.0
  1
1
 11
0.0
 21
0.0
 31
0.0
100
AcDbAttribute
  2
RESAL
 70
     1
  0
ATTRIB
  5
E3D7
330
E3C7
100
AcDbEntity
  8
0
 62
     7
100
AcDbText
 10
290.0
 20
254.76
 30
0.0
 40
4.0
  1
1
 11
0.0
 21
0.0
 31
0.0
100
AcDbAttribute
  2
EDGEMS
 70
     1
  0
ATTRIB
  5
E3D8
330
E3C7
100
AcDbEntity
  8
0
 62
     7
100
AcDbText
 10
290.0
 20
249.76
 30
0.0
 40
4.0
  1
1
 11
0.0
 21
0.0
 31
0.0
100
AcDbAttribute
  2
ACKDEMMS
 70
     1
  0
ATTRIB
  5
E3D9
330
E3C7
100
AcDbEntity
  8
0
 62
     7
100
AcDbText
 10
290.0
 20
244.76
 30
0.0
 40
4.0
  1
1
 11
0.0
 21
0.0
 31
0.0
100
AcDbAttribute
  2
USERMS
 70
     1
  0
ATTRIB
  5
E3DA
330
E3C7
100
AcDbEntity
  8
0
 62
     7
100
AcDbText
 10
290.0
 20
239.76
 30
0.0
 40
4.0
  1
1
 11
0.0
 21
0.0
 31
0.0
100
AcDbAttribute
  2
RESMS
 70
     1
  0
SEQEND
  5
E3DB
330
E3C7
100
AcDbEntity
  8
1
 62
     3
  0
ENDSEC
  0
SECTION
  2
OBJECTS
  0
DICTIONARY
  5
DFC2
330
0
100
AcDbDictionary
281
     1
  3
ACAD_COLOR
350
E174
  3
ACAD_GROUP
350
DFC3
  3
ACAD_LAYOUT
350
E0A9
  3
ACAD_MATERIAL
350
E175
  3
ACAD_MLEADERSTYLE
350
E179
  3
ACAD_MLINESTYLE
350
DFD0
  3
ACAD_PLOTSETTINGS
350
E0AA
  3
ACAD_PLOTSTYLENAME
350
E0A7
  3
ACAD_SCALELIST
350
E0B6
  3
ACAD_VISUALSTYLE
350
E17B
  3
ACDBHEADERROUNDTRIPXREC
350
E42D
  3
ACDBVARIABLEDICTIONARY
350
DFE1
  3
DWGPROPS
350
E430
  0
DICTIONARY
  5
E174
102
{ACAD_REACTORS
330
DFC2
102
}
330
DFC2
100
AcDbDictionary
281
     1
  0
DICTIONARY
  5
DFC3
102
{ACAD_REACTORS
330
DFC2
102
}
330
DFC2
100
AcDbDictionary
281
     1
  0
DICTIONARY
  5
E0A9
102
{ACAD_REACTORS
330
DFC2
102
}
330
DFC2
100
AcDbDictionary
281
     1
  3
Layout1
350
E0AC
  3
Model
350
E0AB
  0
DICTIONARY
  5
E175
102
{ACAD_REACTORS
330
DFC2
102
}
330
DFC2
100
AcDbDictionary
281
     1
  3
ByBlock
350
E177
  3
ByLayer
350
E176
  3
Global
350
E16F
  0
DICTIONARY
  5
E179
102
{ACAD_REACTORS
330
DFC2
102
}
330
DFC2
100
AcDbDictionary
281
     1
  0
DICTIONARY
  5
DFD0
102
{ACAD_REACTORS
330
DFC2
102
}
330
DFC2
100
AcDbDictionary
281
     1
  3
STANDARD
350
DFD1
  0
DICTIONARY
  5
E0AA
102
{ACAD_REACTORS
330
DFC2
102
}
330
DFC2
100
AcDbDictionary
281
     1
  0
ACDBDICTIONARYWDFLT
  5
E0A7
102
{ACAD_REACTORS
330
DFC2
102
}
330
DFC2
100
AcDbDictionary
281
     1
  3
Normal
350
E0A8
100
AcDbDictionaryWithDefault
340
E0A8
  0
DICTIONARY
  5
E0B6
102
{ACAD_REACTORS
330
DFC2
102
}
330
DFC2
100
AcDbDictionary
281
     1
  3
*A1
350
E3F9
  3
*A10
350
E41C
  3
*A11
350
E41D
  3
*A12
350
E41E
  3
*A13
350
E41F
  3
*A14
350
E420
  3
*A15
350
E421
  3
*A16
350
E423
  3
*A2
350
E3FA
  3
*A3
350
E3FB
  3
*A4
350
E3FC
  3
*A5
350
E3FD
  3
*A6
350
E3FE
  3
*A7
350
E3FF
  3
*A8
350
E401
  3
*A9
350
E41B
  3
A0
350
E0B7
  3
A1
350
E0B8
  3
A2
350
E0B9
  3
A3
350
E0BA
  3
A4
350
E0BB
  3
A5
350
E0BC
  3
A6
350
E0BD
  3
A7
350
E0BE
  3
A8
350
E0BF
  3
A9
350
E0C0
  3
B0
350
E0C1
  3
B1
350
E0C2
  3
B2
350
E0C3
  3
B3
350
E0C4
  3
B4
350
E0C5
  3
B5
350
E0C6
  3
B6
350
E0C7
  3
B7
350
E0C8
  3
B8
350
E0C9
  3
B9
350
E0CA
  3
C0
350
E0CB
  3
C1
350
E0CC
  3
C2
350
E0CD
  3
C3
350
E0CE
  3
C4
350
E0CF
  3
C5
350
E0D0
  3
C6
350
E0D1
  3
C7
350
E0D2
  3
C8
350
E0D3
  3
C9
350
E0D4
  3
D0
350
E0D5
  3
D1
350
E0D6
  3
D2
350
E0D7
  0
DICTIONARY
  5
E17B
102
{ACAD_REACTORS
330
DFC2
102
}
330
DFC2
100
AcDbDictionary
281
     1
  0
DICTIONARY
  5
E42D
102
{ACAD_REACTORS
330
DFC2
102
}
330
DFC2
100
AcDbDictionary
281
     1
  3
COLORDICT
350
E42E
  3
MATERIALDICT
350
E42F
  0
DICTIONARY
  5
DFE1
102
{ACAD_REACTORS
330
DFC2
102
}
330
DFC2
100
AcDbDictionary
281
     1
  3
CANNOSCALE
350
E42C
  3
DIMADEC
350
DFE2
  3
DIMASSOC
350
E0B5
  3
SORTENTS
350
DFE7
  0
XRECORD
  5
E430
102
{ACAD_REACTORS
330
DFC2
102
}
330
DFC2
100
AcDbXrecord
280
     1
  1
DWGPROPS COOKIE
  2

  3

  4

  6

  7

  8
quang1300
  9

300
=
301
=
302
=
303
=
304
=
305
=
306
=
307
=
308
=
309
=
 40
0.0
 41
2450165.46
 42
2458229.48
  1

 90
        0
  0
LAYOUT
  5
E0AC
102
{ACAD_REACTORS
330
E0A9
102
}
330
E0A9
100
AcDbPlotSettings
  1

  2
\\VAT006\PRT010
  4

  6

 40
0.0
 41
0.0
 42
0.0
 43
0.0
 44
0.0
 45
0.0
 46
0.0
 47
0.0
 48
0.0
 49
0.0
140
0.0
141
0.0
142
1.0
143
1.0
 70
   688
 72
     0
 73
     0
 74
     5
  7

 75
    16
147
1.0
148
0.0
149
0.0
100
AcDbLayout
  1
Layout1
 70
     0
 71
     1
 10
0.0
 20
0.0
 11
12.0
 21
9.0
 12
0.0
 22
0.0
 32
0.0
 14
1.00E+20
 24
1.00E+20
 34
1.00E+20
 15
-1.00E+20
 25
-1.00E+20
 35
-1.00E+20
146
0.0
 13
0.0
 23
0.0
 33
0.0
 16
1.0
 26
0.0
 36
0.0
 17
0.0
 27
1.0
 37
0.0
 76
     0
330
DFCA
  0
LAYOUT
  5
E0AB
102
{ACAD_REACTORS
330
E0A9
102
}
330
E0A9
100
AcDbPlotSettings
  1

  2
\\VAT006\PRT010
  4

  6

 40
0.0
 41
0.0
 42
0.0
 43
0.0
 44
0.0
 45
0.0
 46
0.0
 47
0.0
 48
0.0
 49
0.0
140
0.0
141
0.0
142
1.0
143
1.0
 70
  1712
 72
     0
 73
     0
 74
     0
  7

 75
     0
147
1.0
148
0.0
149
0.0
100
AcDbLayout
  1
Model
 70
     1
 71
     0
 10
0.0
 20
0.0
 11
12.0
 21
9.0
 12
0.0
 22
0.0
 32
0.0
 14
0.0
 24
0.0
 34
0.0
 15
0.0
 25
0.0
 35
0.0
146
0.0
 13
0.0
 23
0.0
 33
0.0
 16
1.0
 26
0.0
 36
0.0
 17
0.0
 27
1.0
 37
0.0
 76
     0
330
DFCD
331
E0B4
  0
MATERIAL
  5
E177
102
{ACAD_REACTORS
330
E175
330
E175
102
}
102
{ACAD_XDICTIONARY
360
E431
102
}
330
E175
100
AcDbMaterial
  1
ByBlock
  0
MATERIAL
  5
E176
102
{ACAD_REACTORS
330
E175
330
E175
102
}
102
{ACAD_XDICTIONARY
360
E433
102
}
330
E175
100
AcDbMaterial
  1
ByLayer
  0
MATERIAL
  5
E16F
102
{ACAD_REACTORS
330
E175
330
E175
102
}
102
{ACAD_XDICTIONARY
360
E435
102
}
330
E175
100
AcDbMaterial
  1
Global
  0
MLINESTYLE
  5
DFD1
102
{ACAD_REACTORS
330
DFD0
102
}
330
DFD0
100
AcDbMlineStyle
  2
STANDARD
 70
     0
  3

 62
   256
 51
90.0
 52
90.0
 71
     2
 49
0.5
 62
   256
  6
BYLAYER
 49
-0.5
 62
   256
  6
BYLAYER
  0
ACDBPLACEHOLDER
  5
E0A8
102
{ACAD_REACTORS
330
E0A7
102
}
330
E0A7
  0
SCALE
  5
E3F9
102
{ACAD_REACTORS
330
E0B6
102
}
330
E0B6
100
AcDbScale
 70
     0
300
1/128" = 1'-0"
140
0.01
141
12.0
290
     0
  0
SCALE
  5
E41C
102
{ACAD_REACTORS
330
E0B6
102
}
330
E0B6
100
AcDbScale
 70
     0
300
1/64" = 1'-0"
140
0.02
141
12.0
290
     0
  0
SCALE
  5
E41D
102
{ACAD_REACTORS
330
E0B6
102
}
330
E0B6
100
AcDbScale
 70
     0
300
1/32" = 1'-0"
140
0.03
141
12.0
290
     0
  0
SCALE
  5
E41E
102
{ACAD_REACTORS
330
E0B6
102
}
330
E0B6
100
AcDbScale
 70
     0
300
1/16" = 1'-0"
140
0.06
141
12.0
290
     0
  0
SCALE
  5
E41F
102
{ACAD_REACTORS
330
E0B6
102
}
330
E0B6
100
AcDbScale
 70
     0
300
3/32" = 1'-0"
140
0.09
141
12.0
290
     0
  0
SCALE
  5
E420
102
{ACAD_REACTORS
330
E0B6
102
}
330
E0B6
100
AcDbScale
 70
     0
300
1/8" = 1'-0"
140
0.12
141
12.0
290
     0
  0
SCALE
  5
E421
102
{ACAD_REACTORS
330
E0B6
102
}
330
E0B6
100
AcDbScale
 70
     0
300
3/16" = 1'-0"
140
0.19
141
12.0
290
     0
  0
SCALE
  5
E423
102
{ACAD_REACTORS
330
E0B6
102
}
330
E0B6
100
AcDbScale
 70
     0
300
3/8" = 1'-0"
140
0.38
141
12.0
290
     0
  0
SCALE
  5
E3FA
102
{ACAD_REACTORS
330
E0B6
102
}
330
E0B6
100
AcDbScale
 70
     0
300
1/64" = 1'-0"
140
0.02
141
12.0
290
     0
  0
SCALE
  5
E3FB
102
{ACAD_REACTORS
330
E0B6
102
}
330
E0B6
100
AcDbScale
 70
     0
300
1/32" = 1'-0"
140
0.03
141
12.0
290
     0
  0
SCALE
  5
E3FC
102
{ACAD_REACTORS
330
E0B6
102
}
330
E0B6
100
AcDbScale
 70
     0
300
1/16" = 1'-0"
140
0.06
141
12.0
290
     0
  0
SCALE
  5
E3FD
102
{ACAD_REACTORS
330
E0B6
102
}
330
E0B6
100
AcDbScale
 70
     0
300
3/32" = 1'-0"
140
0.09
141
12.0
290
     0
  0
SCALE
  5
E3FE
102
{ACAD_REACTORS
330
E0B6
102
}
330
E0B6
100
AcDbScale
 70
     0
300
1/8" = 1'-0"
140
0.12
141
12.0
290
     0
  0
SCALE
  5
E3FF
102
{ACAD_REACTORS
330
E0B6
102
}
330
E0B6
100
AcDbScale
 70
     0
300
3/16" = 1'-0"
140
0.19
141
12.0
290
     0
  0
SCALE
  5
E401
102
{ACAD_REACTORS
330
E0B6
102
}
330
E0B6
100
AcDbScale
 70
     0
300
3/8" = 1'-0"
140
0.38
141
12.0
290
     0
  0
SCALE
  5
E41B
102
{ACAD_REACTORS
330
E0B6
102
}
330
E0B6
100
AcDbScale
 70
     0
300
1/128" = 1'-0"
140
0.01
141
12.0
290
     0
  0
SCALE
  5
E0B7
102
{ACAD_REACTORS
330
E0B6
102
}
330
E0B6
100
AcDbScale
 70
     0
300
1:1
140
1.0
141
1.0
290
     1
  0
SCALE
  5
E0B8
102
{ACAD_REACTORS
330
E0B6
102
}
330
E0B6
100
AcDbScale
 70
     0
300
1:2
140
1.0
141
2.0
290
     0
  0
SCALE
  5
E0B9
102
{ACAD_REACTORS
330
E0B6
102
}
330
E0B6
100
AcDbScale
 70
     0
300
1:4
140
1.0
141
4.0
290
     0
  0
SCALE
  5
E0BA
102
{ACAD_REACTORS
330
E0B6
102
}
330
E0B6
100
AcDbScale
 70
     0
300
1:5
140
1.0
141
5.0
290
     0
  0
SCALE
  5
E0BB
102
{ACAD_REACTORS
330
E0B6
102
}
330
E0B6
100
AcDbScale
 70
     0
300
1:8
140
1.0
141
8.0
290
     0
  0
SCALE
  5
E0BC
102
{ACAD_REACTORS
330
E0B6
102
}
330
E0B6
100
AcDbScale
 70
     0
300
1:10
140
1.0
141
10.0
290
     0
  0
SCALE
  5
E0BD
102
{ACAD_REACTORS
330
E0B6
102
}
330
E0B6
100
AcDbScale
 70
     0
300
1:16
140
1.0
141
16.0
290
     0
  0
SCALE
  5
E0BE
102
{ACAD_REACTORS
330
E0B6
102
}
330
E0B6
100
AcDbScale
 70
     0
300
1:20
140
1.0
141
20.0
290
     0
  0
SCALE
  5
E0BF
102
{ACAD_REACTORS
330
E0B6
102
}
330
E0B6
100
AcDbScale
 70
     0
300
1:30
140
1.0
141
30.0
290
     0
  0
SCALE
  5
E0C0
102
{ACAD_REACTORS
330
E0B6
102
}
330
E0B6
100
AcDbScale
 70
     0
300
1:40
140
1.0
141
40.0
290
     0
  0
SCALE
  5
E0C1
102
{ACAD_REACTORS
330
E0B6
102
}
330
E0B6
100
AcDbScale
 70
     0
300
1:50
140
1.0
141
50.0
290
     0
  0
SCALE
  5
E0C2
102
{ACAD_REACTORS
330
E0B6
102
}
330
E0B6
100
AcDbScale
 70
     0
300
1:100
140
1.0
141
100.0
290
     0
  0
SCALE
  5
E0C3
102
{ACAD_REACTORS
330
E0B6
102
}
330
E0B6
100
AcDbScale
 70
     0
300
2:1
140
2.0
141
1.0
290
     0
  0
SCALE
  5
E0C4
102
{ACAD_REACTORS
330
E0B6
102
}
330
E0B6
100
AcDbScale
 70
     0
300
4:1
140
4.0
141
1.0
290
     0
  0
SCALE
  5
E0C5
102
{ACAD_REACTORS
330
E0B6
102
}
330
E0B6
100
AcDbScale
 70
     0
300
8:1
140
8.0
141
1.0
290
     0
  0
SCALE
  5
E0C6
102
{ACAD_REACTORS
330
E0B6
102
}
330
E0B6
100
AcDbScale
 70
     0
300
10:1
140
10.0
141
1.0
290
     0
  0
SCALE
  5
E0C7
102
{ACAD_REACTORS
330
E0B6
102
}
330
E0B6
100
AcDbScale
 70
     0
300
100:1
140
100.0
141
1.0
290
     0
  0
SCALE
  5
E0C8
102
{ACAD_REACTORS
330
E0B6
102
}
330
E0B6
100
AcDbScale
 70
     0
300
1/128" = 1'-0"
140
0.01
141
12.0
290
     0
  0
SCALE
  5
E0C9
102
{ACAD_REACTORS
330
E0B6
102
}
330
E0B6
100
AcDbScale
 70
     0
300
1/64" = 1'-0"
140
0.02
141
12.0
290
     0
  0
SCALE
  5
E0CA
102
{ACAD_REACTORS
330
E0B6
102
}
330
E0B6
100
AcDbScale
 70
     0
300
1/32" = 1'-0"
140
0.03
141
12.0
290
     0
  0
SCALE
  5
E0CB
102
{ACAD_REACTORS
330
E0B6
102
}
330
E0B6
100
AcDbScale
 70
     0
300
1/16" = 1'-0"
140
0.06
141
12.0
290
     0
  0
SCALE
  5
E0CC
102
{ACAD_REACTORS
330
E0B6
102
}
330
E0B6
100
AcDbScale
 70
     0
300
3/32" = 1'-0"
140
0.09
141
12.0
290
     0
  0
SCALE
  5
E0CD
102
{ACAD_REACTORS
330
E0B6
102
}
330
E0B6
100
AcDbScale
 70
     0
300
1/8" = 1'-0"
140
0.12
141
12.0
290
     0
  0
SCALE
  5
E0CE
102
{ACAD_REACTORS
330
E0B6
102
}
330
E0B6
100
AcDbScale
 70
     0
300
3/16" = 1'-0"
140
0.19
141
12.0
290
     0
  0
SCALE
  5
E0CF
102
{ACAD_REACTORS
330
E0B6
102
}
330
E0B6
100
AcDbScale
 70
     0
300
1/4" = 1'-0"
140
0.25
141
12.0
290
     0
  0
SCALE
  5
E0D0
102
{ACAD_REACTORS
330
E0B6
102
}
330
E0B6
100
AcDbScale
 70
     0
300
3/8" = 1'-0"
140
0.38
141
12.0
290
     0
  0
SCALE
  5
E0D1
102
{ACAD_REACTORS
330
E0B6
102
}
330
E0B6
100
AcDbScale
 70
     0
300
1/2" = 1'-0"
140
0.5
141
12.0
290
     0
  0
SCALE
  5
E0D2
102
{ACAD_REACTORS
330
E0B6
102
}
330
E0B6
100
AcDbScale
 70
     0
300
3/4" = 1'-0"
140
0.75
141
12.0
290
     0
  0
SCALE
  5
E0D3
102
{ACAD_REACTORS
330
E0B6
102
}
330
E0B6
100
AcDbScale
 70
     0
300
1" = 1'-0"
140
1.0
141
12.0
290
     0
  0
SCALE
  5
E0D4
102
{ACAD_REACTORS
330
E0B6
102
}
330
E0B6
100
AcDbScale
 70
     0
300
1-1/2" = 1'-0"
140
1.5
141
12.0
290
     0
  0
SCALE
  5
E0D5
102
{ACAD_REACTORS
330
E0B6
102
}
330
E0B6
100
AcDbScale
 70
     0
300
3" = 1'-0"
140
3.0
141
12.0
290
     0
  0
SCALE
  5
E0D6
102
{ACAD_REACTORS
330
E0B6
102
}
330
E0B6
100
AcDbScale
 70
     0
300
6" = 1'-0"
140
6.0
141
12.0
290
     0
  0
SCALE
  5
E0D7
102
{ACAD_REACTORS
330
E0B6
102
}
330
E0B6
100
AcDbScale
 70
     0
300
1'-0" = 1'-0"
140
12.0
141
12.0
290
     0
  0
XRECORD
  5
E42E
102
{ACAD_REACTORS
330
E42D
102
}
330
E42D
100
AcDbXrecord
280
     1
340
E174
  0
XRECORD
  5
E42F
102
{ACAD_REACTORS
330
E42D
102
}
330
E42D
100
AcDbXrecord
280
     1
340
E175
  0
DICTIONARYVAR
  5
E42C
102
{ACAD_REACTORS
330
DFE1
102
}
330
DFE1
100
DictionaryVariables
280
     0
  1
1:1
  0
DICTIONARYVAR
  5
DFE2
102
{ACAD_REACTORS
330
DFE1
102
}
330
DFE1
100
DictionaryVariables
280
     0
  1
4
  0
DICTIONARYVAR
  5
E0B5
102
{ACAD_REACTORS
330
DFE1
102
}
330
DFE1
100
DictionaryVariables
280
     0
  1
1
  0
DICTIONARYVAR
  5
DFE7
102
{ACAD_REACTORS
330
DFE1
102
}
330
DFE1
100
DictionaryVariables
280
     0
  1
0
  0
DICTIONARY
  5
E431
330
E177
100
AcDbDictionary
280
     1
281
     1
  3
ACAD_XREC_ROUNDTRIP
360
E432
  0
DICTIONARY
  5
E433
330
E176
100
AcDbDictionary
280
     1
281
     1
  3
ACAD_XREC_ROUNDTRIP
360
E434
  0
DICTIONARY
  5
E435
330
E16F
100
AcDbDictionary
280
     1
281
     1
  3
ACAD_XREC_ROUNDTRIP
360
E436
  0
XRECORD
  5
E432
102
{ACAD_REACTORS
330
E431
102
}
330
E431
100
AcDbXrecord
280
     1
102
MATERIAL
148
0.0
149
0.0
149
0.0
 93
        0
 94
      127
282
     0
 72
     1
 77
     1
171
     1
175
     1
179
     1
273
     0
  0
XRECORD
  5
E434
102
{ACAD_REACTORS
330
E433
102
}
330
E433
100
AcDbXrecord
280
     1
102
MATERIAL
148
0.0
149
0.0
149
0.0
 93
        0
 94
      127
282
     0
 72
     1
 77
     1
171
     1
175
     1
179
     1
273
     0
  0
XRECORD
  5
E436
102
{ACAD_REACTORS
330
E435
102
}
330
E435
100
AcDbXrecord
280
     1
102
MATERIAL
148
0.0
149
0.0
149
0.0
 93
        0
 94
      127
282
     0
 72
     1
 77
     1
171
     1
175
     1
179
     1
273
     0
  0
ENDSEC
  0
SECTION
  2
THUMBNAILIMAGE
 90
    16364
310
28000000B40000005500000001000800000000000000000000000000000000000000000000000000FFFFFF000000FF0000FFFF0000FF0000FFFF0000FF000000FF00FF000000000080808000C0C0C0000000FF007F7FFF000000A5005252A50000007F003F3F7F0000004C0026264C000000260013132600003FFF007F9FFF
310
000029A5005267A500001F7F003F4F7F0000134C00262F4C000009260013172600007FFF007FBFFF000052A500527CA500003F7F003F5F7F0000264C0026394C0000132600131C260000BFFF007FDFFF00007CA5005291A500005F7F003F6F7F0000394C0026424C00001C26001321260000FFFF007FFFFF0000A5A50052A5
310
A500007F7F003F7F7F00004C4C00264C4C00002626001326260000FFBF007FFFDF0000A57C0052A59100007F5F003F7F6F00004C3900264C420000261C001326210000FF7F007FFFBF0000A5520052A57C00007F3F003F7F5F00004C2600264C39000026130013261C0000FF3F007FFF9F0000A5290052A56700007F1F003F
310
7F4F00004C1300264C2F00002609001326170000FF00007FFF7F0000A5000052A55200007F00003F7F3F00004C0000264C260000260000132613003FFF00009FFF7F0029A5000067A552001F7F00004F7F3F00134C00002F4C260009260000172613007FFF0000BFFF7F0052A500007CA552003F7F00005F7F3F00264C0000
310
394C2600132600001C261300BFFF0000DFFF7F007CA5000091A552005F7F00006F7F3F00394C0000424C26001C26000021261300FFFF0000FFFF7F00A5A50000A5A552007F7F00007F7F3F004C4C00004C4C26002626000026261300FFBF0000FFDF7F00A57C0000A59152007F5F00007F6F3F004C3900004C422600261C00
310
0026211300FF7F0000FFBF7F00A5520000A57C52007F3F00007F5F3F004C2600004C39260026130000261C1300FF3F0000FF9F7F00A5290000A56752007F1F00007F4F3F004C1300004C2F26002609000026171300FF000000FF7F7F00A5000000A55252007F0000007F3F3F004C0000004C2626002600000026131300FF00
310
3F00FF7F9F00A5002900A55267007F001F007F3F4F004C0013004C262F002600090026131700FF007F00FF7FBF00A5005200A5527C007F003F007F3F5F004C0026004C2639002600130026131C00FF00BF00FF7FDF00A5007C00A55291007F005F007F3F6F004C0039004C26420026001C0026132100FF00FF00FF7FFF00A5
310
00A500A552A5007F007F007F3F7F004C004C004C264C002600260026132600BF00FF00DF7FFF007C00A5009152A5005F007F006F3F7F0039004C0042264C001C002600211326007F00FF00BF7FFF005200A5007C52A5003F007F005F3F7F0026004C0039264C00130026001C1326003F00FF009F7FFF002900A5006752A500
310
1F007F004F3F7F0013004C002F264C000900260017132600000000002D2D2D005B5B5B0089898900B7B7B700B3B3B30000000000000000000000000000000000000000000000000000000000000000000000000000000000000000000000000000000000000000000000000000000000000000000000000000000000000000
310
00000000000000000000000000000000000000000000000000000000000000000000000000000000000000000000000000000000000000000000000000000000000000000000000000000000000000000000000000000000000000000000000000000000000000000000000000000000000000000000000000000000000000
310
00000000000000000000000000000000000000000000000000000000000000000000000000000000000000000000000000000000000000000000000000000000000000000000000000000000000000000000000000000000000000000000000000000000000000000000000000000000000000000000000000000000000000
310
00000000000000000000000000000000000000000000000000000000000000000000000000000000000000000000000000000000000000000000000000000000000000000000000000000000000000000000000000000000000000000000000000000000000000000000000000000000000000000000000000000000000000
310
00000000000000000000000000000000000000000000000000000000000000000000000000000000000000000000000000000000000000000000000000000000000000000000000000000000000000000000000000000000000000000000000000000000000000000000000000000007070707070707070707070707070707
310
07070707070707070707070707070707070707070707070707070707070707070707070707070707070707070707070707070707070707070707070707070707070707070707070707070707070707070707070707070707070707070707070707070707070707000000000000000000000000000000000000000000000000
310
000000000000000000000000000000000000000000000000000000000000000000000000000700002000008A8A8A8A8A8A8A8A00000707070707070707070707070000000707070000000000000000000000000000000000000000000000000000070000000000000000000000000000000000000000000000000000070000
310
0000000000000000000700000000000000000000000000000000000007000000000000000000000000000000000000000000000000000000000000000000000000000000000000000000000000000000000000000000000000000700202020208A8A8A8A8A8A8A8A8A00070707070707070707070707070707070707000000
310
00000000000000000000000000000000000000000000000700000000000000000000000000000000000000000000000000000707070007070000000000000700000000000000000000000000000000000007000000000000000000000000000000000000000000000000000000000000000000000000000000000000000000
310
000000000000000000000000000000000700202000208A8A8A8A8A8A8A8A8A000707070707070707070707070707070707070000000000000000000000000000000000000000000000000000070007000000000000000000000000000000000000000000000000070707070707000000000000070000000000000007070707
310
070707070707070700000000000000000000000000000000000000000000000000000000000000000000000000000000000000000000000000000000000000000000000000070020202020000000008A8A00000000070707070707070707070707000000070707070707070707000000000000000000000000000000000000
310
00000707070707070707000000000000000000000000000000000000000707070000000000000000000707070707070700070707070707000700000007000000000000000000000000000000000000000000000000000000000000000000000000000000000000000000000000000000000000000000000000000700202000
310
00000000000000000000000707070707070000000000070000000000070000070000000000000000000000000000000000000000000000070000000000000000000000000000000000000000000000000000070000000000000000000000070000000000000007070707070000070000000700000000000000000000000000
310
00000000000000000000000000000000000000000000000000000000000000000000000000000000000000000000000007070707070707070707070707070707070707070707070707070707070707070707070707070707070707070707070707070707070707070707070707070707070707070707070707070707070707
310
07070707070707070707070707070707070707070707070707070707070707070707070707070707000000000000000000000000000000000000000000000000000000000000000000000000000000000000000000000000000000000000000000000000000700000000000000000000000000000000000007070707070707
310
07070707070707070707070707070707070707070707070707070707070707070707070707070707070707070707070707070707070707070707070707070707070707070707070707070000000000000000000000000000000000000700000000000000000000000000000000000000000000000000000000000000000000
310
00000000000000000000000000000000000000000000000000000007000000000000000000000000000000000000070000000000000000000000000000000000000000000000000000000000000000000000000000000000000000000000000000000000000000000000000000000000000000000000000000000000000007
310
00000000000000000000000000000000000007000000000000000000000000000000000000000000000000000000000000000000000000000000000000000000000000000000000000000000000000000700000000000000000000000000000000000007000000000000000000000000000000000000000000000000000000
310
00000000000000000000000000000000000000000000000000000000000000000000000000000000000000000000000000000000070000000000000000000000000000000000000700000000000000000000000000000000000000000000000000000000000000000000000000000000000000000000000000000000000000
310
00000000000007000000000000000000000000000000000000070000000000000000000000000000000000000000000000000000000000000000000000000000000000000000000000000000000000000000000000000000000000000000000000000000000000000007000000000000000000000000000000000000070000
310
00000000000000000000000000000000000000000000000000000000000000000000000000000000000000000000000000000000000000000000000700000000000000000000000000000000000007000000000000000000000000000000000000000000000000000000000000000000000000000000000000000000000000
310
00000000000000000000000000000000000000000000000000000000000000070000000000000000000000000000000000000700000000000000000000000000000000000000000000000000000000000000000000000000000000000000000000000000000000000000000000000000070000000000000000000000000000
310
00000000070000000000000000000000000000000000000000000000000000000000000000000000000000000000000000000000000000000000000000000000000000000000000000000000000000000000000007000000000000000000000000000000000000070000000000000000000000000000000000000000000000
310
00000000000000000000000000000000000000000000000000000000000000000000000000000700000000000000000000000000000000000007000000000000000000000000000000000000000000000000000000000000000000000000000000000000000000000000000000000000000000000000000000000000000000
310
00000000000000000000070000000000000000000000000000000000000700000000000000000000000000000000000000000000000000000000000000000000000000000000000000000000000000000000000000000000000000070000000000000000000000000000000000000700000000000000000000000000000000
310
00000000000000000000000000000000000000000000000000000000000000000000000000000000000000000000000000000000000000000000000000000007000000000000000000000000000000000000070000000000000000000000000000000000000000000000000000000000000000000000000000000000000000
310
00000000000000000000000000000000000700000000000000000000000000000000000007000000000000000000000000000000000000000000000000000000000000000000000000000000000000000000000000000000000000000000000000000000000000000000000000000000000000000700000000000000000000
310
00000000000000000700000000000000000000000000000000000000000000000000000000000000000000000000000000000000000000000000000000000000000000000000070000000000000000000000000000000000000700000000000000000000000000000000000000000000000000000000000000000000000000
310
00000000000000000000000000000000000000000000000000000000000000000000000000000000000007000000000000000000000000000000000000070000000000000000000000000000000000000000000000000000000000000000000000000000000000000000000000000000000000000000000000000007000000
310
00000000000000000000000000000007000000000000000000000000000000000000000000000000000000000000000000000000000000000000000000000000000000000000000000000000000000000000000000000000000000000000000700000000000000000000000000000000000007000000000000000000000000
310
00000000000000000000000000000000000000000000000000000000000000000000000000000000000000000000000000070000000000000000000000000000000000000700000000000000000000000000000000000000000000000000000000000000000000000000000000000000000000000000000000000000000000
310
00000000000000000000000000000000000000000007000000000000000000000000000000000000070000000000000000000000000000000000000000000000000000000000000000000000000000000000000000000000000000000000000000000000000007000000000000000000000000000000000000070000000000
310
00000000000000000000000000000000000000000000000000000000000000000000000000000000000000000000000000000000000000000000000000000000000000000000000000000700000000000000000000000000000000000007000000000000000000000000000000000000000000000000000000000000000000
310
00000000000000000000000000000000000000000000000000000000070000000000000000000000000000000000000700000000000000000000000000000000000000000000000000000000000000000000000000000000000000000000000000000000000000000000000000000000000000000000000000000000000000
310
07000000000000000000000000000000000000070000000000000000000000000000000000000000000000000000000000000000000000000000000000000000000000000000000000000000000000000007000000000000000000000000000000000000070000000000000000000000000000000000000000000000000000
310
00000000000000000000000000000000000000000000000000000000000000000000000000000000000000000000000000000000000700000000000000000000000000000000000007000000000000000000000000000000000000000000000000000000000000000000000000000000000000000000000000000000000000
310
00000000000000070000000000000000000000000000000000000700000000000000000000000000000000000000000000000000000000000000000000000000000000000000000000000000000000000000000000000000000000000000000000000000000000000000070000000000000000000000000000000000000700
310
00000000000000000000000000000000000000000000000000000000000000000000000000000000000000000000000000000000000000000000000007000000000000000000000000000000000000070000000000000000000000000000000000000000000000000000000000000000000000000000000000000000000000
310
00000000000000000000000000000000000000000000000000000000000000000700000000000000000000000000000000000007000000000000000000000000000000000000000000000000000000000000000000000000000000000000000000000000000000000000000000000000000700000000000000000000000000
310
00000000000700000000000000000000000000000000000000000000000000000000000000000000000000000000000000000000000000000000000000000000000000000000000000000000000000000000000000070000000000000000000000000000000000000700000000000000000000000000000000000000000000
310
00000000000000000000000000000000000000000000000000000000000000000000000000000007000000000000000000000000000000000000070000000000000000000000000000000000000000000000000000000000000000000000000000000000000000000000000000000000000000000000000000000000000000
310
00000000000000000000000700000000000000000000000000000000000007000000000000000000000000000000000000000000000000000000000000000000000000000000000000000000000000000000000000000000000000000700000000000000000000000000000000000007000000000000000000000000000000
310
00000000000000000000000000000000000000000000000000000000000000000000000000000000000000000000000000000000000000000000000000000000070000000000000000000000000000000000000700000000000000000000000000000000000000000000000000000000000000000000000000000000000000
310
00000000000000000000000000000000000007000000000000000000000000000000000000070000000000000000000000000000000000000000000000000000000000000000000000000000000000000000000000000000000000000000000000000000000000000000000000000000000000000007000000000000000000
310
00000000000000000007000000000000000000000000000000000000000000000000000000000000000000000000000000000000000000000000000000000000000000000000000700000000000000000000000000000000000007000000000000000000000000000000000000000000000000000000000000000000000000
310
00000000000000000000000000000000000000000000000000000000000000000000000000000000000000070000000000000000000000000000000000000700000000000000000000000000000000000000000000000000000000000000000000000000000000000000000000000000000000000000000000000000070000
310
00000000000000000000000000000000070000000000000000000000000000000000000000000000000000000000000000000000000000000000000000000000000000000000000000000000000000000000000000000000000000000000000007000000000000000000000000000000000000070000000000000000000000
310
00000000000000000000000000000000000000000000000000000000000000000000000000000000000000000000000000000700000000000000000000000000000000000007000000000000000000000000000000000000000000000000000000000000000000000000000000000000000000000000000000000000000000
310
00000000000000000000000000000000000000000000070000000000000000000000000000000000000700000000000000000000000000000000000000000000000000000000000000000000000000000000000000000000000000000000000000000000000000070000000000000000000000000000000000000700000000
310
00000000000000000000000000000000000000000000000000000000000000000000000000000000000000000000000000000000000000000000000000000000000000000000000000000007000000000000000000000000000000000000070000000000000000000000000000000000000000000000000000000000000000
310
00000000000000000000000000000000000000000000000000000000000700000000000000000000000000000000000007000000000000000000000000000000000000000000000000000000000000000000000000000000000000000000000000000000000000000000000000000000000000000000000000000000000000
310
00070000000000000000000000000000000000000700000000000000000000000000000000000000000000000000000000000000000000000000000000000000000000000000000000000000000000000000070000000000000000000000000000000000000700000000000000000000000000000000000000000000000000
310
00000000000000000000000000000000000000000000000000000000000000000000000000000000000000000000000000000000000007000000000000000000000000000000000000070000000000000000000000000000000000000000000000000000000000000000000000000000000000000000000000000000000000
310
00000000000000000700000000000000000000000000000000000007000000000000000000000000000000000000000000000000000000000000000000000000000000000000000000000000000000000000000000000000000000000000000000000000000000000000000700000000000000000000000000000000000007
310
00000000000000000000000000000000000000000000000000000000000000000000000000000000000000000000000000000000000000000000000000070000000000000000000000000000000000000700000000000000000000000000000000000000000000000000000000000000000000000000000000000000000000
310
00000000000000000000000000000000000000000000000000000000000000000007000000000000000000000000000000000000070000000000000000000000000000000000000000000000000000000000000000000000000000000000000000000000000000000000000000000000000007000000000000000000000000
310
00000000000007000000000000000000000000000000000000000000000000000000000000000000000000000000000000000000000000000000000000000000000000000000000000000000000000000000000000000700000000000000000000000000000000000007000000000000000000000000000000000000000000
310
00000000000000000000000000000000000000000000000000000000000000000000000000000000070000000000000000000000000000000000000700000000000000000000000000000000000000000000000000000000000000000000000000000000000000000000000000000000000000000000000000000000000000
310
00000000000000000000000007000000000000000000000000000000000000070000000000000000000000000000000000000000000000000000000000000000000000000000000000000000000000000000000000000000000000000007000000000000000000000000000000000000070000000000000000000000000000
310
00000000000000000000000000000000000000000000000000000000000000000000000000000000000000000000000000000000000000000000000000000000000700000000000000000000000000000000000007000000000000000000000000000000000000000000000000000000000000000000000000000000000000
310
00000000000000000000000000000000000000070000000000000000000000000000000000000700000000000000000000000000000000000000000000000000000000000000000000000000000000000000000000000000000000000000000000000000000000000000000000000000000000000000070000000000000000
310
00000000000000000000070000000000000000000000000000000000000000000000000000000000000000000000000000000000000000000000000000000000000000000000000007000000000000000000000000000000000000070000000000000000000000000000000000000000000000000000000000000000000000
310
00000000000000000000000000000000000000000000000000000000000000000000000000000000000000000700000000000000000000000000000000000007000000000000000000000000000000000000000000000000000000000000000000000000000000000000000000000000000000000000000000000000000700
310
00000000000000000000000000000000000700000000000000000000000000000000000000000000000000000000000000000000000000000000000000000000000000000000000000000000000000000000000000000000000000000000000000070000000000000000000000000000000000000700000000000000000000
310
00000000000000000000000000000000000000000000000000000000000000000000000000000000000000000000000000000007000000000000000000000000000000000000070000000000000000000000000000000000000000000000000000000000000000000000000000000000000000000000000000000000000000
310
00000000000000000000000000000000000000000000000700000000000000000000000000000000000007000000000000000000000000000000000000000000000000000000000000000000000000000000000000000000000000000000000000000000000000000700000000000000000000000000000000000007000000
310
00000000000000000000000000000000000000000000000000000000000000000000000000000000000000000000000000000000000000000000000000000000000000000000000000000000070000000000000000000000000000000000000700000000000000000000000000000000000000000000000000000000000000
310
00000000000000000000000000000000000000000000000000000000000007000000000000000000000000000000000000070000000000000000000000000000000000000000000000000000000000000000000000000000000000000000000000000000000000000000000000000000000000000000000000000000000000
310
00000700000000000000000000000000000000000007000000000000000000000000000000000000000000000000000000000000000000000000000000000000000000000000000000000000000000000000000700000000000000000000000000000000000007000000000000000000000000000000000000000000000000
310
00000000000000000000000000000000000000000000000000000000000000000000000000000000000000000000000000000000000000070000000000000000000000000000000000000700000000000000000000000000000000000000000000000000000000000000000000000000000000000000000000000000000000
310
00000000000000000007000000000000000000000000000000000000070000000000000000000000000000000000000000000000000000000000000000000000000000000000000000000000000000000000000000000000000000000000000000000000000000000000000007000000000000000000000000000000000000
310
07000000000000000000000000000000000000000000000000000000000000000000000000000000000000000000000000000000000000000000000000000700000000000000000000000000000000000007000000000000000000000000000000000000000000000000000000000000000000000000000000000000000000
310
00000000000000000000000000000000000000000000000000000000000000000000070000000000000000000000000000000000000700000000000000000000000000000000000000000000000000000000000000000000000000000000000000000000000000000000000000000000000000070000000000000000000000
310
00000000000000070000000000000000000000000000000000000000000000000000000000000000000000000000000000000000000000000000000000000000000000000000000000000000000000000000000000000007000000000000000000000000000000000000070000000000000000000000000000000000000000
310
00000000000000000000000000000000000000000000000000000000000000000000000000000000000700000000000000000000000000000000000007000000000000000000000000000000000000000000000000000000000000000000000000000000000000000000000000000000000000000000000000000000000000
310
00000000000000000000000000070000000000000000000000000000000000000700000000000000000000000000000000000000000000000000000000000000000000000000000000000000000000000000000000000000000000000000070007070707070707070707070707070707070700000000000000000000000000
310
00000000000007070707070707070707070707070000000000000000000000000000000000000000000000000000000000000000000000000000000000000000000007000000000000000000000000000000000000070000000000000000000000000000000000000000000000000000000000000000000000000000000000
310
00000000000000000000000000000000000000000700070707070707070700070707070707070707000000000000000000000000000000000000000700000000000000000000000007000000000000000000000000000000000000000000000000000000000000000000000000000000000000000000000700000000000000
310
00000000000000000000000700000000000000000000000000000000000000000000000000000000000000000000000000000000000000000000000000000000000000000000000000070007070707070707070707070707070707070700000000000000000000000000000000000003070700000000000000000000000700
310
00000000000000000000000000000000000000000000000000000000000000000000000000000000000000000007000000000000000000000000000000000000070000000000000000000000000000000000000000000000000000000000000000000000000000000000000000000000000000000000000000000000000007
310
00070000000007070707070707070000070703030303030303030303030303030303030303030307000000000000000000000007000000000000000000000000000000000000000000000000000000000000000000000000000000000000000000000700000000000000000000000000000000000007000000000000000000
310
00000000000000000000000000000000000000000000000000000000000000000000000000000000000000000000000000000000070007070707070707070707070707070707070700000000000000000000000000000000000000070000000000000000000000000700000000000000000000000000000000000000000000
310
00000000000000000000000000000000000000000000000007000000000000000000000000000000000000070000000000000000000000000000000000000000000000000000000000000000000000000000000000000000000000000000000000000000000000000007000707070707070707070707070707070707070000
310
00000000000000000000000000000000000700000000000707000000000007000000000000000000000000000000000000000000000000000000000000000000000000000000000000000000000700000000000000000000000000000000000007000000000000000000000000000000000000000000000000000000000000
310
00000000000000000000000000000000000000000000000000000000000000070007000007070007070707070707070000070700000000000000000000000000000000000000070000000000070700000000000700000000000000000000000000000000000000000000000000000000000000000000000000000000000000
310
00000007000000000000000000000000000000000000070000000000000000000000000000000000000000000000000000000000000000000000000000000000000000000000000000000000000000000000000007000707070707070707070707070707070707070000000000000000000000000000000000000007070707
310
07070707070707070707000000000000000000000000000000000000000000000000000000000000000000000000000000000000000000000700000000000000000000000000000000000007000000000000000000000000000000000000000000000000000000000000000000000000000000000000000000000000000000
310
00000000000000000000070007000707070007070707000707070700070700000000000000000000000000000000000000070000070707070707070000000700000000000000000000000000000000000000000000000000000000000000000000000000000000000000000000070000000000000000000000000000000000
310
00070000000000000000000000000000000000000000000000000000000000000000000000000000000000000000000000000000000000000000000000000007000707070707070707070707070707070707070000000000000000000000000000000000000007070707070707070707070707070000000000000000000000
310
00000000000000000000000000000000000000000000000000000000000000000000000700000000000000000000000000000000000007000000000000000000000000000000000000000000000000000000000000000000000000000000000000000000000000000000000000000000000000000700000000000000000000
310
00000000000000000700000000000000000000000000000000000000000000000000000000000000000000000000000000000000000000000000000000000000000000000000000000000000000000000000000000000000070000000000000000000000000000000000000700000000000000000000000000000000000000
310
00000000000000000000000000000000000000000000000000000000000000000000000000000000000007000000000000000000000000000000000000070000000000000000000000000000000000070000000000000000000000000000000000000000000000000000000000000000000000000000000000000000000000
310
00000000000000000000000000000700000000000000000000000000000000000007000000000000000000000000000000000000000000000000000000000000000000000000000000000000000000000000000000000000000000000000000700000000000000000000000000000000000007000000000000000000000000
310
00000000070707070707000007070707070707000007070707070700000000000000000000000000000000000000000000000000000000000000000000000000000000070000000000000000000000000000000000000700000000000000000000000000000000000000000000000000000000000000000000000000000000
310
00000000000000000000000000000000000000000007000000000000000000000000000000000000070000000000000000000000000000000007070707070700000700070707000700000700070700070000000000000000000000000000000000000000000000000000000000000000000000000000000007000000000000
310
00000000000000000000000007000000000000000000000000000000000000000000000000000000000000000000000000000000000000000000000000000000000000000000000000000700000000000000000000000000000000000007000000000000000000000000000000000707070707070000070707070707070000
310
07070107010700000000000000000000000000000000000000000000000000000000000000000000000000000000070000000000000000000000000000000000000700000000000000000000000000000000000000000000000000000000000000000000000000000000000000000000000000000000000000000000000000
310
07000000000000000000000000000000000000070000000000000000000000000000000007070707070700000707070707070700000707010707070000000000000000000000000000000000000000000000000000000000000000000000000000000007000000000000000000000000000000000000070000000000000000
310
00000000000000000000000000000000000000000000000000000000000000000000000000000000000000000000000000000000000700000000000000000000000000000000000007000000000000000000000000000000000707070707070000070707070707070000070707070707000000000000000000000000000000
310
00000000000000000000000000000000000000000000000000070000000000000000000000000000000000000700000000000000000000000000000000000000000000000000000000000000000000000000000000000000000000000000000000000000000000000000070000000000000000000000000000000000000700
310
00000000000000000000000000000000000000000000000000000000000000000000000000000000000000000000000000000000000000000000000000000000000000000000000000000000000007000000000000000000000000000000000000070000000000000000000000000000000000000000000000000000000000
310
00000000000000000000000000000000000000000000000000000000000000000700000000000000000000000000000000000007000000000000000000000000000000000000000000000000000000000000000000000000000000000000000000000000000000000000000000000000000000000000000000000000000000
310
00000000070000000000000000000000000000000000000700000000000000000000000000000000000000000000000000000000000000000000000000000000000000000000000000000000000000000000000000070000000000000000000000000000000000000700000000000000000000000000000000000000000000
310
00000000000000000000000000000000000000000000000000000000000000000000000000000000000000000000000000000000000000000007000000000000000000000000000000000000070000000000000000000000000000000000000000000000000000000000000000000000000000000000000000000000000000
310
00000000000000000000000700000000000000000000000000000000000007070707070707070707070707070707070707070707070707070707070707070700000000000000000000000000000000000000000000000000000000000000000000000000000000000000000000000700000000000000000000000000000000
310
00000700000000000000000000000000000000000000000000000000000000000000000000000000000000000000000000000000000000000000000000000000070000000000000000000000000000000000000700000000000000000000000000000000000007070707000000070700000000070000000000000000000000
310
00000000000000000000000000000000000000000000000000000000000000000000000007000000000000000000000000000000000000070000000000000000000000000000000000000000000000000000000000000000000000000000000000000000000000000000000000000000000000000007000000000000000000
310
00000000000000000007000000000000000000000000000000000000070707070707070707070707070700000000000000000000000000000000000000000000000000000000000000000000000000000000000000000000000700000000000000000000000000000000000007000000000000000000000000000000000000
310
00000000000000000000000000000000000000000000000000000000000000000000000000000000000000070000000000000000000000000000000000000707000000000000000000000000000000000007070707070707070707070007070000000000000000000000000000000000000000000000000000000000000000
310
00000000000000000000000000000007000000000000000000000000000000000000070000000000000000000000000000000000000000000000000000000000000000000000000000000000000000000000000000000000000000000000000007000000000000000000000000000000000000070707070707070707070700
310
00000000000000070707070707070707070707070700000000000000000000000000000000000000000000000000000000000000000000000000000000000000000000000700000000000000000000000000000000000007000000000000000000000000000000000000000000000000000000000000000000000000000000
310
00000000000000000000000000000000000000000000070000000000000000000000000000000000000707070707000000000000000000000000000007070707070700000707070700070000000000000000000000000000000000000000000000000000000000000000000000000000000000000000000000070000000000
310
00000000000000000000000000070000000000000000000000000000000000000000000000000000000000000000000000000000000000000000000000000000000000000000000000000007000000000000000000000000000000000000070700000000000000000000000000000000000707000000000000070707070007
310
00000000000000000000000000000000000000000000000000000000000000000000000000000000000000000000000700000000000000000000000000000000000007000000000000000000000000000000000000000000000000000000000000000000000000000000000000000000000000000000000000000000000000
310
00070707070707070707070707070707070707070707070707070707070707070707070707070707070707070707070707070707070707070707070707070707070707070707070707070707070707070707070707070707070707070707070707070707070707070707070707070707070707070707070700000000000000
310
00000000000000000000000000000000000000000000000000000000000000000000000000000000000000000000000000000000000000000000000000000000000000000000000000000000000000000000000000000000000000000000000000000000000000000000000000000000000000000000000000000000000000
310
00000000000000000000000000000000000000000000000000000000000000000000000000000000000000000000000000000000000000000000000000000000000000000000000000000000000000000000000000000000000000000000000000000000000000000000000000000000000000000000000000000000000000
310
00000000000000000000000000000000000000000000000000000000000000000000000000000000000000000000000000000000000000000000000000000000000000000000000000000000000000000000000000000000000000000000000000000000000000000000000000000000000000000000000000000000000000
310
00000000000000000000000000000000000000000000000000000000000000000000000000000000000000000000000000000000000000000000000000000000000000000000000000000000000000000000000000000000000000000000000000000000000000000000000000000000000000000000000000000000000000
310
00000000000000000000000000000000000000000000000000000000000000000000000000000000000000000000000000000000000000000000000000000000000000000000000000000000000000000000000000000000000000000000000000000000000000000000000000000000000000000000000000000000000000
310
000000000000000000000000000000000000000000000000000000000000000000000000000000000000000000000000000000000000000000000000000000000000000000000000000000000000000000000000000000000000000000000000000000000000000000000000
  0
ENDSEC
  0
EOF
